<svg version="1.1" xmlns="http://www.w3.org/2000/svg" xmlns:xlink="http://www.w3.org/1999/xlink" width="200.43892" height="192.24846" viewBox="0,0,200.43892,192.24846"><defs><linearGradient x1="-37.33033" y1="81.0455" x2="153.78616" y2="81.0455" gradientUnits="userSpaceOnUse" id="color-1"><stop offset="0" stop-color="#4f4f4f"/><stop offset="1" stop-color="#9c9c9c"/></linearGradient></defs><g transform="translate(41.95982,23.04504)"><g data-paper-data="{&quot;isPaintingLayer&quot;:true}" fill-rule="nonzero" stroke-linejoin="miter" stroke-miterlimit="10" stroke-dasharray="" stroke-dashoffset="0" style="mix-blend-mode: normal"><path d="M-26.78169,122.73073l-10.54864,-120.80001l191.11649,-3.72305l-16.13321,165.67566z" fill="url(#color-1)" stroke="#000000" stroke-width="8.5" stroke-linecap="butt"/><g><path d="M-30.27685,13.83323c0,0 -11.40563,-0.64275 4.59221,-0.91998c7.393,-0.1281 2.08066,-0.35866 6.66678,-5.29319c4.49701,-4.83865 4.34183,-14.69624 4.34183,-14.69624c0,0 1.96076,11.12789 -0.57399,19.815c-0.84068,2.88116 6.2185,13.9539 5.55071,16.16908c-1.64674,5.46251 -11.09741,0.50787 -15.97493,3.01819c-15.7297,7.78978 -5.6546,-8.40957 -5.6546,-8.40957" data-paper-data="{&quot;index&quot;:null}" fill="#000000" stroke="#000000" stroke-width="0" stroke-linecap="round"/><path d="M7.98816,43.15238c0,0 -13.53625,10.44253 -28.6364,1.49326c-6.57108,-4.0333 -12.90494,-0.96861 -15.06037,-11.1452c-0.13481,-0.63649 -0.24906,-1.35145 -0.34503,-2.13032c-1.23893,-10.05437 0.56998,-30.75718 0.56998,-30.75718c0,0 -0.89518,9.81809 3.22569,14.98086c4.20251,5.26506 13.28517,7.41039 20.64767,8.09344c15.93183,1.47808 31.50029,-13.92133 31.50029,-13.92133" data-paper-data="{&quot;index&quot;:null}" fill="#000000" stroke="#000000" stroke-width="0" stroke-linecap="round"/><path d="M-3.85673,127.93468c2.34885,-11.75568 7.48135,-23.26827 10.04454,-26.81696c10.70306,-14.81812 22.52988,-14.72247 22.52988,-14.72247c0,0 22.711,2.79805 32.15066,7.23072c8.56779,4.02326 25.99584,31.24137 25.99584,31.24137c0,0 0.14277,-0.38832 0.33936,-0.94509c0.6044,1.73145 1.9815,3.57841 0.74226,3.67119c-1.35301,3.89334 -6.41688,14.53913 -9.46796,21.74134c-0.13108,0.30942 -0.2589,0.61692 -0.38356,0.92237c-1.95198,-0.43625 -3.90396,-0.87252 -5.85594,-1.30877c-1.25033,-0.27944 -2.50067,-0.55884 -3.75101,-0.83822c0.25231,-1.03895 0.41724,-1.62548 0.41724,-1.62548c0,0 -0.23217,0.60142 -0.61586,1.5811c-9.90599,-2.2134 -19.81221,-4.42534 -29.71717,-6.64276c-0.17071,-2.51089 -0.31675,-4.33188 -0.41723,-4.85988c-0.11592,-0.60914 -1.1164,1.31791 -2.42469,4.22349c-13.47436,-3.01811 -26.94611,-6.04761 -40.41146,-9.10605c0.33443,-1.2221 0.61526,-2.47409 0.82512,-3.74589z" data-paper-data="{&quot;index&quot;:null}" fill="#0f0f0f" stroke="#000000" stroke-width="0" stroke-linecap="butt"/><path d="M91.14624,120.65948c-0.31584,-0.71465 -0.49021,-1.41965 -0.25025,-1.99189c1.91189,-4.55947 0.80817,-0.1128 0.25025,1.99189z" data-paper-data="{&quot;index&quot;:null}" fill="#0f0f0f" stroke="#000000" stroke-width="0" stroke-linecap="butt"/><path d="M73.8452,144.20815l-0.57338,1.89986c-0.05485,-0.0077 -0.10969,-0.0154 -0.16454,-0.0231c0.46461,-1.15657 0.73792,-1.87675 0.73792,-1.87675z" fill="#000000" stroke="#000000" stroke-width="0" stroke-linecap="butt"/><path d="M49.63579,137.84982l0.53402,5.01286c-11.10343,-1.56182 -22.2061,-3.1287 -33.30672,-4.71017c7.45004,-10.86944 13.59286,-13.69873 13.59286,-13.69873z" fill="#000000" stroke="#000000" stroke-width="0" stroke-linecap="butt"/><path d="M47.93224,139.17558c-0.26898,1.07453 -0.748,2.13823 -1.40946,3.1739c-17.43593,-2.45452 -34.86962,-4.9241 -52.29615,-7.4456c-0.71136,-4.77357 0.22135,-9.33679 2.72377,-12.17773c8.07423,-9.16649 14.86405,-2.36385 30.98446,1.6714c16.12041,4.03525 22.37215,5.29114 19.99739,14.77803z" fill="#000000" stroke="#000000" stroke-width="0" stroke-linecap="butt"/><path d="M-12.97427,53.59651c0,0 -17.02657,-1.54024 -22.02042,-18.36776c-3.88717,-13.88357 17.04152,-58.27379 17.04152,-58.27379c0,0 -5.94409,38.1399 3.83267,49.04305c10.6818,11.91248 32.56805,11.19794 32.56805,11.19794" data-paper-data="{&quot;index&quot;:null}" fill="#000000" stroke="#000000" stroke-width="0" stroke-linecap="round"/><path d="M87.9129,42.84168c0,0 21.79395,-2.1313 30.83978,-15.32906c8.2794,-12.07954 7.64693,-35.7022 7.64693,-35.7022c0,0 16.30139,27.87587 14.2485,42.14646c-2.76821,17.33323 -19.45101,21.0697 -19.45101,21.0697" data-paper-data="{&quot;index&quot;:null}" fill="#000000" stroke="#000000" stroke-width="0" stroke-linecap="round"/><path d="M55.29879,129.77084l-0.40867,3.28836" data-paper-data="{&quot;index&quot;:null}" fill="#492000" stroke="#000000" stroke-width="0" stroke-linecap="round"/><path d="M26.19729,136.02507c1.36376,-14.52716 13.66061,-21.55745 13.66061,-21.55745l0.92211,27.07283c-4.86639,-0.68613 -9.73257,-1.37374 -14.59842,-2.06365c-0.09946,-1.06773 -0.10027,-2.21632 0.01571,-3.45173z" data-paper-data="{&quot;index&quot;:null}" fill="#492000" stroke="#000000" stroke-width="0" stroke-linecap="butt"/><path d="M114.32728,67.36007c1.01635,29.96506 -24.38407,55.4076 -56.73345,56.82737c-32.34939,1.4198 -59.39762,-21.72068 -60.414,-51.68575c-1.01638,-29.96505 24.38405,-55.40756 56.73342,-56.82734c32.3494,-1.41984 59.39769,21.72064 60.41404,51.68573z" data-paper-data="{&quot;index&quot;:null}" fill="#492000" stroke="#000000" stroke-width="0" stroke-linecap="butt"/><path d="M68.06637,61.60389" data-paper-data="{&quot;index&quot;:null}" fill="#492000" stroke="#000000" stroke-width="0" stroke-linecap="round"/><g data-paper-data="{&quot;index&quot;:null}" fill="#492000" stroke="#000000" stroke-width="0"><g><path d="M101.95607,84.11541c-0.4978,15.22949 -9.70243,27.28771 -20.55909,26.93287c-10.85666,-0.35487 -19.25415,-12.98853 -18.75633,-28.21799c0.49779,-15.22945 9.70242,-27.28771 20.55909,-26.93281c10.85667,0.35485 19.25419,12.9885 18.75639,28.21797z" stroke-linecap="butt"/><path d="M84.88701,56.74686c17.82122,1.62425 15.00563,38.71418 15.00563,38.71418c0,0 -6.0372,-1.99682 -17.13243,-1.77797c-6.32452,0.12474 -18.00429,0.92284 -18.00429,0.92284c0,0 -5.13019,-37.68 20.13106,-37.85902z" stroke-linecap="round"/><path d="M77.54165,96.51507c-0.18852,5.76763 -2.26661,10.38022 -4.64151,10.30261c-2.37487,-0.07761 -4.14731,-4.81614 -3.9588,-10.58371c0.18851,-5.76762 2.26663,-10.38021 4.64152,-10.3026c2.37487,0.07761 4.14729,4.81614 3.95879,10.58374z" stroke-linecap="butt"/><path d="M97.8691,86.33275l15.78724,-3.23522l-13.61034,10.00942" stroke-linecap="round"/></g><g data-paper-data="{&quot;index&quot;:null}"><path d="M39.3127,56.05118c10.85667,0.35489 19.25421,12.98852 18.75636,28.21797c-0.4978,15.22946 -9.70245,27.28769 -20.55912,26.93286c-10.85666,-0.35488 -19.25415,-12.98851 -18.75631,-28.21798c0.49781,-15.22948 9.70243,-27.28772 20.55909,-26.93285z" stroke-linecap="butt"/><path d="M55.47924,94.88136c0,0 -10.73772,-4.12304 -17.06008,-4.32971c-5.5577,-0.18166 -18.28491,1.14514 -18.28491,1.14514c0,0 -0.87762,-35.1004 19.0446,-35.48489c20.64041,-0.52725 16.30038,38.66945 16.30038,38.66945z" stroke-linecap="round"/><path d="M46.9243,85.9851c2.3749,0.07761 4.14727,4.81614 3.95877,10.58373c-0.18852,5.76763 -2.26658,10.38023 -4.64148,10.30262c-2.37489,-0.07761 -4.14729,-4.81614 -3.95879,-10.58373c0.18852,-5.76762 2.26661,-10.38022 4.64151,-10.30257z" stroke-linecap="butt"/><path d="M19.02687,90.45487l-12.92758,-10.87689l16.31556,3.17764" stroke-linecap="round"/></g></g><path d="M64.91877,119.39501c0,0 -0.7887,1.68798 -4.74775,0.23504c-1.13582,-0.41685 -2.38652,-1.20421 -4.11781,-1.47897c-1.7313,-0.27475 -0.69287,0.17092 -4.5089,-0.0701c-4.56529,-0.28835 -4.35603,-2.074 -4.35603,-2.074" data-paper-data="{&quot;index&quot;:null}" fill="none" stroke="#000000" stroke-width="0" stroke-linecap="round"/><path d="M32.22733,121.47605c0,0 -1.55592,-2.04898 1.80259,-1.63024c7.90315,0.98537 22.17869,4.647 27.02279,5.64113c3.31167,0.67964 4.29792,3.30234 4.29792,3.30234l-4.07548,15.63412c-10.82231,-1.51997 -21.64431,-3.04173 -32.46479,-4.57411z" data-paper-data="{&quot;index&quot;:null}" fill="#1a1a1a" stroke="#000000" stroke-width="0" stroke-linecap="butt"/><path d="M63.62156,123.18831l0.31922,6.64862c0,0 -0.59204,2.87829 0.25903,5.32282c1.58301,4.54687 2.72619,7.55981 3.32155,10.14077c-3.33369,-0.46809 -6.66736,-0.93619 -10.00099,-1.40456z" data-paper-data="{&quot;index&quot;:null}" fill="#1a1a1a" stroke="#000000" stroke-width="0" stroke-linecap="butt"/><path d="M27.2263,130.0673c2.16774,-2.57694 3.32237,-5.80578 3.32237,-5.80578l2.85708,-6.03019l-2.28991,21.94429c-3.6147,-0.51141 -7.22924,-1.02393 -10.84358,-1.5379c1.9453,-3.18747 4.79193,-6.00017 6.95405,-8.57043z" data-paper-data="{&quot;index&quot;:null}" fill="#1a1a1a" stroke="#000000" stroke-width="0" stroke-linecap="butt"/><path d="M25.99925,132.14688l5.15883,-4.45067c0,0 -4.22829,5.42595 -5.77397,11.66748c-1.42441,-0.20203 -2.8488,-0.40427 -4.27315,-0.60672c2.18691,-3.98225 4.88829,-6.6101 4.88829,-6.6101z" data-paper-data="{&quot;index&quot;:null}" fill="#111111" stroke="#0b0b0b" stroke-width="0" stroke-linecap="butt"/><path d="M61.04096,125.14839c15.25003,9.11554 3.60289,16.7652 -17.60128,13.51907c-21.36735,-3.0895 -23.77071,-12.33269 -15.96087,-17.79727c6.04147,-4.22725 14.47468,-7.13115 33.56217,4.27821z" data-paper-data="{&quot;index&quot;:null}" fill="#0c0c0c" stroke="#000000" stroke-width="0" stroke-linecap="round"/><path d="M123.05742,67.79093c1.25764,32.46547 -28.09827,59.96066 -65.56835,61.41215c-37.47006,1.4515 -68.865,-23.69032 -70.12262,-56.15578c-1.25765,-32.46545 28.09832,-59.96058 65.56835,-61.41209c37.47003,-1.45152 68.86501,23.69031 70.12265,56.15577z" data-paper-data="{&quot;index&quot;:null}" fill="#686868" stroke="#000000" stroke-width="0" stroke-linecap="butt"/><path d="M112.90641,70.62999c0.91429,26.95604 -19.5491,50.25221 -47.21797,55.6927c-3.08862,0.60732 -6.267,0.99213 -9.51546,1.1347c-32.34939,1.4198 -59.39762,-21.72068 -60.41396,-51.68574c-1.01638,-29.96505 24.38402,-55.40757 56.73341,-56.82735c32.3494,-1.41984 59.39767,21.72065 60.41402,51.68575z" data-paper-data="{&quot;index&quot;:null}" fill="#515151" stroke="#000000" stroke-width="0" stroke-linecap="butt"/><path d="M60.84239,64.39963" data-paper-data="{&quot;index&quot;:null}" fill="none" stroke="#000000" stroke-width="0" stroke-linecap="round"/><path d="M90.86421,131.75514c-4.68809,6.50294 -20.11253,13.98943 -20.11253,13.98943c0,0 10.73812,-11.5836 9.58385,-22.37893c-1.17186,-10.95981 4.10831,-20.93208 0.91576,-23.48809c-3.94624,-3.1594 -19.66755,-12.89264 -26.91545,-7.15716c-1.30854,1.03548 0.78353,3.16149 0.59178,5.47856c-0.26822,3.24105 -2.51144,7.07288 -2.51144,7.07288c0,0 0.20146,-3.64368 -0.57855,-5.78382c-0.99871,-2.74018 -4.89146,-9.67916 -4.89146,-9.67916c0,0 -15.46041,-1.46898 -38.35553,2.6589c-2.95676,0.53312 -6.49628,27.8735 -6.49628,27.8735c0,0 -3.68167,-7.28097 -6.93476,-12.85227c-1.82496,-3.12549 -3.81514,-5.75592 -4.2145,-6.15625c-2.46704,-2.47292 -7.09624,-22.6801 -7.09624,-22.6801c0,0 -6.58665,-69.68284 56.66196,-69.55926c5.44317,0.01064 22.00303,-0.39573 28.45046,0.69846c0.99968,0.16964 38.9385,7.18575 58.85892,47.32021c7.2194,14.54524 1.75086,39.05365 1.75086,39.05365c0,0 -1.72836,-22.55586 -2.97185,-15.80224c-1.0694,5.80804 0.22283,12.98918 -1.07478,18.71511c-2.4916,10.99457 -11.35657,25.52592 -11.35657,25.52592c0,0 5.34398,-11.6188 -0.63295,-11.90256c-4.6285,-0.21977 0.59455,-4.4693 -0.52791,-2.23487c-1.70383,3.39181 3.26675,6.28266 -3.00621,14.41876c-0.65864,3.83705 -4.81932,8.24075 -9.33506,12.00642c-5.94281,4.9557 -12.50057,8.80642 -12.50057,8.80642c0,0 6.82092,-10.46843 7.41994,-18.34515c0.44531,-2.49512 -0.32567,-5.87289 -0.32567,-5.87289c0,0 -1.8448,6.73679 -4.39523,10.27455z" data-paper-data="{&quot;index&quot;:null}" fill="#1a1a1a" stroke="#000000" stroke-width="0" stroke-linecap="round"/><path d="M93.05036,89.60297c-0.49779,15.22945 -6.45171,25.75536 -20.30272,25.2075c-13.56791,-0.75772 -19.51052,-11.26318 -19.01271,-26.49264c0.49779,-15.22945 9.70239,-27.2877 20.55908,-26.93281c10.85666,0.35489 19.25417,12.98853 18.75638,28.21797z" data-paper-data="{&quot;index&quot;:null}" fill="#d8d3e1" stroke="#000000" stroke-width="0" stroke-linecap="butt"/><path d="M62.05989,92.52213c-0.4912,5.7385 -2.68772,9.99264 -4.90599,9.50194c-2.21827,-0.49071 -3.61838,-5.54049 -3.12718,-11.27895c0.49122,-5.73851 2.68772,-9.99263 4.90602,-9.50192c2.21831,0.49071 3.61838,5.54048 3.12716,11.27895z" data-paper-data="{&quot;index&quot;:null}" fill="#000000" stroke="#000000" stroke-width="0.5" stroke-linecap="butt"/><path d="M76.14135,58.5935c21.44022,0.92042 17.43327,33.55007 17.43327,33.55007c0,0 -13.25744,0.78122 -19.77663,1.56502c-6.58217,0.79137 -19.52927,3.16072 -19.52927,3.16072c0,0 -2.57787,-7.94085 -0.36188,-18.94356c1.58287,-7.14207 7.12719,-15.68904 14.74752,-18.58177c1.92887,-0.7322 4.0508,-0.74383 6.40161,-0.74712c0.35648,-0.0005 0.71822,-0.0008 1.08535,-0.00341z" data-paper-data="{&quot;index&quot;:null}" fill="#000000" stroke="#000000" stroke-width="0" stroke-linecap="round"/><path d="M29.08226,87.82511c0,0 -6.44617,18.66317 -14.24875,26.18263c-10.04527,10.08307 -6.60166,20.58243 -6.60166,20.58243c0,0 -13.22583,-10.37715 -15.81571,-19.39132c-2.4032,-2.83003 -3.49678,-6.71637 -3.52493,-9.51689c-0.04822,-4.79659 2.42453,-7.90664 2.42453,-7.90664c0,0 -3.22329,7.98063 -8.35081,7.60652c-5.66685,1.08276 -8.11577,8.45442 -8.11577,8.45442c0,0 -6.26549,-11.35147 -3.82314,-25.45846c0.57649,-5.71998 3.36337,-13.58374 5.65156,-19.01624c1.75992,-4.17834 3.21259,-6.76625 3.21259,-6.76625c0,0 0.21761,3.11048 -1.56031,4.82114c-0.7203,0.69304 -1.57697,5.00578 -3.78167,4.83802c-3.70014,2.07322 -5.61525,5.51615 -5.61525,5.51615c0,0 -0.40129,-41.62365 18.93581,-49.57916c5.57226,-0.68474 19.9568,-17.98298 28.0763,-19.22172c12.60079,-1.92243 20.14259,-0.36589 23.77003,-0.60759c0.64631,-0.04308 7.87388,0.53638 7.87388,0.53638" fill="#1a1a1a" stroke="#000000" stroke-width="0" stroke-linecap="round"/><path d="M31.31991,58.86604c10.85666,0.35489 19.25419,12.98852 18.75634,28.21798c-0.24433,20.30554 -11.99398,27.45104 -26.2915,24.82151c-10.70029,-3.10277 -16.52312,-16.10963 -13.0042,-29.6306c0.4978,-15.22946 9.68267,-23.76378 20.53933,-23.40889z" data-paper-data="{&quot;index&quot;:null}" fill="#d8d3e1" stroke="#000000" stroke-width="0" stroke-linecap="butt"/><path d="M55.41738,129.31866c0,0 -0.40647,-1.20979 -9.71323,-3.84006c-4.71251,-1.33186 -4.69384,-5.5781 -4.69384,-5.5781" fill="none" stroke="#000000" stroke-width="0" stroke-linecap="round"/><path d="M-25.45755,110.96984c0,0 -1.44849,-12.4893 4.10305,-21.73821c7.47303,-12.45015 5.6063,-36.64752 5.6063,-36.64752c0,0 2.26073,29.73894 -4.10461,36.0997c-2.37453,2.3728 -2.76685,6.77702 -3.56752,10.48858c-1.34565,6.23794 -2.03721,11.79744 -2.03721,11.79744z" fill="#000000" stroke="#000000" stroke-width="0" stroke-linecap="round"/><path d="M130.96774,69.39399c0,0 -9.85787,-25.35063 -18.27242,-20.86735c-14.96582,7.97382 -44.45517,-10.3969 -44.45517,-10.3969c0,0 25.32387,14.40561 45.62193,6.5801c9.45585,-3.64552 17.10567,24.68413 17.10567,24.68413z" fill="#000000" stroke="#000000" stroke-width="0" stroke-linecap="round"/><path d="M43.13593,91.66927c-0.4912,5.73849 -2.68772,9.99264 -4.90599,9.50194c-2.21827,-0.49071 -3.61838,-5.54049 -3.12718,-11.27896c0.49122,-5.73851 2.68773,-9.99262 4.90602,-9.50192c2.21831,0.49071 3.61838,5.54048 3.12716,11.27895z" data-paper-data="{&quot;index&quot;:null}" fill="#000000" stroke="#000000" stroke-width="0.5" stroke-linecap="butt"/><path d="M18.41135,89.15152c-0.36626,5.75007 -2.29011,9.98275 -4.297,9.45395c-2.00687,-0.52878 -3.33689,-5.61882 -2.97063,-11.36886c0.36627,-5.75007 2.29012,-9.98271 4.29702,-9.45395c2.00689,0.52878 3.33689,5.61879 2.97061,11.36884z" data-paper-data="{&quot;index&quot;:null}" fill="#eee5ff" stroke="#000000" stroke-width="0" stroke-linecap="butt"/><g fill="none"><g stroke="#b98f21" stroke-width="0" stroke-linecap="round"><path d="M-2.44936,17.58511l-9.05701,0.38512" data-paper-data="{&quot;index&quot;:null}"/></g><g stroke="none" stroke-width="1" stroke-linecap="butt" font-family="sans-serif" font-weight="normal" font-size="12" text-anchor="start"/></g><path d="M50.73922,81.87064c0.95381,8.77127 -1.75933,15.09832 -1.75933,15.09832c0,0 -10.6412,-3.68661 -16.53306,-5.09703c-6.68844,-1.60111 -21.51166,-4.01032 -21.51166,-4.01032c0,0 -2.22102,-1.81561 0.44724,-11.75606c2.40364,-9.26167 9.46887,-16.48692 19.52279,-16.68097c16.40869,0.13699 19.83405,22.44611 19.83405,22.44611z" data-paper-data="{&quot;index&quot;:null}" fill="#000000" stroke="#000000" stroke-width="0" stroke-linecap="round"/><path d="M91.23032,83.86992c0,0 7.95766,-0.16057 11.47237,-0.8042c4.77325,-0.8741 14.56524,-3.96389 14.56524,-3.96389c0,0 -6.71377,5.13433 -11.13451,6.63635c-3.68587,1.25235 -13.17023,3.2832 -13.17023,3.2832" data-paper-data="{&quot;index&quot;:null}" fill="#000000" stroke="#000000" stroke-width="0" stroke-linecap="round"/><path d="M95.32249,87.95813c0,0 1.72626,2.32956 2.31859,3.71391c0.76987,1.79927 1.90927,6.167 1.90927,6.167c0,0 -2.7219,-1.84959 -4.50098,-2.74512c-2.02611,-1.01987 -7.01128,-3.04973 -7.01128,-3.04973" data-paper-data="{&quot;index&quot;:null}" fill="#000000" stroke="#000000" stroke-width="0" stroke-linecap="round"/><g stroke-width="0" stroke-linecap="round"><g><path d="M-8.57928,26.13344l-9.99238,-13.01052l14.89999,4.85261" data-paper-data="{&quot;index&quot;:null}" fill="#000000" stroke="#000000"/><path d="M-7.53045,26.42978l-9.9952,-0.26635l10.11652,-8.49052" data-paper-data="{&quot;index&quot;:null}" fill="#000000" stroke="#000000"/><path d="M-20.61407,33.19153l8.79477,-2.19771" data-paper-data="{&quot;index&quot;:null}" fill="none" stroke="#b98f21"/></g><g fill="#000000" stroke="#000000"><path d="M-8.2485,27.96631c0,0 -5.38422,-10.10308 1.05978,-20.0454c3.22935,-9.45848 137.74888,-47.40041 125.95594,-16.17573c3.57764,4.48704 -6.36843,25.69456 -6.36843,25.69456z"/><path d="M-5.64032,23.76401c1.77811,-0.51775 3.99619,-0.99635 6.73175,-1.41986c39.01772,-6.04097 106.16769,-10.8223 116.5644,-7.50065c9.17404,2.93105 -5.23163,22.6054 -5.23163,22.6054l-115.55986,-1.6474c0,0 -18.0341,-7.51524 -2.50459,-12.03748z"/></g></g><path d="M41.75515,126.01118c0,0 0.68676,-1.00601 3.23429,-1.08695c1.0819,-0.03437 3.01407,0.71082 4.53439,0.77387c5.38904,0.22351 6.93329,1.30982 6.93329,1.30982" fill="none" stroke="#000000" stroke-width="1.5" stroke-linecap="round"/><path d="M27.53797,127.39764l0.98195,-1.6592l0.45972,1.76236l1.8129,0.62471l-1.7028,0.56995l0.59066,2.10835l-1.7266,-1.41924l-2.09707,0.93419l1.22373,-1.8684l-1.46475,-0.55969z" fill="#000000" stroke="#000000" stroke-width="0" stroke-linecap="round"/><path d="M38.86239,134.19119l0.87326,-1.47555l0.40884,1.56728l1.61224,0.55557l-1.51432,0.50687l0.52528,1.87498l-1.53549,-1.26215l-1.86494,0.83079l1.08827,-1.66159l-1.30262,-0.49775z" fill="#000000" stroke="#000000" stroke-width="0" stroke-linecap="round"/><path d="M32.73086,130.84128l1.12064,-1.89352l0.52465,2.01125l2.06892,0.71294l-1.94327,0.65043l0.67408,2.40611l-1.97045,-1.61967l-2.39323,1.06613l1.39654,-2.13226l-1.6716,-0.63874z" fill="#000000" stroke="#000000" stroke-width="0" stroke-linecap="round"/><path d="M37.40051,129.94204l0.76926,-1.29981l0.36015,1.38063l1.4202,0.4894l-1.33395,0.44649l0.46272,1.65166l-1.3526,-1.11181l-1.64283,0.73183l0.95866,-1.46368l-1.14747,-0.43846z" fill="#000000" stroke="#000000" stroke-width="0" stroke-linecap="round"/><path d="M43.28543,131.69934l0.87327,-1.47556l0.40884,1.5673l1.61223,0.55557l-1.51432,0.50687l0.52528,1.87498l-1.5355,-1.26215l-1.86494,0.8308l1.08827,-1.66159l-1.30262,-0.49775z" fill="#000000" stroke="#000000" stroke-width="0" stroke-linecap="round"/><path d="M48.49186,134.08069l1.12062,-1.89353l0.52466,2.01125l2.06892,0.71295l-1.94329,0.65044l0.67408,2.4061l-1.97044,-1.61967l-2.39322,1.06612l1.39654,-2.13226l-1.67161,-0.63873z" fill="#000000" stroke="#000000" stroke-width="0" stroke-linecap="round"/><path d="M61.14617,131.55776l0.49869,-1.85322l0.91134,1.56728l1.90524,0.1151l-1.48073,1.00113l1.12925,1.86411l-2.0346,-0.90005l-1.76159,1.45567l0.6747,-2.11837l-1.55403,-0.14569z" fill="#000000" stroke="#000000" stroke-width="0" stroke-linecap="round"/><path d="M54.56107,131.63704l0.87327,-1.47555l0.40884,1.56729l1.61223,0.55557l-1.51432,0.50686l0.52529,1.87499l-1.53549,-1.26215l-1.86496,0.83078l1.08828,-1.66158l-1.30262,-0.49775z" fill="#000000" stroke="#000000" stroke-width="0" stroke-linecap="round"/><path d="M118.94203,13.80521c0,0 -10.58792,0.43686 4.12343,-1.34534c6.79849,-0.82359 1.87515,-0.55185 5.51776,-5.87947c3.57183,-5.2241 2.26193,-14.98919 2.26193,-14.98919c0,0 7.77122,24.75279 6.46341,33.61008c-0.43374,2.9376 -1.75397,4.96319 -2.10721,7.22378c-0.87109,5.5745 -5.67757,-4.05353 -9.87571,-1.10352c-13.57493,9.21016 -6.20694,-7.81042 -6.20694,-7.81042" data-paper-data="{&quot;index&quot;:null}" fill="#000000" stroke="#000000" stroke-width="0" stroke-linecap="round"/><path d="M-11.36871,67.27006c0,0 6.39213,-9.76037 17.94299,-11.35491c11.86255,-1.63756 26.68563,0.22772 29.94867,1.70517c5.9413,2.69013 14.59806,11.30355 14.59806,11.30355c0,0 -4.80261,18.83434 -18.91154,30.77118c-5.48029,4.63657 -15.20737,11.10662 -15.20737,11.10662" fill="#1a1a1a" stroke="#000000" stroke-width="0" stroke-linecap="round"/><path d="M56.87606,59.08529c1.59916,0.96717 0.63197,2.56635 0.63197,2.56635l-0.91879,1.24938c-2.61384,1.92365 -4.5335,4.2487 -6.69259,6.63053c-0.2324,1.05062 -1.23051,1.80011 -1.82685,2.70761l-0.49787,0.0616l0.10074,0.20326l-1.92529,0.95418c-0.30003,0.15525 -0.64579,0.23108 -1.00733,0.20198c-1.02883,-0.08279 -1.79575,-0.98395 -1.71296,-2.01278c0.0414,-0.51442 0.28738,-0.96336 0.65162,-1.27334l1.61022,-1.37036l0.16078,0.18891c0.30179,-0.45059 0.61422,-0.89433 0.93677,-1.33097c0.28505,-1.55356 -1.24132,-2.45292 -2.75739,-3.24625c-3.52229,-1.84316 -7.31638,-3.43672 -10.7011,-5.50675c-3.58663,-1.00285 -7.49379,-0.8355 -11.16631,-0.80394c-5.4702,0.04701 -11.11089,-0.22715 -16.54007,0.83955c-2.01605,0.39611 -3.79831,1.59447 -5.77555,2.15292c-1.30545,0.36871 -2.72453,0.27949 -4.00302,0.73296c-3.02622,1.07336 -4.53246,3.57469 -5.91293,6.38358c0,0 -0.83104,1.67396 -2.505,0.84293c-1.67395,-0.83103 -0.84291,-2.50499 -0.84291,-2.50499c1.88493,-3.76462 3.98379,-6.72702 8.01382,-8.24514c1.38936,-0.52338 2.94512,-0.43802 4.37351,-0.84288c1.9917,-0.56453 3.79189,-1.75548 5.82141,-2.16367c5.68865,-1.14415 11.61699,-0.87642 17.35137,-0.93297c4.25431,-0.04196 8.55331,-0.07522 12.67842,1.11489c3.47702,2.08156 7.28045,3.68021 10.86395,5.58241c1.78775,0.94897 3.18709,1.83559 4.00484,3.13649c1.55591,-1.6425 3.26028,-3.14967 5.07393,-4.50252l-0.05372,-0.18095c0,0 0.96718,-1.59916 2.56635,-0.63199z" fill="#1a1a1a" stroke="none" stroke-width="0" stroke-linecap="butt"/><path d="M52.71228,43.29803c0,0 12.96676,-13.6504 28.79929,-15.38567c11.9145,-1.86925 22.62233,9.33368 22.62233,9.33368c0,0 -6.76469,1.30939 -11.57478,4.26944c-3.19356,1.98965 -5.46803,8.15631 -5.46803,8.15631c0,0 10.90877,-3.76419 19.65291,6.38289c4.60769,5.34696 7.35209,24.90552 7.35209,24.90552c0,0 -9.94992,-7.21624 -15.53503,-8.20977c-9.83992,-1.75042 -13.40395,2.10559 -13.40395,2.10559c0,0 5.28271,-4.77905 4.0286,8.74706c-1.06957,11.53576 -16.61488,18.11633 -16.61488,18.11633c0,0 2.01207,-8.1646 -5.49417,-13.80916c-5.3753,-4.04212 -14.94409,-7.60757 -14.94409,-7.60757" fill="#1a1a1a" stroke="#000000" stroke-width="0" stroke-linecap="round"/><path d="M111.03905,56.92717c1.77089,0.59725 1.17364,2.36813 1.17364,2.36813l-0.40051,1.01297c-0.13658,1.69727 -0.68551,3.39593 -0.47731,5.08591c0.28804,2.33805 3.79696,2.21255 5.31758,2.90481c2.70016,1.22925 4.80147,3.53899 7.66279,4.30144c0,0 1.79729,0.51234 1.28495,2.30964c-0.51233,1.7973 -2.30963,1.28495 -2.30963,1.28495c-3.09961,-0.92502 -5.22541,-3.13181 -8.13084,-4.46924c-2.24311,-1.03256 -4.31685,-0.64012 -6.11558,-2.81475c-2.18732,-2.64441 -1.20482,-5.83179 -0.95771,-8.90257l0.58449,-1.90765c0,0 0.59725,-1.77088 2.36814,-1.17365z" fill="#1a1a1a" stroke="none" stroke-width="0" stroke-linecap="butt"/><path d="M6.82628,132.8098c0,0 -5.48171,-5.17144 -7.34204,-13.89593c-0.64132,-3.00761 -0.98401,-9.48673 -0.874,-13.85086c0.01921,-0.76205 0.11369,-1.93942 0.21184,-2.50286c3.61264,-14.044 1.29392,-16.98738 1.29392,-16.98738c0,0 3.20671,7.1787 1.18083,17.20483c-0.88633,5.08809 -0.63089,10.21146 0.20421,15.38625c1.29969,8.05354 4.54013,15.08278 4.54013,15.08278z" fill="#000000" stroke="#000000" stroke-width="0" stroke-linecap="round"/><path d="M5.36658,132.04612c0,0 -5.14947,-14.76465 -2.9238,-21.11651c4.61342,-13.16625 4.85877,-33.42026 4.85877,-33.42026c0,0 3.06718,14.33541 -2.72788,31.49837c-2.11507,12.11784 1.34964,22.33324 1.34964,22.33324z" fill="#000000" stroke="#000000" stroke-width="0" stroke-linecap="round"/><path d="M50.1058,65.23221c0.99341,0.22575 1.83231,0.44251 2.19574,0.60135l3.59523,0.9033c0.88656,0.20611 1.51256,1.03535 1.43735,1.96997c-0.05298,0.65846 -0.44117,1.20961 -0.98349,1.49943c0.08293,0.23798 0.11878,0.4967 0.09726,0.76403c-0.06432,0.79921 -0.62245,1.44037 -1.35066,1.64795l-1.72577,0.53542c0.07553,0.22879 0.11049,0.50127 0.08437,0.82573c-0.14991,1.86287 -2.01278,1.71296 -2.01278,1.71296c-2.48383,-0.19988 -4.96764,-0.39976 -7.45148,-0.59964l-1.98707,-0.1599c-1.02883,-0.08279 -1.79575,-0.98395 -1.71296,-2.01278c0.07027,-0.87327 0.73013,-1.55785 1.55724,-1.69427l1.72537,-0.32459c-0.63218,-0.34127 -1.03706,-1.03329 -0.97574,-1.79536c0.04826,-0.59978 0.37465,-1.11056 0.84233,-1.41585l-1.27667,-0.25393c-0.93064,-0.17185 -1.59882,-1.02362 -1.52126,-1.98747c0.07892,-0.98067 0.90136,-1.72338 1.86918,-1.71907l5.73443,-0.03693c0,0 1.65082,-0.01062 1.85938,1.53964z" fill="#1a1a1a" stroke="none" stroke-width="0" stroke-linecap="butt"/><path d="M-26.04013,120.91093c0,0 -0.39365,-25.71694 7.54889,-29.94698c14.78819,-7.87589 19.62818,-34.8565 19.62818,-34.8565c0,0 -4.72413,25.84084 -15.52248,32.61657c-3.8377,2.40809 -7.24856,7.39081 -8.98259,12.52924c-3.14511,9.31985 -2.67197,19.65765 -2.67197,19.65765z" fill="#000000" stroke="#000000" stroke-width="0" stroke-linecap="round"/></g></g></g></svg>