<svg version="1.1" xmlns="http://www.w3.org/2000/svg" xmlns:xlink="http://www.w3.org/1999/xlink" width="200.43892" height="205.98253" viewBox="0,0,200.43892,205.98253"><defs><linearGradient x1="159.87392" y1="131.07403" x2="350.99041" y2="131.07403" gradientUnits="userSpaceOnUse" id="color-1"><stop offset="0" stop-color="#5b0f0f"/><stop offset="1" stop-color="#9c0000"/></linearGradient></defs><g transform="translate(-155.24443,-34.12914)"><g data-paper-data="{&quot;isPaintingLayer&quot;:true}" fill-rule="nonzero" stroke="#000000" stroke-linejoin="miter" stroke-miterlimit="10" stroke-dasharray="" stroke-dashoffset="0" style="mix-blend-mode: normal"><path d="M189.08797,239.27315c0,0.32503 -0.08783,0.58853 -0.19618,0.58853c-0.10834,0 -0.19618,-0.2635 -0.19618,-0.58853c0,-0.32504 0.08783,-0.58853 0.19618,-0.58853c0.10834,0 0.19618,0.26349 0.19618,0.58853z" fill="#000000" stroke-width="0.5" stroke-linecap="butt"/><path d="M170.42256,172.75926l-10.54864,-120.80001l191.11649,-3.72305l-16.13321,165.67566z" fill="url(#color-1)" stroke-width="8.5" stroke-linecap="butt"/><g><path d="M204.56015,146.35653c0,0 4.41931,7.36401 -5.0705,8.93077c-8.77022,1.44795 -11.62217,12.43773 -11.62217,12.43773c0,0 0.95786,-5.85413 -0.93459,-9.85208c-1.76266,-3.72378 -4.67454,-8.35576 -4.60719,-11.60646c0.28749,-13.87526 3.1182,-20.02752 3.1182,-20.02752z" data-paper-data="{&quot;index&quot;:null}" fill="#000000" stroke-width="0.5" stroke-linecap="round"/><path d="M158.4797,92.72803c0,0 13.71467,-12.097 20.65009,-16.65794c5.84828,-3.846 18.25978,-8.93032 18.25978,-8.93032c0,0 -7.15669,8.06175 -10.65277,6.99873c-3.86629,-1.17557 -20.21297,-5.53803 -20.21297,-5.53803c0,0 22.63884,-9.07268 32.34069,-15.38617c15.98639,-10.40317 26.08617,3.07373 26.08617,3.07373c0,0 21.74017,4.08663 22.81707,4.63793c2.84264,1.45522 -14.2667,0.60473 -14.2667,0.60473l3.64285,5.45314l24.32705,-8.33284l-4.39822,23.34853l20.28367,11.87757l10.06756,4.26313l-8.33868,6.8822l33.30949,-0.69277l-13.98307,13.26112l18.34853,7.22165l-20.13997,26.12755c0,0 -6.3245,8.51054 -10.93105,12.2596c-4.66704,3.79828 -16.04859,10.87437 -16.04859,10.87437c0,0 1.49625,-3.39912 2.83679,-6.89845c1.70317,-4.44588 2.31152,-9.54351 0.12424,-7.54735c-2.39284,2.18374 -6.89851,5.17554 -6.89851,5.17554c0,0 -0.4907,-6.4171 -0.18926,-9.47917c0.28961,-2.94187 1.96384,-8.54709 1.96384,-8.54709c0,0 -8.57636,-1.52228 -12.39578,-3.36386c-3.80853,-1.83632 -12.90531,-4.20711 -12.90531,-4.20711c0,0 2.07245,-4.9337 2.58052,-7.59945c0.54817,-2.87616 0.59736,-9.07428 0.59736,-9.07428l-13.73545,7.82589c0,0 1.22705,-6.06973 0.19735,-9.85732c-1.19965,-4.41276 -11.22087,-13.17836 -11.22087,-13.17836l-18.02677,12.3991c0,0 3.94462,-4.73572 2.85589,-6.20189c-1.13199,-1.52442 -5.88054,-1.20136 -5.88054,-1.20136l-27.31981,16.80721c0,0 1.73202,-18.75676 2.87759,-22.21362c1.09829,-3.31419 4.10165,-10.20765 4.10165,-10.20765c0,0 -5.03149,-1.11676 -7.88182,-1.6637c-3.78758,-0.72679 -12.84208,-2.31297 -12.84208,-2.31297z" data-paper-data="{&quot;index&quot;:null}" fill="#000000" stroke-width="0" stroke-linecap="round"/><path d="M251.18585,183.9245c0,0 1.18196,5.6296 2.79882,13.95613c-5.01729,-1.82989 -10.03196,-3.66695 -15.04373,-5.51177l0.19759,-6.73484z" data-paper-data="{&quot;index&quot;:null}" fill="#404040" stroke-width="0" stroke-linecap="butt"/><path d="M250.41718,179.34202c0,0 1.83467,8.61822 3.87145,18.64946c-5.54866,-2.02332 -11.0941,-4.0554 -16.636,-6.09704l0.63566,-9.99177z" data-paper-data="{&quot;index&quot;:null}" fill="#540000" stroke-width="0" stroke-linecap="butt"/><path d="M279.58275,150.30122c0,0 -2.0839,13.0787 -2.45298,20.47722c-0.46693,9.3603 7.11567,22.6797 7.11567,22.6797l-8.91149,-0.85442l-6.01197,10.84614c-0.80967,-0.29275 -1.61928,-0.58567 -2.42882,-0.87876l-1.54853,-7.0613l-5.26837,4.58859c-3.55153,-1.29073 -7.10179,-2.58493 -10.65069,-3.8828l-1.63055,-4.71668l-1.60531,3.53213c-9.77881,-3.58327 -19.5471,-7.19498 -29.30312,-10.83966c-7.148,-2.67037 -14.09878,-5.82592 -21.04365,-8.99847l-0.00656,-0.07559l-8.37953,-3.88411c0,0 7.27039,-10.35485 8.9007,-19.31099c1.44501,-7.93824 1.57478,-23.89973 1.57478,-23.89973z" data-paper-data="{&quot;index&quot;:null}" fill="#000000" stroke-width="0" stroke-linecap="round"/><path d="M236.94025,163.29887c19.67325,1.26797 25.78856,7.96311 25.37773,14.33725c-0.35371,5.48804 -7.65376,13.76722 -22.2329,15.15375c-7.73994,-2.84698 -15.47306,-5.71239 -23.19848,-8.59848c-4.87826,-1.82244 -9.66466,-3.87085 -14.42001,-5.99641c-0.17938,-0.83608 -0.30976,-1.71872 -0.39178,-2.65058c0.41082,-6.37414 15.19219,-13.51349 34.86544,-12.24553z" data-paper-data="{&quot;index&quot;:null}" fill="#540000" stroke-width="0" stroke-linecap="butt"/><path d="M232.02679,182.84647l-1.23883,6.51339c-4.27946,-1.58363 -8.55672,-3.17317 -12.83165,-4.769c1.65498,-3.75252 2.67498,-6.01085 2.67498,-6.01085z" data-paper-data="{&quot;index&quot;:null}" fill="#404040" stroke-width="0" stroke-linecap="butt"/><path d="M233.66141,179.38614l-1.61764,10.43824c-4.76728,-1.76268 -9.53186,-3.53266 -14.29352,-5.31045c2.67006,-5.95879 4.6195,-10.24293 4.6195,-10.24293z" data-paper-data="{&quot;index&quot;:null}" fill="#540000" stroke-width="0" stroke-linecap="butt"/><path d="M225.35366,167.80726l23.4299,7.08279l2.7386,22.09181c-10.53367,-3.84742 -21.05555,-7.72687 -31.5634,-11.644z" data-paper-data="{&quot;index&quot;:null}" fill="#540000" stroke-width="0" stroke-linecap="butt"/><path d="M242.08426,67.51509c34.11362,1.15207 60.95899,26.04694 59.96079,55.60431c-0.9982,29.55735 -29.46195,52.58439 -63.57558,51.43235c-34.11363,-1.15207 -60.95899,-26.04699 -59.96081,-55.60434c0.9982,-29.55736 29.46195,-52.58436 63.57558,-51.43232z" data-paper-data="{&quot;index&quot;:null}" fill="#400000" stroke-width="0" stroke-linecap="butt"/><path d="M276.83359,61.1378l17.45283,0.24895l-11.16009,13.21857l24.20724,0.87953c0,0 -7.12418,4.72351 -6.20918,5.33849c0.36388,0.24457 7.70444,2.72491 13.46998,6.65499c5.79814,3.9523 10.02041,9.35377 10.02041,9.35377c0,0 -6.8489,-1.48557 -9.56863,-1.08274c-2.02138,0.2994 -5.28559,3.28288 -5.28559,3.28288l-22.83277,-5.51479l-8.30392,13.71493l-14.81206,-6.28632l-4.65104,19.918l-18.16595,-13.67484l-20.25979,7.92498l-8.63542,4.68623l-1.90909,-8.68417l-15.69416,22.32974l-3.48704,-12.23579c0,0 -6.45721,5.19262 -9.27969,8.52041c-2.73938,3.22979 -7.41336,11.1611 -7.41336,11.1611c0,0 -1.03218,-5.69851 -1.08954,-7.02287c-0.12088,-2.79144 5.98778,-17.2721 5.98778,-17.2721c0,0 -3.92722,-1.37462 -5.85726,-1.52121c-3.05821,-0.23228 -10.72093,0.26207 -10.72093,0.26207c0,0 9.72287,-9.50903 14.31208,-12.94375c3.321,-2.48555 10.67067,-5.75419 10.67067,-5.75419c0,0 -0.97782,-3.278 -2.79516,-4.89514c-1.93645,-1.72313 -8.48891,-5.14587 -8.48891,-5.14587c0,0 14.57924,-4.87763 20.73123,-5.73506c5.49298,-0.76557 18.17841,-1.54017 18.17841,-1.54017c0,0 -2.20742,-1.87933 -2.43801,-3.98714c-0.23934,-2.18788 -2.72301,-6.534 -2.72301,-6.534c0,0 11.19731,-3.03971 17.18267,-3.75776c6.04574,-0.72528 18.91249,-0.57245 18.91249,-0.57245c0,0 8.32798,-5.4701 12.65436,-7.63903c5.31774,-2.4695 16.7093,-3.87317 16.7093,-3.87317l-8.04161,11.19618z" data-paper-data="{&quot;index&quot;:null}" fill="#000000" stroke-width="0" stroke-linecap="round"/><path d="M309.21556,143.98764c-2.72627,-1.02532 -4.12783,-4.69537 -4.12783,-4.69537c0,0 -1.52545,7.9869 -2.55039,11.64113c-1.06907,3.81154 -13.90181,26.58434 -13.90181,26.58434l-9.89828,-34.71442c0,0 -3.81516,-2.84934 -5.66754,-2.04789c-1.78159,0.77082 -1.24265,7.26827 -1.24265,7.26827l-7.90508,-21.14705c0,0 -13.61391,2.72189 -17.22397,6.15754c-3.09862,2.94891 -5.63737,9.22007 -5.63737,9.22007l-6.97801,-14.61364c0,0 -3.60787,5.75719 -4.83893,8.71093c-1.141,2.73765 -2.29778,8.41254 -2.29778,8.41254c0,0 -9.06896,-2.6942 -13.36263,-3.04205c-4.30596,-0.34884 -12.43637,-3.54802 -12.43637,-3.54802c0,0 -1.88807,6.08187 -3.37591,8.95748c-1.54864,2.99311 -5.74084,8.66277 -5.74084,8.66277c0,0 -2.03898,-5.18638 -2.77157,-8.49075c-0.66965,-3.02052 -3.15791,2.01951 -4.33897,7.045c-0.9296,3.95552 -1.66888,7.90204 -1.66888,7.90204c0,0 -5.43398,-12.65601 -7.13423,-18.67474c-1.67821,-5.94073 -2.00201,-17.20668 -2.00201,-17.20668l-1.60445,-34.97543l19.72888,3.17856l-3.98669,-19.77205l27.68848,18.53232l-2.9815,-10.84229l11.002,1.46598l24.10249,-0.08685l10.03739,-23.95047l15.61348,20.77151l6.28345,-3.08525c0,0 14.97456,6.68923 18.22912,6.87063c1.23296,0.06872 1.62813,3.30844 1.62813,3.30844c0,0 5.72882,7.739 11.15824,9.66722c11.98717,4.25717 22.34082,5.91978 22.34082,5.91978c0,0 -14.37055,11.87291 -18.93649,12.2767c-4.12145,0.36448 -10.7625,-5.45978 -10.7625,-5.45978c0,0 6.75838,-1.51727 9.80661,4.90986c1.72074,3.62815 3.37452,7.23859 4.33738,9.65512c3.16458,7.94231 -3.38971,28.49385 -3.38971,28.49385c0,0 -1.57135,-7.89689 -5.19408,-9.25935z" data-paper-data="{&quot;index&quot;:null}" fill="#000000" stroke-width="0" stroke-linecap="round"/><path d="M234.81336,139.81033c-2.23504,10.41033 -8.96526,17.77716 -15.03239,16.45431c-6.06712,-1.32285 -9.17361,-10.83447 -6.93854,-21.2448c2.23504,-10.41033 8.96529,-17.77715 15.03239,-16.4543c6.06712,1.32285 9.17361,10.83446 6.93854,21.24479z" data-paper-data="{&quot;index&quot;:null}" fill="#830000" stroke-width="0" stroke-linecap="butt"/><path d="M252.32567,118.70016c6.13777,-0.94219 12.4503,6.82139 14.09943,17.34045c1.64916,10.51906 -1.98958,19.81022 -8.12735,20.75242c-6.13777,0.9422 -12.4503,-6.82139 -14.09942,-17.34045c-1.64915,-10.51907 1.98961,-19.81024 8.12735,-20.75243z" data-paper-data="{&quot;index&quot;:null}" fill="#830000" stroke-width="0" stroke-linecap="butt"/><path d="M268.39541,140.5425l-22.62924,1.39393c0,0 -7.55219,-23.8241 8.46168,-24.75449c12.92476,-0.40842 14.16756,23.36056 14.16756,23.36056z" data-paper-data="{&quot;index&quot;:null}" fill="#000000" stroke-width="0" stroke-linecap="round"/><path d="M211.06211,139.27658c0,0 0.27744,-24.85592 17.24479,-20.97362c14.0235,2.45236 6.03078,22.61415 6.03078,22.61415l-22.52557,1.35946z" data-paper-data="{&quot;index&quot;:null}" fill="#000000" stroke-width="0" stroke-linecap="round"/><path d="M249.111,129.24845c1.40005,0 2.53499,3.8692 2.53499,8.64212c0,4.77292 -1.13493,8.64213 -2.53499,8.64213c-1.40006,0 -2.53508,-3.86921 -2.53508,-8.64213c0,-4.77291 1.13502,-8.64212 2.53508,-8.64212z" data-paper-data="{&quot;index&quot;:null}" fill="#000000" stroke-width="0" stroke-linecap="butt"/><path d="M217.06809,136.75998c0,4.77292 -1.13502,8.64213 -2.53508,8.64213c-1.40005,0 -2.53499,-3.86921 -2.53499,-8.64213c0,-4.77291 1.13493,-8.64212 2.53499,-8.64212c1.40006,0 2.53508,3.8692 2.53508,8.64212z" data-paper-data="{&quot;index&quot;:null}" fill="#000000" stroke-width="0" stroke-linecap="butt"/><path d="M226.21833,170.30535c0,0 -0.27541,-2.29809 6.4445,-0.27685c5.0861,0.69278 7.9749,2.4191 7.9749,2.4191" data-paper-data="{&quot;index&quot;:null}" fill="none" stroke-width="0" stroke-linecap="round"/><path d="M217.2421,75.87737c0,0 -2.44178,-5.70825 -5.56968,-16.02058c-4.53931,-14.96561 -11.48258,-16.79417 -11.48258,-16.79417c0,0 19.40439,-3.60256 33.08517,3.07567c7.99183,3.29358 21.39846,20.09242 21.39846,20.09242z" data-paper-data="{&quot;index&quot;:null}" fill="#000000" stroke-width="0" stroke-linecap="round"/><path d="M266.54166,59.6791c0,0 21.35789,-1.91085 29.33871,0.72827c14.39722,3.93301 25.57485,16.86212 25.57485,16.86212c0,0 -6.20353,-2.87356 -19.99375,2.98939c-9.50241,4.03997 -15.26478,5.87707 -15.26478,5.87707z" data-paper-data="{&quot;index&quot;:null}" fill="#000000" stroke-width="0" stroke-linecap="round"/><path d="M233.54166,49.6791c0,0 13.35789,-1.91085 21.33871,0.72827c19.39722,-0.06699 39.57485,-9.13788 39.57485,-9.13788c0,0 -12.20353,23.12644 -25.99375,28.98939c-9.50241,4.03997 -15.26478,5.87707 -15.26478,5.87707z" data-paper-data="{&quot;index&quot;:null}" fill="#000000" stroke-width="0" stroke-linecap="round"/><path d="M245.65985,90.89778c0,0 -0.06799,13.49371 -3.84854,21.00142c-2.77726,19.19749 3.23771,40.48687 3.23771,40.48687c0,0 -21.08763,-15.4619 -24.86567,-29.96262c-2.60333,-9.992 -3.57584,-15.96142 -3.57584,-15.96142z" data-paper-data="{&quot;index&quot;:null}" fill="#000000" stroke-width="0" stroke-linecap="round"/><path d="M256.65985,88.89778c0,0 -0.06799,13.49371 -3.84854,21.00142c-2.77726,19.19749 3.23771,40.48687 3.23771,40.48687c0,0 -21.08763,-15.4619 -24.86567,-29.96262c-2.60333,-9.992 -3.57584,-15.96142 -3.57584,-15.96142z" data-paper-data="{&quot;index&quot;:null}" fill="#000000" stroke-width="0" stroke-linecap="round"/><path d="M209.57267,134.51001c0,0 -9.11116,2.7516 -27.85809,-3.501c-9.10745,-3.03758 -14.90804,4.64846 -14.90804,4.64846c0,0 -4.18834,-22.11963 1.94948,-33.18947c6.64142,-11.97809 25.10376,-21.72279 25.10376,-21.72279z" data-paper-data="{&quot;index&quot;:null}" fill="#000000" stroke-width="0.5" stroke-linecap="round"/><path d="M217.91204,62.85963c0,0 1.64393,9.50229 -3.0383,28.70175c-1.09696,4.49806 -6.79924,9.80664 -10.58768,14.286c-4.06738,4.80915 -4.89163,13.21578 -4.89163,13.21578c0,0 0.09721,-16.16714 -11.44191,-21.36931c-12.48589,-5.62901 -3.70935,-14.14558 -3.70935,-14.14558z" data-paper-data="{&quot;index&quot;:null}" fill="#000000" stroke-width="0.5" stroke-linecap="round"/><path d="M298.15879,129.65489c0,0 -2.86383,7.30124 -8.75882,19.5888c-8.55501,17.83214 -5.25965,34.50414 -5.25965,34.50414c0,0 -14.32948,-20.1232 -17.06252,-36.27778c-2.04746,-8.84256 2.88427,-34.70446 2.88427,-34.70446z" data-paper-data="{&quot;index&quot;:null}" fill="#000000" stroke-width="0.5" stroke-linecap="round"/><path d="M303.4088,129.90489c0,0 -2.86384,7.30123 -8.75882,19.5888c-8.55502,17.83214 -9.00965,24.50414 -9.00965,24.50414c0,0 -6.32948,-8.12321 -9.06251,-24.27778c-2.04746,-8.84256 -1.36573,-36.70446 -1.36573,-36.70446z" data-paper-data="{&quot;index&quot;:null}" fill="#000000" stroke-width="0.5" stroke-linecap="round"/><path d="M216.41205,102.85963c0,0 1.64393,9.50229 -3.03831,28.70175c-1.09696,4.49805 -6.79924,9.80664 -10.58767,14.286c-4.06737,4.80915 -4.89164,13.21578 -4.89164,13.21578c0,0 0.09721,-16.16715 -11.4419,-21.36932c-12.48589,-5.62901 -3.70935,-14.14558 -3.70935,-14.14558z" data-paper-data="{&quot;index&quot;:null}" fill="#000000" stroke-width="0.5" stroke-linecap="round"/><path d="M222.1588,109.65489c0,0 -2.86384,7.30123 -8.75882,19.5888c-8.55502,17.83214 -5.25965,34.50414 -5.25965,34.50414c0,0 -14.32948,-20.12321 -17.06251,-36.27778c-2.04746,-8.84256 2.88427,-34.70446 2.88427,-34.70446z" data-paper-data="{&quot;index&quot;:null}" fill="#000000" stroke-width="0.5" stroke-linecap="round"/><path d="M247.41606,76.01735c0,0 -3.76169,-6.25794 -9.46944,-17.56753c-4.11799,-8.15958 -9.59629,-13.17109 -14.06459,-16.14797c-4.51962,-3.01107 -8.00591,-3.9405 -8.00591,-3.9405c0,0 3.00412,-0.53244 7.00121,-1.6841c1.77308,-0.51087 3.74155,-1.94681 5.72987,-2.14083c7.82676,-0.76372 16.65562,1.29504 24.08819,5.28342c7.75131,3.58906 23.59536,25.48508 23.59536,25.48508z" data-paper-data="{&quot;index&quot;:null}" fill="#000000" stroke-width="0.5" stroke-linecap="round"/></g><path d="M253.125,170.375l-10.75,2.5" fill="none" stroke-width="1" stroke-linecap="round"/></g></g></svg>