<svg version="1.1" xmlns="http://www.w3.org/2000/svg" xmlns:xlink="http://www.w3.org/1999/xlink" width="243.78095" height="223.38962" viewBox="0,0,243.78095,223.38962"><defs><linearGradient x1="168.8739" y1="120.07403" x2="359.99039" y2="120.07403" gradientUnits="userSpaceOnUse" id="color-1"><stop offset="0" stop-color="#551063"/><stop offset="1" stop-color="#3b009b"/></linearGradient></defs><g transform="translate(-164.24441,15.15767)"><g data-paper-data="{&quot;isPaintingLayer&quot;:true}" fill-rule="nonzero" stroke-linejoin="miter" stroke-miterlimit="10" stroke-dasharray="" stroke-dashoffset="0" style="mix-blend-mode: normal"><path d="M179.42254,161.75926l-10.54864,-120.80001l191.11649,-3.72305l-16.13321,165.67566z" fill="url(#color-1)" stroke="#000000" stroke-width="8.5" stroke-linecap="butt"/><g stroke-width="0"><path d="M252.89636,161.46392c0,0 -4.03854,7.2914 -8.41566,13.32407c-16.04658,-3.93955 -32.10127,-7.84736 -48.16589,-11.7165c-0.84091,-3.5129 0.13093,-5.97711 1.29301,-7.55274c-1.38193,1.06351 -3.36316,2.34254 -5.97362,3.44662c-1.12554,0.47604 -2.01251,1.31634 -2.71113,2.32876c-1.96308,-0.47125 -3.9263,-0.94189 -5.88968,-1.41194c-0.29089,-2.21665 -0.31754,-4.64138 0.16508,-7.10848c0.50345,-4.52302 3.24061,-13.30046 3.24061,-13.30046c0,0 -1.75494,4.51632 -3.54899,7.84684c-0.54672,1.01495 -1.09707,1.91979 -1.60251,2.55311c-2.49235,2.99922 -4.09059,8.14836 -4.09059,8.14836c0,0 0.62629,-10.00947 -3.63989,-23.17847c-3.61804,-11.1683 9.12681,-15.33474 9.12681,-15.33474c0,0 -8.55534,-3.34786 -11.8827,-12.4459c-3.54074,-4.93927 -3.59971,-20.35782 -3.59971,-20.35782c0,0 8.45999,6.64347 15.81094,2.63689c1.25835,-0.68586 2.3573,-1.2742 3.31633,-1.77783c-0.68789,-1.37942 -1.11195,-4.01022 -1.00377,-8.59858c-2.21081,-9.10502 9.61303,-26.43677 9.61303,-26.43677c0,0 5.80282,14.02477 16.51479,16.1856c3.75194,2.25428 3.82704,5.69964 3.82704,5.69964c0,0 16.55997,-24.88462 55.16169,-23.13769c52.62144,2.38136 63.71429,23.13267 63.71429,23.13267c0,0 4.46977,-2.69161 18.58319,0.11496c14.03422,2.79081 25.9355,-4.78956 25.9355,-4.78956c0,0 -0.93418,21.79222 -12.01377,33.53163c-7.111,10.69834 -15.14634,12.28281 -18.2056,12.47669c2.82229,0.21495 9.55573,2.02751 12.14421,14.10683c4.92183,22.96815 -15.86059,37.79889 -15.86059,37.79889c0,0 1.96893,-8.48057 -1.17811,-11.96076c-3.46416,-2.06955 -4.48126,-5.3822 -4.49786,-5.43693c0.03012,0.09974 3.32415,11.0384 0.5214,15.54454c-5.81082,12.2077 -20.57961,19.70271 -20.57961,19.70271c0,0 3.30355,-5.85886 0.0937,-11.1807c-2.37935,-3.94489 -7.48304,-6.49483 -7.48304,-6.49483c0,0 -1.32308,4.89135 -5.17668,7.80973c-3.32803,4.60456 -3.15658,9.94732 -2.25921,13.95424c-1.64828,-0.4121 -3.29661,-0.82395 -4.94502,-1.23555c-2.17226,-2.10154 -4.30442,-4.00335 -5.51148,-4.64972c-3.35553,-1.79685 -13.37805,-18.1196 -13.37805,-18.1196z" fill="#27002f" stroke="#000000" stroke-linecap="butt"/><path d="" fill="#27002f" stroke="#000000" stroke-linecap="butt"/><path d="" fill="#27002f" stroke="#000000" stroke-linecap="butt"/><path d="M308.73462,160.7942c-0.08282,7.6291 -2.6762,13.78627 -5.79246,13.75243c-3.11627,-0.03383 -5.57538,-6.24586 -5.49255,-13.87495c0.08282,-7.6291 2.6762,-13.78627 5.79248,-13.75243c3.11627,0.03383 5.57538,6.24586 5.49255,13.87496z" fill="none" stroke="#0f0012" stroke-linecap="butt"/><path d="M240.41987,157.98819c-0.06855,6.31373 -2.51001,11.40613 -5.45316,11.37417c-2.94316,-0.03195 -5.27348,-5.17616 -5.20493,-11.48989c0.06855,-6.31373 2.51002,-11.40612 5.45316,-11.37417c2.94316,0.03195 5.27347,5.17615 5.20492,11.48988z" fill="none" stroke="#0f0012" stroke-linecap="butt"/><path d="M300.47404,167.25488c6.18626,9.19455 -8.16488,14.22203 -24.92893,15.19978c-13.4028,-3.32428 -26.81042,-6.62953 -40.22394,-9.91169c-0.4941,-1.77287 -0.29804,-3.83452 0.73668,-6.22561c8.81664,-20.37409 12.80854,-2.00469 32.35021,-1.79254c19.54168,0.21215 17.08321,-19.53855 32.06599,2.73007z" fill="#0f0012" stroke="#000000" stroke-linecap="butt"/><path d="M267.73791,174.94564c17.05756,0.67673 30.50685,-2.33098 30.50685,-2.33098c0,0 -8.84685,7.88227 -19.06217,10.7427c-10.85875,-2.69622 -21.72061,-5.38019 -32.58615,-8.04975c-4.6454,-4.06403 -7.40735,-8.01936 -7.40735,-8.01936c0,0 12.11077,7.00527 28.54884,7.6574z" fill="#0f0012" stroke="#000000" stroke-linecap="round"/><path d="M281.30208,168.68388c0,0 -0.50396,1.95947 -4.94612,1.18345c-1.27443,-0.22264 -2.74102,-0.81887 -4.6141,-0.77267c-1.8731,0.04618 -0.69547,0.31874 -4.75381,0.81029c-4.85514,0.58808 -4.9792,-1.36205 -4.9792,-1.36205" data-paper-data="{&quot;index&quot;:null}" fill="none" stroke="#000000" stroke-linecap="round"/><path d="M273.3594,61.47096c32.95689,0.3578 59.3997,25.88932 59.06166,57.02627c-0.33803,31.13696 -27.32889,56.08838 -60.2858,55.7306c-32.95689,-0.3578 -59.39968,-25.88933 -59.06164,-57.02628c0.33805,-31.13695 27.32889,-56.08838 60.28579,-55.73058z" data-paper-data="{&quot;index&quot;:null}" fill="#27002f" stroke="#000000" stroke-linecap="butt"/><path d="M273.82299,67.49451c30.42388,0.33031 54.83433,23.89952 54.52228,52.64334c-0.31205,28.74382 -25.22845,51.77754 -55.65233,51.44724c-30.42388,-0.33031 -54.83433,-23.89954 -54.52227,-52.64334c0.31205,-28.74382 25.22845,-51.77753 55.65233,-51.44722z" data-paper-data="{&quot;index&quot;:null}" fill="#27002f" stroke="#000000" stroke-linecap="butt"/><path d="M333.69847,134.17375c0,0 -3.39229,6.94372 -6.18999,10.11186c-3.68138,4.16881 -3.20416,10.08314 -3.20416,10.08314c0,0 -2.45914,-5.00809 -3.7063,-9.37881c-1.15838,-4.05966 1.29905,-9.89076 0.48757,-9.17042c-4.17775,3.70852 -8.53895,12.35568 -8.53895,12.35568c0,0 -6.05725,-17.23431 -9.26217,-19.04136c-7.33892,-4.13798 -14.83799,-14.03058 -14.83799,-14.03058c0,0 -6.62441,11.86122 -12.93025,24.08493c-2.17798,4.22195 -2.53509,10.5105 -2.53509,10.5105c0,0 -3.04761,-5.35777 -10.2079,-8.7158c-6.6238,-3.10645 -17.31228,-4.26698 -19.36445,-3.48469c-1.65537,0.63101 -7.86805,1.01547 -9.36082,3.03016c-0.6577,0.88765 0.10937,7.28728 -2.34296,9.39947c-3.41901,6.35235 -0.01223,12.6286 -0.01223,12.6286c0,0 -8.47418,-6.55787 -10.69205,-9.58922c-4.48258,-6.12672 -3.79561,-9.33935 -3.79561,-9.33935c0,0 -13.92765,-22.4443 -9.22819,-37.97324c6.44136,-21.28475 35.33049,-55.81307 68.2584,-49.75636c85.53506,15.73316 57.46312,78.27552 57.46312,78.27552z" fill="#27002f" stroke="#000000" stroke-linecap="round"/><path d="M321.21245,93.06861c0.03362,-3.09618 3.08997,-3.063 3.08997,-3.063l1.06896,0.07173c1.75284,0.37593 3.54545,0.75654 5.34088,1.05196c-0.00836,-0.10716 -0.01846,-0.21392 -0.03051,-0.32024c-0.1446,-1.27578 -1.48685,-3.95984 -2.55282,-4.73541c-0.68551,-0.49873 -1.69426,-0.42852 -2.34072,-0.97818c-2.39733,-2.03843 -2.01083,-5.01029 -3.9884,-6.98099c-1.14429,-1.14031 -2.80394,-1.58883 -4.14892,-2.47636c-2.68811,-1.77382 -4.99583,-3.45098 -7.3614,-5.59753c-0.35665,-0.32363 -0.88434,-0.57557 -1.35978,-0.84896c-0.01205,0.01559 -0.02398,0.03119 -0.0358,0.04689l-1.54478,-1.08536l-0.02587,0.00409l-0.38854,0.95355l-2.2749,-0.95069c-1.15601,-0.45166 -1.97029,-1.5941 -1.95586,-2.92308c0.00019,-0.01704 0.00051,-0.03405 0.00095,-0.05102c-0.46388,0.04247 -0.96662,0.10273 -1.51943,0.21261c0,0 -1.19212,0.22809 -2.21593,-0.3639c-0.09502,0.08574 -0.1983,0.1704 -0.31042,0.25368c-2.46526,1.83115 -4.27219,-0.66569 -4.27219,-0.66569c-5.21679,-7.45615 -14.51737,-4.90874 -22.24787,-5.68745c-4.71068,-0.47452 -11.02484,-1.80159 -15.49421,0.10177c-8.4785,3.32393 -16.71026,7.46533 -23.73282,13.49828c-2.38569,2.04948 -3.82377,4.90885 -5.88569,7.24792c-3.42848,3.88929 -6.12667,8.47271 -8.84814,12.94187c-4.91696,6.51453 -9.64717,14.50637 -9.15103,23.1164c0.06581,1.14207 0.94443,2.07932 1.47039,3.09152c0.89538,1.72323 1.47883,3.783 1.69566,5.73099c1.59852,-3.37929 3.68626,-6.64832 5.26112,-9.49939c1.33898,-2.42406 2.34118,-5.13022 4.22078,-7.15282c9.3868,-10.1009 25.06247,-16.03194 38.53936,-15.78772c1.67936,-0.69165 3.47391,-1.09324 5.2635,-1.38576l0.95049,-0.34931c0,0 2.91015,-0.94762 3.84477,2.00016c0.93463,2.94778 -1.97552,3.8954 -1.97552,3.8954l-1.88112,0.57273c-1.74266,0.26218 -3.46094,0.73739 -5.11214,1.35992c-12.34483,-0.05183 -26.39377,4.65892 -35.14438,13.90133c-1.60156,1.69158 -2.31713,4.05778 -3.44738,6.10287c-1.51754,2.74579 -2.83796,5.38671 -4.19558,8.28246c-0.81478,1.73789 -2.1329,3.25236 -2.67498,5.09621c-0.37035,1.2598 -0.24766,2.64988 -0.01618,3.94311c0.15058,0.84134 1.06471,1.55037 0.91456,2.39187c-0.03506,0.19649 -0.07647,0.39115 -0.12341,0.58425l0.17219,0.00186l-0.03102,2.85801c-0.01857,1.70998 -1.40199,3.08132 -3.08998,3.06299c-1.31193,-0.01424 -2.42171,-0.86374 -2.84235,-2.04435l-0.82202,-2.14983c-1.43954,-2.46134 -3.32921,-4.54146 -3.91343,-7.45046c-0.47466,-2.36339 0.22647,-5.02658 0.04034,-7.42587c-0.27264,-3.51444 -2.82542,-5.51407 -3.19322,-9.08609c-1.00892,-9.79905 4.58944,-19.78326 10.20553,-27.17089c2.83881,-4.69294 5.70364,-9.46126 9.30943,-13.5389c2.28284,-2.58157 3.87447,-5.56411 6.50524,-7.86205c7.45617,-6.51286 16.42223,-10.98914 25.4793,-14.55088c5.67869,-2.11309 12.46025,-1.1079 18.37124,-0.48335c4.03255,0.42607 8.19148,-0.31977 12.22546,0.13273c5.12079,0.5744 10.18172,3.15348 13.53788,7.10817c0.69273,-0.55615 1.48099,-0.70698 1.48099,-0.70698c3.82301,-0.70937 12.11606,-2.02433 12.52165,4.40941c1.40382,1.31007 2.78076,2.91563 3.51074,3.50619c2.9785,2.40967 7.44662,3.76873 10.0847,6.5537c1.21272,1.28026 1.93933,5.47458 3.39016,6.43807c0.70585,0.46876 1.68256,0.44297 2.34071,0.97819c0.28022,0.22788 3.38929,4.38039 3.61695,4.87105c0.86573,1.86608 1.07754,3.71814 1.1399,5.54183c1.71007,0.0442 3.28893,0.33958 4.71176,2.32144c1.06956,1.48978 0.22431,7.59087 -0.20905,8.93722c-0.1865,0.57941 -0.45797,1.12607 -0.77876,1.64842c0.24232,0.4262 0.46652,0.86102 0.64765,1.31615c1.09932,2.76219 0.67128,6.00615 0.63994,8.89312c-0.03791,3.4925 -1.60722,6.97047 -1.68113,10.46235c-0.04946,2.33678 -10.85624,17.84035 -13.72143,19.08864c-5.02372,2.18872 6.18718,-13.14661 5.04059,-16.39497c-0.9396,-2.66201 -0.53452,-5.75364 -0.5046,-8.51007c0.05494,-5.06161 0.68219,-9.66049 1.83534,-14.58293c0.16255,-0.22611 0.33684,-0.44675 0.51643,-0.665c-1.37275,-1.88377 -2.00864,-2.45594 -2.54563,-5.1298c-0.10773,-0.53644 -0.15597,-1.08469 -0.16704,-1.64007c-2.12856,-0.32658 -4.25841,-0.77678 -6.33485,-1.21997l0.12853,0.06152c0,0 -3.05635,-0.03317 -3.02274,-3.12935z" fill="#27002f" stroke="none" stroke-linecap="butt"/><path d="M335.36712,74.0071c0,0 42.81537,2.98018 34.37026,18.20033c-8.65669,15.60144 -49.17476,18.38482 -95.38258,13.73351c-55.73279,-6.12823 -80.82284,-29.08022 -88.59648,-35.44862c-7.75041,-6.34937 31.03467,-5.79848 31.03467,-5.79848z" fill="#0f0012" stroke="#000000" stroke-linecap="round"/><path d="M206.67789,66.78168c0,0 1.04691,-8.4785 2.71019,-11.96824c3.30957,-6.94376 9.34138,-9.49287 14.519,-9.339c8.91719,0.26502 48.9178,16.00927 48.9178,16.00927c0,0 40.95526,-7.81775 65.01785,0.3334c10.90148,3.69286 3.58282,23.31952 3.58282,23.31952c0,0 -44.72501,3.71557 -72.79407,-0.10791c-28.06908,-3.8235 -61.95358,-18.24702 -61.95358,-18.24702z" fill="#0f0012" stroke="#000000" stroke-linecap="round"/><path d="M334.69148,61.89471c0,0 -44.73629,4.15067 -62.31221,1.55442c-17.72456,-2.61822 -51.703,-15.41586 -51.703,-15.41586l14.45391,-26.03478l5.2452,-17.37563l80.00233,-19.78053l48.14726,28.69882l19.23765,-9.13663l4.04042,5.94897l16.22232,-4.70253l-17.56201,13.20555l-3.8764,-3.03225l-12.33909,18.74525l-45.73827,-12.13979l-12.12813,8.75389l19.25042,30.72134z" fill="#0f0012" stroke="#000000" stroke-linecap="round"/><path d="M251.5079,82.30665l9.43904,-22.66174l36.50775,3.76146l-0.14367,23.94191z" fill="none" stroke="#27002f" stroke-linecap="butt"/><path d="M252.11358,111.43057c8.31743,-1.53774 17.86369,3.51314 19.17746,16.49701c1.31378,12.98386 -2.96247,27.47107 -13.48632,31.16704c-10.78072,3.78618 -19.81227,-3.34443 -21.12605,-16.3283c-1.31378,-12.98386 3.54968,-28.07021 15.43491,-31.33578z" data-paper-data="{&quot;index&quot;:null}" fill="#551063" stroke="#000000" stroke-linecap="butt"/><path d="M237.40626,137.5023c0,0 -2.2557,-0.80599 -3.59075,-0.66172c-2.54947,0.27553 -4.99977,2.09184 -4.99977,2.09184c0,0 0.00294,-1.20035 0.89334,-3.96459c0.26711,-0.82929 2.15465,-3.18721 2.15465,-3.18721c0,0 -3.42691,-0.70981 -4.87054,-1.84213c-1.74072,-1.36532 -4.85031,-5.78233 -4.85031,-5.78233c0,0 5.92271,3.4003 8.93611,3.59909c5.12674,0.33821 7.20522,1.54595 7.20522,1.54595" data-paper-data="{&quot;index&quot;:null}" fill="#000000" stroke="#000000" stroke-linecap="round"/><path d="M295.32466,111.58209c11.81152,3.52282 16.34633,18.71122 14.75096,31.66349c-1.59535,12.95228 -10.7796,19.88512 -21.47558,15.86579c-10.44114,-3.92359 -14.40184,-18.50022 -12.80649,-31.45249c1.59535,-12.95228 11.24903,-17.79474 19.5311,-16.07677z" data-paper-data="{&quot;index&quot;:null}" fill="#551063" stroke="#000000" stroke-linecap="butt"/><path d="M308.37509,127.66024c0,0 2.10422,-1.16236 7.23708,-1.38918c3.01698,-0.13331 9.01213,-3.40424 9.01213,-3.40424c0,0 -3.20477,4.34848 -4.97471,5.67569c-1.46789,1.10068 -6.08503,3.3083 -6.08503,3.3083c0,0 1.60018,2.27995 1.9692,3.33156c0.3404,0.97006 0.16602,2.75317 0.16602,2.75317c0,0 -1.62507,-1.12716 -2.66582,-1.45031c-1.15555,-0.35881 -3.95919,-0.60679 -3.95919,-0.60679" data-paper-data="{&quot;index&quot;:null}" fill="#000000" stroke="#000000" stroke-linecap="round"/><path d="M282.32698,125.31413c1.99297,0.29832 2.95159,5.1549 2.14117,10.84745c-0.81045,5.69254 -3.08305,10.06546 -5.07601,9.76714c-1.99295,-0.29832 -2.95162,-5.15486 -2.14117,-10.84744c0.81043,-5.69254 3.08308,-10.06546 5.07603,-9.76714z" data-paper-data="{&quot;index&quot;:null}" fill="#000000" stroke="#000000" stroke-linecap="butt"/><path d="M275.08113,139.85946c0,0 -2.11937,-29.64779 15.63801,-28.96305c18.77946,-0.30939 19.81639,24.50851 19.81639,24.50851z" data-paper-data="{&quot;index&quot;:null}" fill="#000000" stroke="#000000" stroke-linecap="round"/><path d="M297.77189,144.08426c12.20081,1.54996 19.9474,2.58537 14.37482,12.1159c-5.2384,7.62859 -10.85825,6.99639 -21.8805,5.28317c-10.75966,-1.6724 -15.75828,-6.03009 -13.68565,-10.83471c2.07264,-4.80462 12.61251,-7.37033 21.19133,-6.56437z" data-paper-data="{&quot;index&quot;:null}" fill="none" stroke="#000000" stroke-linecap="butt"/><path d="M275.33423,156.45024c0,0 -0.62726,-0.37578 -2.46533,-0.52323c-1.90906,-0.15314 -2.33064,0.26682 -2.33064,0.26682l0.10793,-1.23113c0,0 0.42156,-0.41996 2.33064,-0.26682c1.83807,0.14745 2.46534,0.52323 2.46534,0.52323z" fill="#000000" stroke="#000000" stroke-linecap="round"/><path d="M261.28702,122.8246c2.19984,0.27738 3.41635,5.29397 2.71716,11.20488c-0.69921,5.91091 -3.04934,10.47782 -5.24915,10.20043c-2.19981,-0.27737 -3.41636,-5.29397 -2.71716,-11.20489c0.69918,-5.91091 3.04935,-10.47778 5.24917,-10.20042z" data-paper-data="{&quot;index&quot;:null}" fill="#000000" stroke="#000000" stroke-linecap="butt"/><path d="M257.04131,110.8617c20.80554,1.9682 13.77446,29.24563 13.77446,29.24563l-34.44255,-5.53623c0,0 -2.11344,-24.29672 20.6681,-23.70941z" data-paper-data="{&quot;index&quot;:null}" fill="#000000" stroke="#000000" stroke-linecap="round"/><path d="M270.55287,153.31814c0.32767,4.92519 -6.34086,7.12052 -17.86277,7.67364c-11.80308,0.56663 -18.01412,-2.77025 -19.27877,-8.02322c-0.87878,-11.91824 5.15483,-9.52528 18.09215,-9.81249c8.99193,0.07667 19.0421,4.60516 19.36978,9.53036z" fill="none" stroke="#000000" stroke-linecap="butt"/></g><path d="M265.33333,171.30827c0,0 1.09761,-1.55795 5.62959,-1.65355c3.66975,-0.07741 5.03707,1.87577 5.03707,1.87577" fill="none" stroke="#000000" stroke-width="1.5" stroke-linecap="round"/></g></g></svg>