<svg version="1.1" xmlns="http://www.w3.org/2000/svg" xmlns:xlink="http://www.w3.org/1999/xlink" width="200.43892" height="194.17418" viewBox="0,0,200.43892,194.17418"><defs><linearGradient x1="160.36488" y1="283.7452" x2="351.48138" y2="283.7452" gradientUnits="userSpaceOnUse" id="color-1"><stop offset="0" stop-color="#000000"/><stop offset="1" stop-color="#4c4557"/></linearGradient></defs><g transform="translate(-155.73539,-192.93705)"><g data-paper-data="{&quot;isPaintingLayer&quot;:true}" fill-rule="nonzero" stroke-linejoin="miter" stroke-miterlimit="10" stroke-dasharray="" stroke-dashoffset="0" style="mix-blend-mode: normal"><path d="M170.91353,325.43043l-10.54864,-120.80001l191.11649,-3.72305l-16.13321,165.67566z" fill="url(#color-1)" stroke="#000000" stroke-width="8.5" stroke-linecap="butt"/><path d="M190.59933,320.4697c0,0 -2.72173,1.40592 -4.92253,2.93749c-1.85409,-0.57306 -3.70952,-1.14121 -5.5666,-1.7033c0.08781,-1.76224 0.00985,-3.59221 -0.34159,-5.37113c-2.12819,-10.7723 0.43305,-17.07416 3.64772,-21.16613c-5.72831,4.25007 -7.5957,11.58192 -7.5957,11.58192c0,0 -1.00496,-7.47988 0.182,-12.79896c1.00999,-4.52605 1.48903,-11.38917 3.96447,-19.37279c1.77701,-5.73113 4.87489,-10.0428 7.90425,-13.13215c-0.89037,-0.00721 -1.86526,-0.13418 -2.93113,-0.41346c-4.7375,-1.24132 -9.72024,12.68207 -9.72024,12.68207c0,0 1.09526,-28.04666 15.48177,-37.98804c8.35474,-5.7733 23.8819,-18.47163 35.29257,-19.72481c8.02151,-0.88095 9.8087,-3.06486 18.68485,-2.70415c8.36381,0.3399 27.528,5.9821 29.71242,6.63229c4.96982,-0.47137 11.87938,-0.79531 18.03878,0.09405c22.69884,1.32397 56.34652,19.44823 54.59197,40.79309c-2.04717,24.90441 -3.12231,36.63457 -3.12231,36.63457c0,0 -2.63863,-14.80001 -5.94788,-19.88667c-2.47557,-3.8052 -3.04271,-7.25241 -2.5836,-5.19403c0.53134,2.38218 7.2838,12.39014 4.68158,19.78341c-1.49497,3.73738 -0.38137,10.31879 -1.39559,15.34255c-1.35848,6.72894 -3.44771,12.64273 -4.56554,15.55419c2.02144,10.37358 2.85887,22.7401 -2.37744,29.37429c-2.16303,2.74046 -4.05592,5.33411 -5.71241,7.77527c-2.43229,-0.43127 -4.86366,-0.86681 -7.29383,-1.30804c1.34603,-3.46757 2.54681,-5.98874 2.55116,-5.99787c-0.0081,0.00903 -2.2686,2.53048 -4.17031,5.703c-15.27913,-2.79105 -30.50761,-5.81913 -45.61058,-9.43388c-28.06467,-6.717 -55.36324,-16.26717 -82.92264,-24.86224c1.06276,-2.14482 2.0464,-3.83055 2.0464,-3.83055zM333.20534,313.82398c-0.74498,-0.38335 -1.36852,-1.14771 -1.8827,-2.06446c0.86795,2.9699 1.87017,6.77272 2.69177,10.91094c0.75539,-2.89033 1.56434,-7.62519 -0.80907,-8.84648z" fill="#83799b" stroke="#000000" stroke-width="0" stroke-linecap="butt"/><path d="M314.39277,387.08676c-0.00002,0.01624 0,0.02447 0,0.02447c0,0 -0.0001,-0.00818 0,-0.02447z" fill="#793471" stroke="#000000" stroke-width="0" stroke-linecap="butt"/><path d="M321.20965,352.37656c-1.68459,-1.08946 0.87095,-6.32315 0.87095,-6.32315c0,0 -4.57822,5.7072 -4.96347,10.79111c-0.03122,0.412 -0.2257,0.96611 -0.53285,1.6601c-5.19775,-0.95133 -10.38955,-1.93053 -15.57244,-2.95139c-0.00621,-0.32955 -0.00836,-0.51017 -0.00836,-0.51017c0,0 -0.00482,0.17822 -0.01549,0.50548c-9.87662,-1.94561 -19.72089,-4.04253 -29.51241,-6.38603c-27.33287,-6.54185 -53.93907,-15.77105 -80.76727,-24.188c0.41502,-1.38945 0.76545,-2.46022 0.9958,-2.97694c1.29953,-2.91518 0.49138,-4.406 0.49138,-4.406c0,0 0.03513,-2.39923 -1.88776,-0.55518c-1.11369,1.06805 -4.22613,3.57502 -6.88251,5.67759c-0.8995,-0.27583 -1.79934,-0.55039 -2.69957,-0.82356c0.54414,-2.2092 0.87176,-5.1564 0.22255,-8.50163c-4.04779,-20.85751 10.36384,-22.85441 10.70552,-26.61474c0.55359,-6.0924 0.17486,-5.79199 0.17486,-5.79199c0,0 -2.52652,5.2669 -4.56732,6.37987c-6.28747,3.42895 -10.73145,11.99569 -10.73145,11.99569c0,0 0.48317,-12.99207 5.52343,-29.44564c1.67834,-5.47881 5.4104,-9.66983 9.19958,-12.69726c-0.69507,-0.04379 -1.42115,-0.15898 -2.17745,-0.35947c-4.42323,-1.17258 -10.65131,5.03445 -10.65131,5.03445c0,0 -3.70983,-20.87527 23.22852,-28.67836c7.80598,-5.47444 17.3934,-18.08607 28.05002,-19.28095c7.49142,-0.83998 9.16185,-2.9099 17.45051,-2.57431c7.81022,0.31622 25.7026,5.64757 27.74212,6.26199c4.64136,-0.44992 11.09403,-0.76151 16.84534,0.07672c16.30018,0.95247 38.86969,11.32344 47.56861,25.25393c2.61286,4.18424 3.76546,8.67895 3.38361,13.34946c-0.37993,4.64709 2.16243,8.99478 2.0251,12.18115c-0.55984,12.98982 -2.22606,14.4551 -2.22606,14.4551c0,0 -5.19383,-5.94971 -8.28066,-10.76572c-2.30919,-3.60274 -2.83642,-6.86768 -2.40908,-4.91824c0.49454,2.25614 9.04809,17.72 6.61295,24.72498c-1.12893,14.69809 -3.26729,20.88391 -3.26729,20.88391c0,0 -2.14432,-4.64553 -5.39424,-6.34011c-1.99805,-1.04183 -3.05779,-5.06359 -3.45061,-6.92898c1.21336,6.51885 7.97923,44.28604 3.60294,53.2734c0,0 -2.68866,3.67255 -5.20195,7.10554c-1.69311,-0.30133 -3.38574,-0.60486 -5.07781,-0.91105c1.10328,-3.42965 2.12692,-6.33019 1.58358,-6.68158z" fill="#6a617d" stroke="#000000" stroke-width="0" stroke-linecap="butt"/><g stroke="#000000"><path d="M249.92604,340.2563l-0.89816,6.01994c-5.31417,-2.80033 -10.62287,-5.61105 -15.92892,-8.42678l3.05996,-8.44475z" data-paper-data="{&quot;index&quot;:null}" fill="#a8abff" stroke-width="0" stroke-linecap="butt"/><path d="M235.78676,325.73819l15.96038,13.07893l-0.71077,8.51685c-6.5293,-3.43641 -13.0498,-6.88952 -19.56675,-10.34936c2.53258,-6.53749 4.31715,-11.24644 4.31715,-11.24644z" data-paper-data="{&quot;index&quot;:null}" fill="#d6e8e8" stroke-width="0" stroke-linecap="butt"/><path d="M272.8984,333.61972l1.25817,21.89506c-5.11948,-2.53105 -8.33841,-0.42543 -17.38346,-5.16732l0.46855,-8.84377z" data-paper-data="{&quot;index&quot;:null}" fill="#a8abff" stroke-width="0" stroke-linecap="butt"/><path d="M255.91806,340.5011l18.25061,-9.62847c0,0 -1.56602,9.25407 1.1366,23.93288c-5.7614,-2.76351 -7.90566,1.11284 -18.57756,-4.48185c-0.61897,-0.32449 -1.23785,-0.64916 -1.85663,-0.974z" data-paper-data="{&quot;index&quot;:null}" fill="#d6e8e8" stroke-width="0" stroke-linecap="butt"/><path d="M275.41166,324.40864l-4.64868,28.34042c-3.43507,-1.78125 -9.16466,0.12799 -14.03528,-2.42542c-6.42212,-3.36678 -12.83426,-6.75248 -19.24143,-10.14763l1.09217,-19.57572z" fill="#9488af" stroke-width="0" stroke-linecap="butt"/><path d="M273.77261,322.22712c0,0 12.92997,17.46077 8.95036,28.75377c-1.78021,4.79057 -2.1537,1.57603 -4.78244,3.17921c-2.44241,-1.2212 -5.35497,-0.09087 -8.45988,-1.70725z" data-paper-data="{&quot;index&quot;:null}" fill="#9488af" stroke-width="0" stroke-linecap="round"/><path d="M239.38165,320.22524l-0.49303,21.21774c-3.65616,-1.93631 -7.31056,-3.87592 -10.96415,-5.8171c4.04992,-8.29937 11.45719,-15.40065 11.45719,-15.40065z" data-paper-data="{&quot;index&quot;:null}" fill="#9488af" stroke-width="0" stroke-linecap="round"/><path d="M226.5865,329.20426c2.83416,-1.19993 8.79397,-4.17131 8.79397,-4.17131l-4.27409,14.75884c-3.40995,-1.81049 -9.06897,-4.37279 -12.47779,-6.18543c1.77309,-0.62694 6.38545,-3.73637 7.9579,-4.4021z" fill="#9488af" stroke-width="0" stroke-linecap="round"/><path d="M276.91878,329.99377c0,0 6.25868,3.62524 8.79616,5.36692c2.51214,1.72431 7.36567,4.55516 7.36567,4.55516c0,0 -1.82369,1.29821 -2.85845,1.67504c-0.87265,0.31779 -2.94707,0.43915 -2.94707,0.43915c0,0 0.02191,4.88214 -0.25369,7.29591c-0.18075,1.58317 0.68013,7.5956 0.68013,7.5956c0,0 -4.23791,-4.26318 -4.89075,-6.26968c-0.62139,-1.90988 -2.92452,-8.01718 -2.92452,-8.01718" data-paper-data="{&quot;index&quot;:null}" fill="#9488af" stroke-width="0" stroke-linecap="round"/><path d="M256.78415,343.53877c3.31659,0.41358 9.61641,1.2622 16.96343,-0.86926c8.93255,-3.16485 9.35661,-5.75681 9.35661,-5.75681c0,0 5.02662,13.8908 -2.77107,18.91016c-1.12914,1.19423 -2.59906,-2.15984 -3.79236,-1.48771c-4.83136,-2.41875 -11.53542,0.32801 -19.81302,-4.01149c-1.35234,-0.70896 -19.93215,-5.66149 -25.1074,-10.86091c-3.64971,-3.66676 3.74195,-10.24469 3.74195,-10.24469c0,0 -0.98038,8.46216 7.7792,12.26828c8.96848,4.35101 11.07569,1.89266 12.35696,2.05243z" fill="#141414" stroke-width="0" stroke-linecap="butt"/><path d="M258.61564,341.3478c0,0 -2.09643,0.26141 -2.32729,1.91611c-0.54264,0.99559 0.05138,0.8823 -0.07488,0.01448c-0.24723,-1.40714 -1.70891,-2.32378 -1.70891,-2.32378" fill="none" stroke-width="1" stroke-linecap="round"/><path d="M227.74784,335.0079c1.21439,-1.19802 2.48034,-1.84507 2.48034,-1.84507" fill="none" stroke-width="0" stroke-linecap="round"/><path d="M280.35859,336.28675c0,0 2.75059,3.88595 3.50122,6.60407c0.47065,1.70425 -0.21057,5.03904 -0.21057,5.03904" data-paper-data="{&quot;index&quot;:null}" fill="none" stroke-width="0" stroke-linecap="round"/><path d="M241.23584,325.78488c0,0 -4.54094,7.85779 -4.24541,9.57503c0.10941,0.63573 -1.2668,3.11476 -0.69453,4.18521c-0.7638,-0.40491 -1.52755,-0.80994 -2.29122,-1.21509c-0.18668,-0.73885 0.89377,-3.66095 0.82483,-4.22884c-0.25311,-2.08511 3.5873,-8.60064 3.5873,-8.60064z" fill="#000000" stroke-width="0" stroke-linecap="round"/><path d="M269.86976,326.8302c0,0 2.60775,5.70614 1.98686,7.26756c-0.1691,0.42527 0.37008,2.86974 0.05482,3.40571c-0.82227,0.17581 -1.64459,0.35151 -2.46694,0.52711c0.7531,-0.72262 -0.15561,-2.87851 0.06534,-3.34882c0.59686,-1.2704 -2.45912,-8.13587 -2.45912,-8.13587z" data-paper-data="{&quot;index&quot;:null}" fill="#000000" stroke-width="0" stroke-linecap="round"/></g><path d="" fill="#5e2858" stroke="#000000" stroke-width="0" stroke-linecap="butt"/><path d="M318.86922,306.56779l0.67458,-15.29158l4.88361,0.21702l-0.67458,15.29157z" fill="#582e53" stroke="none" stroke-width="0" stroke-linecap="butt"/><path d="M324.91587,291.93861c-0.00255,-0.00104 -0.00508,-0.00211 -0.00757,-0.00321c0.04337,0.18097 0.08819,0.36146 0.13462,0.54146l-0.45402,1.19441c0,0 -0.49408,0.723 -1.21708,0.2289l0.00001,0.00001c-0.723,-0.49408 -0.2289,-1.21708 -0.2289,-1.21708l0.20416,0.23128c-0.2474,-0.95911 -0.46717,-1.91777 -0.6685,-2.87846c-0.12426,0.05712 -0.26378,0.08588 -0.40982,0.07842c-0.37125,-0.01897 -0.67664,-0.2665 -0.78688,-0.59935l-0.33427,-0.93671c-0.5368,-1.52788 -0.68112,-3.06281 -0.69107,-4.6017c-0.25035,-0.13354 -0.42648,-0.38453 -0.45869,-0.67577l-0.22298,-1.72173l0.21816,-0.02825c-0.38096,-1.36168 -0.61729,-2.7499 -0.79935,-4.15678c-0.16845,-0.648 -0.35005,-1.29448 -0.54451,-1.93682c-0.06625,0.01229 -0.13499,0.01709 -0.20525,0.0135c-0.33604,-0.01717 -0.61812,-0.2216 -0.75036,-0.50708l-0.7589,-1.55885l0.20779,-0.10116c-0.08315,-0.13266 -0.16377,-0.2657 -0.24212,-0.39927c-0.16304,0.26078 -0.45884,0.42773 -0.78777,0.41092c-0.34012,-0.01738 -0.62496,-0.22659 -0.75511,-0.51751l-0.68148,-1.44566l0.04485,-0.02114l-0.095,-0.11253c-0.16742,-1.40631 -0.17313,-2.66129 -0.1238,-4.00236l-0.24516,-1.66336c-0.01033,-0.06162 -0.01418,-0.1253 -0.01086,-0.19027c0.02468,-0.48301 0.43623,-0.85454 0.91923,-0.82986c0.32352,0.01653 0.59703,0.20663 0.73496,0.47551l0.81868,1.53018l-0.18272,0.09775c0.86261,1.21797 1.59911,2.54586 2.23036,3.93857c0.03143,-0.03057 0.06513,-0.05876 0.10082,-0.08433c0.05679,-0.27969 0.19819,-0.49946 0.48628,-0.56661c0.0499,-0.01164 1.82617,0.85865 1.99228,1.25167c0.01516,0.03586 0.0305,0.14551 0.04542,0.29913c0.01053,0.00601 0.02093,0.01212 0.03117,0.01833c0.09046,0.05484 0.2914,0.72392 0.45912,1.33231c0.19399,-0.06762 0.36427,-0.0978 0.51407,-0.09755l0.013,-0.28792c0.00005,-0.00122 0.00011,-0.00243 0.00018,-0.00365c0.01481,-0.2898 0.26174,-0.51272 0.55154,-0.49791c0.18503,0.00946 0.34279,0.11353 0.42883,0.26298l0.4265,0.71647l-0.25807,0.15362c0.15936,0.34323 0.28736,0.71823 0.38982,1.11657c0.12052,0.06977 0.25266,0.16476 0.39756,0.28849c0.29912,0.2554 0.369,1.44959 0.39863,2.39519c0.07505,0.24278 0.14442,0.48799 0.20857,0.73529l0.04189,-0.81232c0,-0.00001 0,-0.00003 0,-0.00004c0.00679,-0.13161 0.06145,-0.24941 0.14625,-0.3374c0.00074,-0.59011 0.00202,-1.18024 0.00386,-1.77038l0.00286,-0.91244c-0.00003,-0.00962 0.0002,-0.01931 0.00069,-0.02902c0.01481,-0.2898 0.26174,-0.51273 0.55154,-0.49792c0.22067,0.01128 0.40255,0.15714 0.47025,0.35404l0.35991,0.97437l-0.14184,0.05239c0.32424,0.69048 0.54922,1.40529 0.6972,2.13719c0.14501,0.00765 0.31086,0.04721 0.50057,0.12593c0.35136,0.14582 0.3635,2.14937 0.37889,2.55453c0.10644,2.80018 0.21287,5.60037 0.31931,8.40055c0.04256,1.11969 0.08286,2.12571 -0.08097,3.23707l-0.12877,0.86114c-0.03671,0.26739 -0.27277,0.4667 -0.5473,0.45267c-0.06133,-0.00313 -0.11967,-0.01667 -0.17339,-0.0388l-0.01046,0.20476c-0.01481,0.2898 -0.26174,0.51273 -0.55155,0.49792c-0.26245,-0.01341 -0.47004,-0.21718 -0.49589,-0.47078l-0.0988,-0.82166c-0.25846,0.31247 -0.66017,0.42368 -1.28072,0.17013zM324.70635,290.97748c-0.10774,-1.02058 -0.00586,-2.12562 -0.00869,-3.15247c-0.00063,-0.22726 -0.00155,-0.4533 -0.00295,-0.67828c-0.00086,-0.02414 -0.00171,-0.04828 -0.00252,-0.07243c-0.06956,-0.19778 -0.1391,-0.39554 -0.20867,-0.59332c-0.01625,-0.17644 -0.03242,-0.35287 -0.04852,-0.52932l-0.1229,-0.61208l0.06609,-0.01327c-0.00648,-0.07166 -0.01295,-0.14333 -0.01941,-0.21499c-0.11995,-0.35784 -0.22211,-0.71802 -0.30936,-1.08038c-0.02307,0.00189 -0.04651,0.00226 -0.07025,0.00105c-0.21815,-0.01115 -0.39841,-0.15383 -0.46788,-0.34732l-0.22946,-0.59663c0.54993,2.63135 0.86434,5.3461 1.43033,7.98223c-0.00089,-0.03217 -0.00268,-0.06324 -0.00578,-0.09279zM323.24494,282.67409c-0.02744,-0.0451 -0.05476,-0.09047 -0.08194,-0.13611c0.0115,0.05145 0.0229,0.10295 0.03419,0.15449zM322.3255,273.87963c0.00089,-0.00938 0.00177,-0.01872 0.00264,-0.02804c-0.06386,-0.07927 -0.11239,-0.12842 -0.07185,-0.07444c0.02341,0.03118 0.04648,0.06539 0.06921,0.10249zM326.23335,276.74258c0.0073,0.20778 0.01537,0.41666 0.02396,0.62647c0.01615,-0.04088 0.03368,-0.08058 0.05269,-0.1188c-0.018,-0.14586 -0.03898,-0.29049 -0.06315,-0.43374c-0.00422,-0.025 -0.00873,-0.04964 -0.0135,-0.07394zM326.72094,286.43034c0.02191,0.13772 0.04536,0.27748 0.06972,0.41873c0.03368,-0.45426 0.05774,-0.90578 0.06613,-1.35047c-0.0343,0.12516 -0.0711,0.25759 -0.10815,0.38972c-0.00923,0.18067 -0.01847,0.36135 -0.0277,0.54203z" fill="#5e2858" stroke="none" stroke-width="0" stroke-linecap="butt"/><path d="M285.50264,331.97283c-0.58788,3.03174 -17.39833,8.54706 -31.84186,5.82465c-14.44353,-2.72239 -24.67765,-14.33382 -24.08977,-17.36555c0.58788,-3.03173 11.77513,3.66427 26.21868,6.38668c14.44353,2.72239 28.70503,-0.31255 28.11715,2.71917z" fill="#141414" stroke="#000000" stroke-width="0" stroke-linecap="butt"/><path d="M328.38955,285.5892c-3.09803,28.76704 -33.81454,52.03862 -67.80238,48.31412c-33.98787,-3.7245 -58.37652,-33.03467 -55.27846,-61.80172c3.09806,-28.76704 33.1621,-49.068 67.14994,-45.34351c33.98787,3.7245 59.029,30.06407 55.93094,58.83112z" data-paper-data="{&quot;index&quot;:null}" fill="#9488af" stroke="#000000" stroke-width="0" stroke-linecap="butt"/><path d="M273.47963,272.51327" data-paper-data="{&quot;index&quot;:null}" fill="none" stroke="#000000" stroke-width="0" stroke-linecap="round"/><path d="M262.20632,227.25574c93.12924,9.3611 62.48257,78.56637 62.48257,78.56637c0,0 -10.56932,2.32207 -22.98445,-1.71661c-10.25004,-3.33439 -24.59842,-19.47296 -34.79072,-19.87614c-4.46221,-0.17651 -19.16251,6.50349 -32.10833,9.65241c-13.71006,3.3348 -25.57001,3.15468 -25.57001,3.15468c0,0 -21.67303,-77.28369 52.97096,-69.78071z" fill="#733c6c" stroke="#000000" stroke-width="0" stroke-linecap="round"/><path d="M204.44982,267.44235l4.06245,-28.68497c0,0 27.25112,-14.94266 40.45088,-13.06892c3.88179,0.55103 7.82172,-1.42028 15.24449,-1.11015c10.27119,0.42915 24.79923,3.3796 33.41252,6.84081c20.43951,8.21353 30.56995,24.32687 30.56995,24.32687c0,0 4.8063,42.12461 4.05989,47.39493c-0.53914,3.80682 -5.74417,2.52876 -5.74417,2.52876c0,0 -8.63261,1.83408 -14.15,-1.12649c-11.27361,-6.04924 -26.38404,-16.9813 -39.45832,-20.93878c-16.46562,-4.98402 -51.77211,15.15852 -65.26379,12.2966c-3.8254,-0.81144 -3.1839,-28.4587 -3.1839,-28.4587z" fill="#6a617d" stroke="none" stroke-width="0" stroke-linecap="butt"/><path d="M235.60085,321.35036c0,0 -0.86421,3.76766 -5.09759,5.59943c-6.25979,2.86735 -4.81849,7.87272 -4.81849,7.87272c0,0 -6.00124,-9.70066 -5.69037,-14.35991c0.46436,-1.20745 1.01116,-5.27491 1.01116,-5.27491c0,0 -1.00859,1.65121 -3.5901,2.6283c-2.58151,0.97709 -2.32324,11.01887 -2.32324,11.01887c0,0 -0.07299,-4.98862 -5.4075,-15.61152c-4.2691,-8.50129 0.16447,-15.45784 0.16447,-15.45784" data-paper-data="{&quot;index&quot;:null}" fill="#9488af" stroke="#000000" stroke-width="0" stroke-linecap="round"/><g data-paper-data="{&quot;index&quot;:null}" stroke-width="0" stroke-linecap="round"><g><path d="M197.02642,233.38641l-11.69111,-14.41451l16.92057,4.93595" data-paper-data="{&quot;index&quot;:null}" fill="#000000" stroke="#000000"/><path d="M198.21591,233.68234l-11.24537,0.09071l11.0733,-10.06235" data-paper-data="{&quot;index&quot;:null}" fill="#000000" stroke="#000000"/><path d="M183.74622,241.89401l9.80913,-2.84795" data-paper-data="{&quot;index&quot;:null}" fill="none" stroke="#b98f21"/></g><g fill="#000000" stroke="#000000"><path d="M197.46282,235.45947c0,0 -3.99056,1.69986 2.90322,-9.87014c4.54024,-7.62005 39.1934,-32.10616 86.46268,-31.95529c34.21734,-6.27135 36.94872,31.84178 36.94872,31.84178z"/><path d="M200.24676,230.57376c1.98059,-0.65937 4.45717,-1.2915 7.51741,-1.88131c43.64856,-8.41319 48.97606,-15.85631 111.28928,-8.52922c31.13145,3.99524 12.60982,25.05096 12.60982,25.05096l-128.17696,-1.03835c0,0 -20.53756,-7.843 -3.23949,-13.60208z"/></g></g><path d="M238.66763,245.84056c0,0 37.51775,-17.96861 62.19954,-17.97605c24.68179,-0.00743 20.63579,14.4413 20.63579,14.4413z" fill="#000000" stroke="#000000" stroke-width="0" stroke-linecap="round"/><path d="M293.0057,276.39684c10.11611,6.27827 10.54117,21.34382 5.81797,32.77801c-4.72322,11.4342 -13.96885,15.07264 -22.92222,8.62887c-8.74006,-6.29025 -9.82175,-20.32126 -5.09856,-31.75545c4.72321,-11.43419 14.92151,-13.36564 22.20282,-9.65143z" data-paper-data="{&quot;index&quot;:null}" fill="#ffffff" stroke="#000000" stroke-width="0" stroke-linecap="butt"/><path d="M260.50113,289.2839c-1.12271,12.33106 -8.58383,24.23409 -19.23059,25.6951c-10.90661,1.49668 -17.39795,-6.06182 -16.27525,-18.3929c1.12271,-12.33106 8.48259,-25.45741 20.34096,-26.26187c8.16231,0.13274 16.28761,6.62858 15.16491,18.95967z" fill="#ffffff" stroke="#000000" stroke-width="0" stroke-linecap="butt"/><path d="M230.80856,281.21653c0.88723,0.32052 0.83306,4.5453 -0.12099,9.4363c-0.95405,4.89101 -2.4467,8.59611 -3.33393,8.27558c-0.88723,-0.32052 -0.83306,-4.54529 0.12099,-9.43629c0.95405,-4.89101 2.4467,-8.59611 3.33393,-8.27559z" fill="#ffffff" stroke="#000000" stroke-width="1" stroke-linecap="butt"/><path d="M272.56829,287.10531c0.86525,0.22165 1.09241,4.42678 0.50738,9.39243c-0.58503,4.96566 -1.76072,8.81143 -2.62597,8.5898c-0.86525,-0.22165 -1.09241,-4.42678 -0.50737,-9.39244c0.58503,-4.96566 1.76072,-8.81143 2.62597,-8.58979z" fill="#ffffff" stroke="#000000" stroke-width="1" stroke-linecap="butt"/><path d="M299.32253,304.43324c0,0 -8.57781,-3.27793 -15.79281,-3.32896c-5.1664,-0.40166 -15.79172,0.87348 -15.79172,0.87348c0,0 0.10096,-4.72324 1.75717,-9.72466c2.44282,-7.37681 7.74311,-15.65624 16.80131,-12.70546c17.57117,5.72394 12.12699,26.1684 12.12699,26.1684z" data-paper-data="{&quot;index&quot;:null}" fill="#000000" stroke="#000000" stroke-width="0" stroke-linecap="round"/><g stroke="#000000" stroke-width="1.5"><path d="M263.89286,292.92915c-0.52397,12.48073 -9.22359,24.03794 -22.79405,24.70842c-13.90166,0.68684 -22.80497,-7.51537 -22.281,-19.99611c0.52397,-12.48073 9.00241,-25.29245 24.17847,-25.20067c10.49705,0.76279 21.42058,8.00763 20.89661,20.48836z" fill="none" stroke-linecap="butt"/><path d="M291.91801,276.58386c13.9768,4.693 17.87997,19.53689 14.57232,31.56075c-3.30763,12.02387 -13.98128,17.01293 -26.55032,11.98152c-12.26961,-4.91154 -16.75694,-18.63308 -13.44931,-30.65695c3.30763,-12.02387 15.54745,-15.46696 25.42731,-12.8853z" data-paper-data="{&quot;index&quot;:null}" fill="none" stroke-linecap="butt"/><path d="M267.10261,309.752c0,0 -1.77401,-1.27723 -3.8955,-1.76653c-2.20341,-0.50819 -3.68265,0.71128 -3.68265,0.71128l1.262,-3.29147c0,0 0.57013,-1.03577 2.77355,-0.52758c2.12147,0.4893 2.78553,1.47964 2.78553,1.47964z" fill="#000000" stroke-linecap="round"/></g><path d="M299.91303,296.87908c0,0 2.37588,-0.48219 7.52107,0.72804c3.02424,0.71134 9.78325,-0.62516 9.78325,-0.62516c0,0 -4.26136,3.09303 -6.34696,3.81835c-1.72968,0.60154 -5.2999,0.23213 -5.2999,0.23213c0,0 1.22208,2.70122 1.26083,3.53379c0.12915,2.77527 -0.19301,3.86682 -0.19301,3.86682c0,0 -1.92348,-2.37567 -4.36198,-3.38067c-1.27695,-0.52627 -3.71872,-0.46161 -3.71872,-0.46161" data-paper-data="{&quot;index&quot;:null}" fill="#000000" stroke="#000000" stroke-width="0" stroke-linecap="round"/><path d="M236.73561,290.9569l7.60494,4.30149" data-paper-data="{&quot;index&quot;:null}" fill="none" stroke="#b98f21" stroke-width="0" stroke-linecap="round"/><path d="M273.37243,304.42756c0,0 -0.20537,0.63346 -0.57364,1.00925c-0.36827,0.37578 -1.29333,0.89577 -1.29333,0.89577" fill="none" stroke="#000000" stroke-width="0" stroke-linecap="round"/><path d="M230.43439,297.5127c0,0 -0.0799,0.66111 -0.36918,1.1006c-0.28928,0.4395 -1.09728,1.12743 -1.09728,1.12743" data-paper-data="{&quot;index&quot;:null}" fill="none" stroke="#000000" stroke-width="1" stroke-linecap="round"/><g stroke="#000000" stroke-width="0" stroke-linecap="round"><path d="M293.5768,243.63394c0,0 47.14511,-5.56614 52.6366,-2.18012c6.26233,5.20548 -7.74112,28.78145 -7.74112,28.78145" data-paper-data="{&quot;index&quot;:null}" fill="#9488af"/><path d="M300.35956,247.86139c0,0 7.6941,-1.09968 19.184,-1.30676c11.00047,-3.01937 18.96323,0.52021 21.51639,2.67055c9.26602,7.80405 -5.8016,18.52751 -5.8016,18.52751" fill="none"/><path d="M335.48805,248.38982c0,0 5.42701,0.2536 9.89052,1.61726c2.33752,0.71414 7.47024,-0.80226 7.47024,-0.80226c0,0 -1.63876,3.33388 -2.87733,4.77904c-2.67423,3.12034 -6.46127,2.57356 -6.46127,2.57356c0,0 5.11948,3.1348 6.65299,4.56437c1.51004,1.4077 1.94759,4.30835 1.94759,4.30835c0,0 -3.35171,-2.16176 -4.36931,-1.6838c-2.30708,1.08368 -5.73343,0.04603 -5.73343,0.04603" fill="#9488af"/><path d="M336.76601,253.52154c0,0 9.00594,4.33657 11.11284,9.74823c1.51532,1.68705 1.16877,6.04773 1.16877,6.04773c0,0 -3.86382,-5.48306 -6.11873,-5.18498c-4.86878,0.64359 -5.51442,-1.08434 -5.51442,-1.08434c0,0 2.9068,4.8821 3.13564,6.61709c0.22535,1.70844 -1.7505,4.6581 -1.7505,4.6581c0,0 -2.04927,-4.14847 -3.33709,-4.36725c-2.91971,-0.49603 -4.67253,-3.70791 -4.67253,-3.70791" fill="#9488af"/></g><g data-paper-data="{&quot;index&quot;:null}" stroke="#000000" stroke-width="0" stroke-linecap="round"><path d="M192.54724,257.40567c0,0 -6.72623,-24.45115 0.78004,-27.60865c5.71377,-2.1228 49.91408,15.22554 49.91408,15.22554" data-paper-data="{&quot;index&quot;:null}" fill="#9488af"/><path d="M196.12157,255.9104c0,0 -11.2943,-14.64459 -0.1581,-19.41397c3.06847,-1.31415 11.7167,-2.38298 21.36217,3.70731c10.93223,3.54219 17.97318,6.8336 17.97318,6.8336" fill="none"/><path d="M190.8167,250.15706c0,0 -3.58002,-0.00451 -5.47183,-1.71274c-0.83444,-0.75345 -4.67023,0.33924 -4.67023,0.33924c0,0 1.26284,-2.64773 3.11721,-3.555c1.88319,-0.92136 7.69342,-2.43046 7.69342,-2.43046c0,0 -3.78224,-0.57907 -5.43254,-4.34267c-0.76435,-1.74308 -1.36185,-5.40958 -1.36185,-5.40958c0,0 4.46917,2.94462 6.91335,2.94171c4.66717,-0.00553 9.93306,1.33134 9.93306,1.33134" fill="#9488af"/><path d="M200.83435,255.77154c0,0 -2.61175,2.56269 -5.54942,2.18747c-1.29574,-0.16551 -4.4637,3.20695 -4.4637,3.20695c0,0 -1.03183,-3.39704 -0.319,-4.96593c0.7239,-1.59328 4.92576,-5.41802 4.92576,-5.41802c0,0 -1.12058,1.46521 -5.59128,-0.56755c-2.07054,-0.94146 -7.3629,3.17969 -7.3629,3.17969c0,0 0.93761,-4.27277 2.87834,-5.44575c3.59074,-4.56417 13.46895,-6.09187 13.46895,-6.09187" fill="#9488af"/></g><g fill="#000000" stroke="#000000" stroke-width="0" stroke-linecap="butt"><path d="M207.29514,264.72257c-1.24158,4.23169 -3.94711,5.89862 -10.01143,4.25022c-5.95885,-1.61974 -6.99378,-4.91572 -5.75219,-9.14742c1.24158,-4.23169 5.8375,-7.48508 10.55042,-6.08729c4.41085,1.3082 6.45478,6.75279 5.21319,10.98447z"/><path d="M200.26843,253.47757c0.80638,0.23916 -0.58368,1.94764 -1.72019,2.31881c-1.1365,0.37117 -2.97654,-0.30073 -2.81944,-0.83621c0.1571,-0.53547 3.73324,-1.72176 4.53961,-1.4826z"/><path d="M206.3484,258.22074c-0.1571,0.53547 -2.06526,0.0957 -2.81945,-0.83621c-0.75419,-0.93192 -0.99938,-3.1254 -0.19302,-2.88623c0.80638,0.23916 3.16956,3.18697 3.01246,3.72245z" data-paper-data="{&quot;index&quot;:null}"/><path d="M190.31126,259.62155l0.41922,-1.42885c0,0 5.69928,3.02165 8.60245,3.88268c2.93673,0.87099 8.8476,1.18186 8.8476,1.18186l-0.34848,1.56077c0,0 -6.05029,-0.46315 -8.91835,-1.3138c-2.96873,-0.88049 -8.60246,-3.88267 -8.60246,-3.88267z"/><path d="M202.14467,258.73602c0.10306,0.50982 -1.43528,1.2694 -2.34797,0.97649c-0.91267,-0.29291 -1.96915,-1.86724 -1.2976,-2.14652c0.31281,-0.13009 1.35938,-0.87026 2.12458,-0.63808c0.87755,0.26628 1.46594,1.53574 1.521,1.80808z" data-paper-data="{&quot;index&quot;:null}"/></g><path d="M270.41472,258.2586c0.62373,0.61464 0.0091,1.23838 0.0091,1.23838l-0.0225,0.02283c-1.4074,1.35027 -1.23573,2.35761 -1.61591,4.25171c-0.44885,2.23622 -0.8979,4.47241 -1.34686,6.70861l-0.00388,0.67382l-0.01368,-0.00009l0.01239,0.04287c-0.05168,0.50067 -0.07607,1.02477 -0.10443,1.55402c0.61799,-0.63361 1.38857,-1.146 2.308,-1.54906c0,0 0.80901,-0.33516 1.14418,0.47385c0.33516,0.80901 -0.47385,1.14418 -0.47385,1.14418c-1.65239,0.63157 -2.7323,1.94455 -2.96219,3.75805l-0.20614,1.38586c-0.07116,0.47836 -0.51662,0.80848 -0.995,0.73733c-0.40252,-0.05987 -0.70007,-0.38476 -0.74192,-0.77128l-0.22562,-1.71726l0.03517,-0.00462c-0.12506,-0.15278 -0.19836,-0.34716 -0.19833,-0.55393l-0.03038,-1.73672l0.01482,-0.00025c-0.00419,-0.03125 -0.008,-0.06261 -0.0114,-0.09404c-0.00175,-0.01612 0.36497,-1.84504 0.5695,-2.86323l-0.20031,-0.04202l0.3553,-1.69385c0.03546,-0.17591 0.12213,-0.3298 0.24194,-0.44832c0.55227,-3.5965 0.89963,-8.05088 3.2011,-10.48491l0.0225,-0.02284c0,0 0.61464,-0.62373 1.23838,-0.00909z" fill="#6a617d" stroke="none" stroke-width="0" stroke-linecap="butt"/><path d="M331.80413,286.47779c-0.41467,8.11439 -5.18838,14.46565 -10.66238,14.18591c-5.474,-0.27974 -9.57539,-7.08452 -9.16073,-15.19891c0.41467,-8.11439 5.18837,-14.46564 10.66237,-14.1859c5.474,0.27974 9.5754,7.08452 9.16074,15.19891z" fill="#6a617d" stroke="#000000" stroke-width="0" stroke-linecap="butt"/><path d="M315.85199,311.50163c0,0 2.86018,9.11672 -3.65521,16.04831c-8.14139,8.66145 -9.63341,13.42229 -9.63341,13.42229c0,0 3.11012,-9.5515 0.91426,-11.22396c-2.19588,-1.67245 -2.6919,-3.54266 -2.6919,-3.54266c0,0 -0.63538,4.05456 -0.53448,5.34429c-1.03022,4.55454 -9.54777,12.14196 -9.54777,12.14196c0,0 2.80834,-4.38682 -2.37433,-8.91964c-3.53555,-2.96255 -3.28989,-6.82024 -3.28989,-6.82024" data-paper-data="{&quot;index&quot;:null}" fill="#9488af" stroke="#000000" stroke-width="0" stroke-linecap="round"/><path d="M320.43061,273.08968c0.89769,1.72331 10.27965,12.1376 10.11405,24.33194c0.8116,7.39248 -4.52219,19.69699 -4.52219,19.69699c0,0 -4.29796,-7.66844 -8.99285,-7.65535c-3.0529,0.00853 -6.70183,-4.78217 -6.70183,-4.78217c0,0 1.25187,4.89803 -1.72538,13.10202c-0.89145,3.1429 -11.44202,13.43842 -11.44202,13.43842c0,0 1.26097,-14.94588 -12.09425,-25.66052c-14.48069,-10.39313 -19.1235,-31.0881 -19.1235,-31.0881" data-paper-data="{&quot;index&quot;:null}" fill="#6a617d" stroke="#000000" stroke-width="0" stroke-linecap="round"/><path d="M270.04122,266.88563c0,0 0.53809,6.28909 -0.12531,16.37801c-1.54871,7.15606 -3.3898,12.78316 -5.1997,16.74637c-2.19425,4.80481 -4.23241,7.18762 -4.23241,7.18762c0,0 1.38067,-9.65733 -3.8235,-14.95052c-5.6117,-5.19938 -9.04648,-16.30954 -9.04648,-16.30954z" data-paper-data="{&quot;index&quot;:null}" fill="#6a617d" stroke="#000000" stroke-width="0" stroke-linecap="round"/><path d="M218.81691,284.15946c-0.4938,0.29395 -0.78775,-0.19985 -0.78775,-0.19985l-0.20222,-0.34838c-0.04345,-0.09961 -0.07355,-0.21406 -0.0863,-0.3314c-0.0088,-0.00005 -0.01765,-0.0003 -0.02653,-0.00075c-0.20237,-0.01034 -0.37492,-0.12418 -0.46902,-0.28763l-0.32343,-0.54331c-0.02512,-0.03464 -0.04922,-0.07014 -0.07233,-0.10641c-0.04077,0.10764 -0.10472,0.19815 -0.20694,0.2604c-0.10907,0.06641 -1.98725,-0.85398 -2.10664,-0.91073c0,0 -0.51849,-0.24781 -0.27068,-0.7663c0.0084,-0.01755 0.01709,-0.03422 0.02606,-0.05006l-0.13348,-0.08138c-0.07228,0.25074 -0.30964,0.42811 -0.58149,0.41421c-0.05698,-0.00291 -0.1116,-0.01402 -0.16277,-0.03215l-1.07926,-0.35505l0.00496,-0.01508c-0.05176,-0.017 -0.10286,-0.03649 -0.1532,-0.05882c-0.0275,-0.0122 -0.32529,-0.37466 -0.65358,-0.78099c-0.0017,0.04712 -0.00334,0.09437 -0.00492,0.14171l-0.03554,1.06937c-0.00011,0.00396 -0.00029,0.00795 -0.00049,0.01192c-0.0162,0.31697 -0.28627,0.56078 -0.60324,0.54458c-0.27449,-0.01403 -0.49412,-0.21845 -0.53754,-0.47884l-0.21122,-1.11771l0.02576,-0.00486c-0.13905,-0.32509 -0.26151,-0.66077 -0.34124,-0.98588c-0.36028,1.192 -0.76926,2.36675 -1.30172,3.46415l0.12323,0.03826l-0.23803,0.76666c-0.09241,0.7139 -0.17404,1.42967 -0.23867,2.14854l-0.00376,0.04186c0.01223,-0.00016 0.02456,0.00008 0.03696,0.00072c0.31661,0.01618 0.56024,0.28567 0.54464,0.60218l-0.0562,1.14779l-0.03212,-0.00157l-0.00121,0.01569c-0.01735,0.22257 -0.03638,0.44563 -0.05744,0.66887c0.06961,1.05735 0.03273,2.14168 -0.05265,3.22227c0.05748,-0.0141 0.1231,-0.02054 0.19798,-0.01672c0.57392,0.02933 0.54458,0.60324 0.54458,0.60324l-0.0784,0.3454c-0.28731,0.49257 -0.50096,1.08598 -0.66189,1.73126c0.0486,-0.01053 0.09939,-0.01489 0.15144,-0.01223c0.31697,0.0162 0.56079,0.28628 0.54459,0.60325c-0.00167,0.03275 -0.00606,0.06472 -0.01293,0.09568l-0.2279,1.11604l-0.12025,-0.02455c-0.07433,2.50997 -0.70236,5.10578 -1.03985,7.56167l-0.09634,0.70104c-0.03737,0.29552 -0.29705,0.51665 -0.5994,0.5012c-0.31697,-0.0162 -0.56079,-0.28628 -0.54459,-0.60325l0.05866,-1.14783l0.09564,0.00489c0.00901,-0.06715 0.01798,-0.1343 0.0269,-0.20147c-0.007,-0.07482 -0.01337,-0.14971 -0.01916,-0.22464c-0.15394,-0.09542 -0.25849,-0.26116 -0.27103,-0.45001l-0.09291,-1.13752l0.00087,-0.00008l-0.0011,-0.00276c-0.02628,-0.36628 -0.05718,-0.73006 -0.08887,-1.09189c-0.12587,-0.10589 -0.20506,-0.26443 -0.20505,-0.43962l-0.00882,-1.14531l0.08117,-0.00063c-0.03089,-0.42959 -0.05477,-0.85751 -0.06493,-1.28473c-0.10648,0.17335 -0.30189,0.28464 -0.51937,0.27353c-0.29221,-0.01493 -0.52225,-0.24563 -0.54371,-0.52993l-0.10405,-1.13611c-0.08154,-0.30634 -0.11856,-0.61581 -0.07044,-0.91483c0.0951,-0.59114 0.28628,-1.20123 0.51312,-1.81084c0.21203,-1.41904 0.49717,-2.83238 0.73239,-4.24064c0.05506,-0.32966 0.06915,-0.67408 0.10226,-1.00186c-0.03221,0.06097 -0.06524,0.12209 -0.09911,0.1834l-0.4674,-1.24188c0.08875,-1.75505 0.17749,-3.51011 0.26624,-5.26514c-0.17537,-1.36601 -0.21573,-2.71377 -0.08331,-3.8887l0.13315,-1.13717c0.0326,-0.30064 0.29478,-0.52707 0.6006,-0.51144c0.28536,0.01458 0.51144,0.23495 0.54186,0.51004l0.14634,1.12987l-0.21553,0.02792c0.07075,0.35843 0.12256,0.72463 0.15876,1.09666c0.22194,-1.42505 0.40994,-2.8545 0.51825,-4.29859l0.08584,-1.14442c0.02229,-0.31112 0.28955,-0.54862 0.60252,-0.53262c0.2945,0.01505 0.52585,0.24926 0.54417,0.53662l0.06123,0.77689l-0.11461,0.00903l-0.02667,0.35555c0.07739,0.62067 0.04667,1.22792 -0.00983,1.88786c0.02101,0.00109 0.04277,0.00312 0.06529,0.00617c0.32803,0.04428 0.4416,0.25201 0.47894,0.42019c0.1594,-0.50699 0.32028,-1.01349 0.48355,-1.51923l0.09074,-0.07062l-0.02735,-0.0228l0.58421,-0.70132c0.11171,-0.1371 0.28499,-0.22096 0.47514,-0.21125c0.29035,0.01484 0.51933,0.24272 0.54328,0.52452l0.11565,1.13452l-0.16077,0.01639c0.08633,0.6598 0.1102,1.31376 0.10508,1.97534c0.33274,0.34674 0.67455,0.7539 0.96654,1.11324c0.40733,0.21092 0.81786,0.45034 1.28231,0.7324c0.0487,-0.13717 0.1599,-0.27461 0.40034,-0.33403c0.55788,-0.13788 0.69576,0.42 0.69576,0.42l0.21109,0.85413l0.02043,-0.3997c0,0 0.02933,-0.57391 0.60325,-0.54458c0.57392,0.02933 0.54458,0.60324 0.54458,0.60324l-0.02894,0.56632c0.03326,0.01483 0.06481,0.03271 0.09429,0.05327l0.88227,0.59261l-0.09007,0.13411c0.15408,0.09598 0.29868,0.20308 0.42926,0.32453c0.08042,-0.03615 0.17041,-0.05425 0.26452,-0.04944c0.25075,0.01281 0.45574,0.18452 0.52241,0.41264l0.23388,0.73591l-0.03004,0.00955c0.09422,0.16185 0.18081,0.32768 0.25613,0.49911l0.13693,0.22135c0,0 0.29395,0.4938 -0.19984,0.78775zM215.16481,280.63483c-0.00954,0.02264 -0.02048,0.04453 -0.03272,0.06555c0.01568,0.00683 0.03142,0.01355 0.04722,0.02019c-0.00723,-0.03149 -0.01173,-0.06066 -0.0145,-0.08573z" fill="#6a617d" stroke="none" stroke-width="0" stroke-linecap="butt"/><path d="M228.83278,293.23526c0,0 -3.65214,-1.02965 -4.60863,-1.10156c-1.82654,-0.13732 -3.84384,1.17789 -3.84384,1.17789c0,0 0.2046,-1.11919 1.29276,-3.55985c0.32645,-0.73221 2.04223,-2.63964 2.04223,-2.63964c0,0 -2.27288,-1.19211 -3.08977,-2.47157c-0.98498,-1.54274 -2.41072,-6.14371 -2.41072,-6.14371c0,0 3.56146,4.08771 5.63187,4.73919c3.52243,1.1084 5.59157,2.69049 5.59157,2.69049" fill="#000000" stroke="#000000" stroke-width="0" stroke-linecap="round"/><path d="M250.05361,270.61939c17.20794,2.87685 8.32701,29.08895 8.32701,29.08895c0,0 -8.58302,-4.80382 -17.20547,-6.16902c-5.39052,-1.34439 -16.67966,-1.32993 -16.67966,-1.32993c0,0 5.66526,-24.91573 25.55814,-21.59z" fill="#000000" stroke="#000000" stroke-width="0" stroke-linecap="round"/><path d="M270.21483,266.56194l-0.00119,0.00016l0.00163,0.00319c0.0307,0.24709 0.06141,0.49417 0.09211,0.74126l0.37873,0.02649c0.10978,-0.10205 0.25911,-0.1613 0.42061,-0.15304c0.31697,0.0162 0.56079,0.28627 0.54459,0.60324l-0.03285,0.64279l-0.09163,-0.00468l-0.08225,0.39995l0.32151,0.2225c0.1628,0.10871 0.26591,0.29791 0.2552,0.50762c-0.01599,0.31287 -0.27933,0.55447 -0.59097,0.54509l-0.18486,-0.00493c-0.01581,0.07265 -0.03233,0.14535 -0.04942,0.21819c0.02027,0.0029 0.04053,0.00578 0.06079,0.00863l0.01096,-0.05805l1.12137,0.21169c0.28245,0.04881 0.49032,0.30208 0.47533,0.59553c-0.0162,0.31697 -0.28627,0.56078 -0.60325,0.54458c-0.01833,-0.00094 -0.03641,-0.00272 -0.05422,-0.00531l-0.6545,-0.08837l-0.03226,0.63124c-0.09771,1.90315 -0.19691,3.96346 -0.54256,5.93963c0.05932,0.88138 -0.02272,1.78269 -0.19731,2.64146c0.00243,0.04253 0.00483,0.08512 0.0072,0.12777l0.10323,0.00528l-0.05866,1.14783c-0.00917,0.17939 -0.09965,0.33535 -0.23393,0.434c0.01043,0.12822 0.01988,0.25658 0.0282,0.38513c0.05068,0.00053 0.1014,-0.00279 0.15208,-0.01051c0,0 0.5723,-0.05212 0.62443,0.52017c0.05213,0.5723 -0.52017,0.62443 -0.52017,0.62443c-0.00252,0.00014 -0.00502,0.00027 -0.00754,0.00041l0.02016,0.1308c0.00728,0.04167 0.01005,0.08477 0.0078,0.1288c-0.0162,0.31697 -0.28627,0.56079 -0.60324,0.54459c-0.09639,-0.00493 -0.18602,-0.03334 -0.26363,-0.0794l-0.52682,-0.29794l0.01111,-0.01964l-0.06924,-0.01805c-0.18957,-0.17783 -0.34853,-0.38222 -0.48694,-0.60278l-0.08137,0.05992l-0.679,-0.92218c-0.07756,-0.10365 -0.12074,-0.23399 -0.11361,-0.37339c0.0162,-0.31697 0.28627,-0.56078 0.60324,-0.54458c0.09984,0.0051 0.19242,0.0354 0.27192,0.08441l0.43215,0.25454c-0.00586,-0.02447 -0.0116,-0.04903 -0.0172,-0.07366c-0.1527,-0.11032 -0.24812,-0.29339 -0.23779,-0.49552l0.03989,-0.78053c0.00065,-0.01227 0.00126,-0.02446 0.00184,-0.03655c-0.06565,-0.69038 -0.09447,-1.38195 -0.17204,-1.99176l0.02143,-0.05077l-0.02112,-0.00108l0.04223,-0.82644c0.00999,-0.19556 0.11662,-0.36327 0.27129,-0.45925c-0.03658,-0.08079 -0.05494,-0.17129 -0.0501,-0.26596l0.05015,-0.98134c-0.19236,-0.47108 -0.40547,-0.90181 -0.60488,-1.1284c-0.59573,-0.67695 -2.02491,-1.08972 -2.76241,-1.64767c-0.8502,-0.64321 -1.65141,-1.41431 -2.40793,-2.21214c-0.08972,0.04868 -0.19353,0.07407 -0.30294,0.06848l-0.16156,-0.00826c-0.01253,0.00133 -0.02517,0.00225 -0.03791,0.00275l-0.15059,0.00785c-0.05533,0.07424 -0.12806,0.13445 -0.21181,0.17486l-0.65161,0.32942l-0.03249,-0.06429l-0.12106,0.1163c-0.17599,-0.01377 -0.35126,-0.03486 -0.52573,-0.06215l-1.03161,0.24822c-0.29818,0.12956 -0.5785,0.20906 -0.77622,0.17458c-0.09575,0.13813 -0.25018,0.2315 -0.42525,0.24578l-0.24888,0.02443c-0.19421,0.15277 -0.43646,0.26502 -0.64375,0.39654c-0.65371,0.41477 -2.62208,0.83357 -3.24176,0.08329c-1.42542,-1.72581 0.55854,-1.82532 2.06304,-1.76105c-0.00204,-0.02513 -0.00245,-0.05068 -0.00112,-0.07655c0.01409,-0.27577 0.22037,-0.49618 0.4825,-0.53814l0.6715,-0.12222c0.00007,-0.00153 0.00015,-0.00306 0.00022,-0.00457c0.00881,-0.17246 0.09279,-0.32326 0.21858,-0.42232l0.72956,-0.58028c0.87512,-0.61007 1.33105,-0.7899 1.76298,-0.64027c0.03288,-0.04553 0.07221,-0.08599 0.11661,-0.12006l-0.06964,-0.00705c-0.30459,-0.02881 -0.53515,-0.2929 -0.51938,-0.60141c0.01171,-0.22911 0.15606,-0.41999 0.35489,-0.5021l0.74197,-0.32478l0.02509,0.05732l0.12562,-0.09998c0.54013,0.06083 1.08969,0.1149 1.64411,0.1694c-0.0117,-0.05078 -0.01663,-0.10402 -0.01384,-0.15866c0.0162,-0.31697 0.28627,-0.56078 0.60324,-0.54458c0.0119,0.00061 0.02371,0.00157 0.0354,0.00289l1.13838,0.11969l-0.00491,0.04669l0.0225,0.00331c0.16937,0.02491 0.34546,0.04641 0.52653,0.06584c1.10635,-0.02676 2.2015,0.06537 3.34706,0.15333c-0.00217,-0.00319 -0.0043,-0.00641 -0.00641,-0.00965l-0.32689,-0.49049l-0.49687,0.20945c-0.08017,0.03583 -0.16978,0.05378 -0.26349,0.04899c-0.31697,-0.0162 -0.56079,-0.28627 -0.54459,-0.60324c0.01101,-0.21539 0.13924,-0.39699 0.31975,-0.48618l0.2884,-0.14905c-0.18231,-0.30296 -0.25642,-0.58484 -0.11107,-0.78441c0.33076,-0.45416 1.10718,-0.19193 1.66077,-0.2879l0.35977,0.00399c0.11601,-0.07903 0.40009,-0.22405 0.67888,0.00752l0.10703,0.00118c0.00881,0.00005 0.01766,0.0003 0.02655,0.00076c0.31697,0.0162 0.56078,0.28627 0.54458,0.60324c-0.01185,0.23198 -0.1597,0.42477 -0.36237,0.50514l-0.71342,0.30074zM260.26436,270.03519c0.00025,-0.00006 0.0005,-0.0001 0.00075,-0.00016c0.00002,-0.0002 0.00003,-0.00039 0.00005,-0.00059c-0.00027,0.00025 -0.00054,0.00049 -0.0008,0.00074zM269.37924,274.25496c0.04411,-0.7777 0.13572,-1.56094 0.29731,-2.3558c0.03097,-0.20854 0.06414,-0.41647 0.0993,-0.62423c-0.3404,-0.04827 -0.68019,-0.0979 -1.01954,-0.14979l0.43793,0.3221c0.15443,0.11008 0.25116,0.29421 0.24077,0.49766c-0.0162,0.31697 -0.28627,0.56078 -0.60324,0.54458c-0.02595,-0.00133 -0.05141,-0.00436 -0.07628,-0.00897l-1.12421,-0.19246c-0.68108,-0.11659 -1.3253,-0.26031 -1.94079,-0.44022c0.31023,0.28394 0.62937,0.55538 0.96196,0.807c0.74366,0.56261 2.00271,0.96103 2.7268,1.60012zM268.26391,271.04811c0.02359,0.01722 0.04709,0.03462 0.07051,0.05225l0.027,-0.0367c-0.03251,-0.00517 -0.06501,-0.01034 -0.0975,-0.01555z" fill="#6a617d" stroke="none" stroke-width="0" stroke-linecap="butt"/><path d="M260.30091,270.00109c0.00027,-0.00025 0.00053,-0.0005 0.0008,-0.00075c-0.00002,0.0002 0.00623,0.06028 0.00621,0.06049c-0.00025,0.00006 -0.08011,0.00817 -0.08036,0.00823z" data-paper-data="{&quot;noHover&quot;:false,&quot;origItem&quot;:[&quot;Path&quot;,{&quot;applyMatrix&quot;:true,&quot;segments&quot;:[[[455.65056,183.01114],[0,0],[0.0005,-0.00013]],[[455.65204,183.01075],[-0.0005,0.00013],[0.00002,-0.0004]],[[455.65208,183.00958],[-0.00002,0.00039],[-0.00051,0.00052]],[[455.65056,183.01115],[0.00051,-0.00052],[0,0]]],&quot;closed&quot;:true,&quot;fillColor&quot;:[0,0,0,1]}]}" fill="#6a617d" stroke="none" stroke-width="0" stroke-linecap="butt"/><path d="M282.14153,269.71357c0,0 0.5381,6.28909 -0.12531,16.37801c-1.54871,7.15606 3.41476,12.94676 -1.92054,17.43566c-4.61167,4.06749 -5.37343,7.89653 -5.37343,7.89653c0,0 -1.45188,-10.07828 -6.65605,-15.37148c-5.6117,-5.19938 -8.35208,-17.28678 -8.35208,-17.28678z" data-paper-data="{&quot;index&quot;:null}" fill="#6a617d" stroke="#000000" stroke-width="0" stroke-linecap="round"/><path d="M263.98178,276.36929c0.42762,-8.36788 5.79857,-13.36019 11.71525,-13.05783c5.91668,0.30236 10.36645,7.33098 9.93883,15.69886c-0.23594,4.61696 2.03036,18.69862 -0.41449,21.35997c-1.98625,2.16214 -8.42073,-6.62052 -11.0729,-6.75605c-3.35892,-0.17165 -10.56496,0.95083 -12.35436,-2.57077c-0.79375,-1.56213 -1.7339,-7.91529 -1.74007,-12.13105c-0.00203,-1.38296 0.06155,-1.85302 0.30987,-2.75009c0.29416,-1.06271 3.57601,1.02587 3.61786,0.20696z" fill="#6a617d" stroke="#000000" stroke-width="0" stroke-linecap="butt"/><path d="M211.26457,329.62836c0,0 -0.28125,0.62149 -0.80552,1.64605c-9.00294,-2.89317 -18.00463,-5.79174 -27.04111,-8.56267c1.48182,-6.83516 2.7453,-10.72222 2.7453,-10.72222z" data-paper-data="{&quot;index&quot;:null}" fill="#83799b" stroke="#000000" stroke-width="0" stroke-linecap="butt"/><path d="M182.42259,318.27156c0.26888,-5.26161 4.08416,-9.34318 8.52168,-9.11641c4.43752,0.22677 20.78641,16.61687 20.51755,21.8785v0.00001c-0.00619,0.12117 -0.04943,0.29736 -0.12641,0.52235c-9.41372,-3.02463 -18.82478,-6.05987 -28.27442,-8.95366c-0.48267,-1.31661 -0.7172,-2.78882 -0.6384,-4.3308z" fill="#6a617d" stroke="none" stroke-width="0" stroke-linecap="butt"/><path d="M197.59768,287.05397c-0.1231,2.40894 -2.7924,4.23045 -5.96206,4.06847c-3.16965,-0.16198 -5.63937,-2.24612 -5.51626,-4.65504c0.1231,-2.40894 2.79241,-4.23045 5.96206,-4.06847c3.16965,0.16198 5.63937,2.24612 5.51626,4.65504z" fill="#6a617d" stroke="#000000" stroke-width="0" stroke-linecap="butt"/><path d="M237.70687,248.63764c0,0 3.03497,-11.83151 11.3212,-15.40965c12.4113,-5.35943 22.99699,-9.43279 22.99699,-9.43279c0,0 0.07674,3.70083 0.54507,5.85408c0.54435,2.50275 -1.16637,5.79929 -1.16637,5.79929c0,0 5.92203,-3.35792 13.65256,-3.91322c8.22732,-1.23816 17.07472,2.32064 17.07472,2.32064c0,0 -6.16988,2.23557 -8.48328,3.66231c-2.12693,1.31175 -4.88483,4.5822 -4.88483,4.5822c0,0 8.52984,1.74594 11.00584,3.81993c4.92877,4.12853 7.16618,8.84072 7.16618,8.84072c0,0 -7.55192,-1.22567 -12.31265,-1.03723c-4.84211,0.19165 -10.76303,0.23784 -10.76303,0.23784" fill="#6f6683" stroke="#000000" stroke-width="0" stroke-linecap="round"/><path d="M332.74374,312.55827c0,0 5.19463,15.16003 3.78271,20.84448c-4.15698,16.73616 -1.61244,28.33602 -1.61244,28.33602c0,0 -5.19434,-6.39782 -5.82531,-8.6402c-0.69088,-2.45531 -1.63048,-8.07684 -1.63048,-8.07684" fill="#83799b" stroke="#000000" stroke-width="0" stroke-linecap="round"/><path d="M264.29079,317.83596c-0.03651,0.28038 -1.42986,0.33016 -3.11216,0.11116c-1.68231,-0.21899 -3.01649,-0.62381 -2.98,-0.9042c0.03651,-0.28038 1.69821,-1.06964 3.38052,-0.85065c1.68231,0.21899 2.74813,1.36331 2.71164,1.64368z" fill="#000000" stroke="#000000" stroke-width="0" stroke-linecap="butt"/><path d="M251.75001,330.61123c0,0 2.21065,-1.18026 4.50961,-0.44075c3.12711,1.0059 3.49039,2.94075 3.49039,2.94075" fill="none" stroke="#000000" stroke-width="1.5" stroke-linecap="round"/></g></g></svg>