<svg version="1.1" xmlns="http://www.w3.org/2000/svg" xmlns:xlink="http://www.w3.org/1999/xlink" width="209.95018" height="191.12341" viewBox="0,0,209.95018,191.12341"><defs><linearGradient x1="185.3874" y1="105.06352" x2="376.50389" y2="105.06352" gradientUnits="userSpaceOnUse" id="color-1"><stop offset="0" stop-color="#000000"/><stop offset="1" stop-color="#4c4557"/></linearGradient></defs><g transform="translate(-171.24666,-2.09803)"><g data-paper-data="{&quot;isPaintingLayer&quot;:true}" fill-rule="nonzero" stroke-linejoin="miter" stroke-miterlimit="10" stroke-dasharray="" stroke-dashoffset="0" style="mix-blend-mode: normal"><path d="M195.93604,146.74875l-10.54864,-120.80001l191.11649,-3.72305l-16.13321,165.67566z" fill="url(#color-1)" stroke="#000000" stroke-width="8.5" stroke-linecap="butt"/><g stroke-width="0"><path d="M256.18493,150.06215c-0.63864,0.75728 -3.15992,4.80769 -6.10794,9.60017c-1.9665,-0.39914 -3.93301,-0.79828 -5.89951,-1.19742c-10.65802,-2.16326 -21.51431,-5.05712 -32.42083,-7.06317c-0.06215,-2.3119 -0.08626,-3.9407 -0.08626,-3.9407c0,0 -0.16659,1.46073 -0.63009,3.81025c-4.33456,-0.78135 -8.67655,-1.41695 -13.01667,-1.80523c-0.0047,-0.98238 -0.03522,-1.99619 -0.09642,-3.03857c-0.46575,-7.93278 4.54645,-15.35372 4.67749,-19.52728c-1.68202,-0.61248 -2.11228,-4.55912 -2.3711,-7.34776c6.58708,-3.39289 35.81902,-18.13121 47.32951,-18.5341c14.33438,-0.50173 45.02502,5.6658 45.02502,5.6658c0,0 15.32518,4.48805 22.00091,22.52233c0.60431,1.63254 6.80579,1.9601 7.08804,5.50754c0.46443,5.83728 -5.41243,16.10009 -7.05389,23.52032c-1.34653,5.00414 -1.12967,10.14554 -0.41704,14.44425c-0.72108,-0.14631 -1.44216,-0.29264 -2.16323,-0.439c-4.04095,-0.8202 -8.08191,-1.64038 -12.12286,-2.46058c-1.3445,-3.60256 -0.98242,-7.32424 -0.98242,-7.32424c0,0 -0.53131,3.21247 -1.58583,6.80297c-10.03159,-2.03612 -20.06317,-4.07223 -30.09477,-6.10834c-2.05729,-4.5905 -5.80425,-3.28325 -5.80425,-3.28325l-0.48568,2.00659c-1.0886,-0.22096 -2.17721,-0.44191 -3.26581,-0.66287c-0.3218,-6.07761 -0.81867,-11.97504 -1.51639,-11.14768z" data-paper-data="{&quot;index&quot;:null}" fill="#4e4274" stroke="#000000" stroke-linecap="butt"/><path d="M200.23361,119.55242c-0.85835,0.44212 -1.33219,0.6916 -1.33219,0.6916c0,0 0.06535,-9.21359 1.10148,-2.8628c0.08288,0.50805 0.14806,1.28056 0.23072,2.17119z" data-paper-data="{&quot;index&quot;:null}" fill="#4e4274" stroke="#000000" stroke-linecap="butt"/><path d="M202.24736,76.35861c-0.48695,-0.93092 -0.95844,-1.87073 -1.46038,-2.79126c0.51802,1.23699 1.01964,2.48089 1.54192,3.71636c0.00347,-0.13658 0.00609,-0.23589 0.00761,-0.26507c-0.0208,-0.15328 -0.0416,-0.30657 -0.06241,-0.45985zM201.89974,78.2418c0.00459,-0.09405 0.01263,-0.18312 0.02432,-0.26665c0,0 0.01642,-0.10791 0.09955,-0.16811c-0.96086,-2.25406 -1.84223,-4.54072 -2.87043,-6.76585c-0.13922,-0.30141 -0.27807,-0.60299 -0.41662,-0.90473l0.00118,-0.02469l-0.00789,0.00189l-0.11282,-0.46722c-0.00831,-0.03129 -0.0105,-0.06483 -0.00531,-0.09892c0.02019,-0.13271 0.14417,-0.22394 0.27687,-0.20377c0.0868,0.01321 0.15581,0.07075 0.18757,0.14612l0.19421,0.44118l-0.022,0.00964c1.33243,1.75055 2.30068,3.89328 3.31526,5.92424c0.11537,0.05243 0.13403,0.19218 0.13403,0.19218l0.01359,0.10167c0.31888,0.63113 0.64418,1.24891 0.98853,1.83803c0.22754,0.38929 0.448,0.7781 0.66354,1.16686c-0.10396,-0.76522 -0.1481,-1.51517 -0.10656,-2.22626l-0.03777,0.00447l-0.05602,-0.47725c-0.00324,-0.02284 -0.00324,-0.04647 0.00042,-0.0704c0.02019,-0.13271 0.14417,-0.22396 0.27687,-0.2038c0.08231,0.01252 0.14868,0.065 0.1824,0.13475l0.21568,0.43192l-0.01017,0.00508l0.02328,0.02659c0.06194,0.32971 0.12319,0.65955 0.1836,0.98955c0.36513,2.005 1.21708,4.05613 1.82761,6.10227l0.05254,0.09949c0.02434,0.04491 0.03477,0.09783 0.02651,0.15223c-0.00057,0.00373 -0.00119,0.00744 -0.00194,0.01115c0.0108,0.03751 0.0215,0.07503 0.03211,0.11254c0.07085,0.02693 0.12413,0.08542 0.1458,0.1561l0.14883,0.45183c0.23826,0.60537 0.32893,0.98087 0.29078,1.46959l0.03973,-0.00017l0.00158,0.48171c0.00024,0.01372 -0.00059,0.02768 -0.00276,0.04174c-0.00153,0.01005 -0.00368,0.01983 -0.00635,0.02938l0.06885,0.20145c0.01352,0.03704 0.01817,0.07788 0.01182,0.11962c-0.02019,0.13271 -0.14414,0.22395 -0.27685,0.20378c-0.07054,-0.01072 -0.12932,-0.05078 -0.16596,-0.10585l-0.14071,-0.21015c0.12193,0.50996 0.24109,1.01924 0.42927,1.50876l0.17208,0.45003c0.01577,0.03904 0.02159,0.08274 0.01481,0.12738c-0.02019,0.13271 -0.14414,0.22395 -0.27686,0.20378c-0.08176,-0.01244 -0.14775,-0.06423 -0.18168,-0.1332l-0.21852,-0.43063l0.03904,-0.0198c-0.6728,-0.85123 -1.21997,-1.90208 -1.70522,-3.01536c-0.28598,-0.28449 -0.56237,-0.59746 -0.77271,-0.88324l-0.28816,-0.39154v0c-0.03685,-0.05011 -0.05461,-0.11425 -0.04453,-0.1806c0.02018,-0.13271 0.14415,-0.22396 0.27686,-0.2038c0.01173,0.00176 0.0231,0.00437 0.03414,0.00772l0.13892,0.03981c-0.13139,-0.34033 -0.26003,-0.68047 -0.38747,-1.01668c-0.48062,-0.68822 -0.9247,-1.24454 -1.08355,-1.21627c-0.0681,0.01216 -0.11467,0.0382 -0.14358,0.07545c0.09463,0.29902 0.1952,0.5964 0.29942,0.88629c0.13658,0.22092 0.28083,0.4387 0.3613,0.60299c0.37028,0.75606 0.77995,1.43986 1.01588,2.21424l0.0597,-0.02682l0.19781,0.44019c0.01965,0.04204 0.02754,0.09008 0.02006,0.13939c-0.02019,0.13271 -0.14417,0.22396 -0.27686,0.2038c-0.06641,-0.01008 -0.12242,-0.0462 -0.15929,-0.09636l-0.28794,-0.39165h0.00004l-0.00012,-0.00007c-0.82692,-1.15095 -1.91739,-4.05987 -2.29177,-6.22246c-0.78168,-0.9708 -1.51857,-1.89124 -2.18007,-2.52657c-0.97113,-1.10752 -1.87151,-2.28068 -2.88301,-3.34611l-0.00787,-0.04763l-0.01383,0.00548l-0.17771,-0.44799c-0.01659,-0.03971 -0.02287,-0.08438 -0.01593,-0.13003c0.02018,-0.13269 0.14414,-0.22395 0.27685,-0.20376c0.03849,0.0059 0.07352,0.02044 0.10332,0.04145l0.39913,0.26847l-0.05006,0.07444c1.39294,0.90243 2.5565,2.78651 3.68559,3.90486c0.0604,0.05979 0.43704,0.52047 0.73546,0.883zM206.11061,83.91947c-0.01043,-0.00622 -0.02084,-0.01244 -0.03133,-0.01875c0.13082,0.412 0.26664,0.81841 0.40374,1.21492c0.00048,-0.00308 0.00095,-0.00615 0.00143,-0.00926c-0.01628,-0.05881 -0.03285,-0.11509 -0.05,-0.16806c-0.10841,-0.33446 -0.21664,-0.67453 -0.32383,-1.01883zM203.84359,81.93031c-0.39175,-0.43095 -0.77862,-0.88968 -1.15742,-1.35162c0.07643,0.31688 0.16432,0.64318 0.26072,0.97116c0.00849,-0.00683 0.01726,-0.01323 0.02644,-0.01925c0.19893,-0.13015 0.51276,0.05322 0.87022,0.39972zM202.82375,77.43645c0.00297,0.27375 0.002,0.61395 -0.03417,0.92015c0.22733,0.51999 0.46027,1.03765 0.70165,1.55183c0.44249,0.42517 0.874,0.86224 1.27029,1.30479c-0.04268,-0.1742 -0.08349,-0.34862 -0.12212,-0.52308c-0.43509,-0.81629 -0.88154,-1.63028 -1.35942,-2.44786c-0.15574,-0.26642 -0.30739,-0.53527 -0.45619,-0.80584zM205.2399,83.6866c0.17348,0.25323 0.33637,0.50084 0.48037,0.72553c-0.11067,-0.32417 -0.22131,-0.65636 -0.32941,-0.99444c-0.14572,-0.11577 -0.29128,-0.23951 -0.43662,-0.36999c0.09591,0.21267 0.19115,0.42559 0.2857,0.63889z" data-paper-data="{&quot;index&quot;:null}" fill="#000000" stroke="none" stroke-linecap="butt"/><path d="M265.52881,132.3348c16.72899,-1.05166 30.64116,3.67351 31.07368,10.55398c0.43257,6.88048 -12.77832,13.31068 -29.50729,14.36235c-16.72896,1.05166 -30.64114,-3.67351 -31.07368,-10.55398c-0.43252,-6.88047 12.77832,-13.31068 29.50735,-14.36234z" data-paper-data="{&quot;index&quot;:null}" fill="#ffffff" stroke="#000000" stroke-linecap="butt"/><path d="M227.71481,152.84686c1.0331,-3.50598 13.39884,-2.3156 30.41044,2.24309c17.01161,4.5587 30.13915,-0.4974 29.10602,3.0086c1.86886,2.43664 0.15562,6.94703 -8.10774,9.64651c-17.01841,-3.79141 -34.02179,-7.66391 -51.08262,-11.23321c-0.53834,-1.50845 -0.57868,-2.80781 -0.32611,-3.66498z" data-paper-data="{&quot;index&quot;:null}" fill="#69599c" stroke="#000000" stroke-linecap="butt"/><path d="M235.61871,153.20387c-0.01973,-1.1518 13.77539,4.5483 25.06317,4.35494c11.28779,-0.19336 22.40427,-2.76281 22.42402,-1.61101c0.01973,1.1518 -7.91364,7.08346 -23.15865,7.40874c-0.21179,-0.01204 -0.42203,-0.025 -0.63074,-0.03888c-5.22728,-1.16616 -10.45579,-2.3259 -15.68765,-3.46808c-5.66842,-2.42731 -8.13029,-5.30143 -8.14202,-5.98612z" data-paper-data="{&quot;index&quot;:null}" fill="#000000" stroke="#000000" stroke-linecap="butt"/><path d="M258.03591,43.19511c37.07406,-5.15948 70.75252,16.69822 75.22294,48.8206c4.47042,32.1224 -21.96007,62.34537 -59.03414,67.5049c-37.07403,5.15951 -70.75253,-16.69817 -75.22293,-48.82058c-4.47038,-32.1224 21.96011,-62.34541 59.03417,-67.50488z" data-paper-data="{&quot;index&quot;:null}" fill="#5c4e89" stroke="#000000" stroke-linecap="butt"/><path d="M260.13238,55.66343c23.63136,-4.77316 57.02244,33.38176 69.38567,57.22573c5.35677,10.3312 -10.52708,21.02948 -10.52708,21.02948c0,0 -7.39046,7.69625 -18.82647,14.29178c-8.68266,5.00758 -19.69737,9.38063 -31.58021,9.26916c-42.04815,1.9413 -59.48019,-26.55721 -59.48019,-26.55721c0,0 -28.25559,-52.638 51.02825,-75.25899z" data-paper-data="{&quot;index&quot;:null}" fill="#655696" stroke="#000000" stroke-linecap="butt"/><path d="M339.00868,138.37527c-5.55656,9.70546 -17.60456,16.71936 -17.60456,16.71936c0,0 1.79088,-13.31796 -11.07643,-26.42661c-11.28726,-4.61527 -17.94407,-18.47445 -17.94407,-18.47445c0,0 -4.05048,6.82326 -13.8484,9.89544c-11.22511,3.51968 -14.89569,10.20087 -14.89569,10.20087c0,0 -1.27795,-9.55265 -4.54431,-14.49368c-1.71722,-3.06672 -5.16121,-6.90409 -5.16121,-6.90409c0,0 -5.69726,5.00319 -9.64807,7.30831c-11.82336,3.32139 -20.57264,11.61365 -20.57264,11.61365c0,0 -2.85132,-3.53663 -4.94386,-6.14582c-2.38523,-1.07916 -5.51709,-3.52021 -5.51709,-3.52021c0,0 -3.62323,5.01199 -10.16382,10.11865c-8.97383,6.08685 -9.76034,19.40134 -9.76034,19.40134c0,0 -7.5885,-24.13469 -2.43363,-41.44854c0.69084,-7.73463 0.98075,-9.13104 0.98075,-9.13104l-19.66208,5.14276c0,0 9.26082,-15.82044 12.21964,-35.06632c4.22234,-11.81081 23.31698,-19.99515 23.31698,-19.99515l-9.46553,-10.27106c0,0 11.65731,0.39465 24.95097,-5.48829c9.05264,-2.49567 16.16546,-0.75879 16.16546,-0.75879c0,0 -1.25792,-2.95745 -2.01364,-5.922c-0.7447,-2.92143 0.22277,-9.7919 0.22277,-9.7919c0,0 15.57606,6.16751 21.12038,8.22247c5.92621,2.1965 17.96115,5.15103 17.96115,5.15103c0,0 36.47652,2.21084 57.14084,20.27617c26.55359,16.87718 47.14033,19.72719 47.14033,19.72719c0,0 -10.79203,10.83119 -16.60649,14.2785c-4.68447,2.77733 -15.62861,4.83313 -15.62861,4.83313c0,0 8.89196,11.26301 10.62314,16.82258c3.76395,13.77223 1.63373,23.61672 1.63373,23.61672l-18.2516,-5.95991c0,0 -0.98944,12.31481 -3.73404,16.46973z" data-paper-data="{&quot;index&quot;:null}" fill="#5c4e89" stroke="#000000" stroke-linecap="round"/><path d="M266.44733,119.33929l-12.33702,-15.81683l-28.16582,15.42815l-12.39301,-6.61378c0,0 -6.28731,4.66835 -10.89953,10.52725c-6.67904,8.4845 -8.65236,17.29703 -8.65236,17.29703c0,0 -2.77859,-16.37189 -1.98912,-25.91569c0.76717,-9.2741 1.35926,-20.052 1.35926,-20.052l-16.45852,4.09266c0,0 9.52762,-15.97296 11.96169,-34.18122c6.43432,-8.10858 24.48811,-17.03065 24.48811,-17.03065l-10.85445,-9.16565c0,0 9.40828,-0.31215 19.09846,-3.20198c9.90384,-3.55742 19.89995,-1.9723 19.89995,-1.9723l-1.27277,-13.40728l43.14093,13.23985c0,0 34.33829,3.90787 49.6772,20.80732c5.71148,6.29249 35.59897,19.92629 35.59897,19.92629c0,0 -16.73772,10.47096 -22.68349,12.00159c-1.13888,0.29321 7.65914,9.59049 11.18292,18.86926c3.90054,10.27098 2.63252,20.60699 2.63252,20.60699c0,0 -20.86235,-8.85374 -20.60697,-6.02372c0.25848,2.86363 -0.4737,10.35819 -3.09673,16.12738c-3.55471,7.8184 -9.35007,13.85467 -9.35007,13.85467c0,0 -6.23954,-12.60093 -12.33005,-21.54758c-2.87821,-4.22792 -7.48493,-4.70817 -9.35735,-6.82518c-5.35296,-6.05219 -12.26568,-17.22234 -12.26568,-17.22234z" data-paper-data="{&quot;index&quot;:null}" fill="#4e4274" stroke="#000000" stroke-linecap="round"/><path d="M275.74606,97.62451c2.93716,0.13151 4.95421,8.36652 4.50515,18.39343c-0.27415,6.12158 -1.4041,11.49578 -2.91107,14.72356c-1.71859,0.57565 -3.5053,0.76088 -5.18655,1.40522c-1.55275,-2.21014 -2.46002,-6.59235 -2.588,-12.57859c-0.02771,-1.29714 -0.0127,-2.64481 0.04918,-4.02652c0.44905,-10.02688 3.19412,-18.04865 6.1313,-17.91712z" data-paper-data="{&quot;index&quot;:null}" fill="#d0beef" stroke="#000000" stroke-linecap="butt"/><path d="M244.61392,93.29346c2.93284,0.20661 4.73861,8.49049 4.03328,18.50261c-0.70535,10.01211 -3.65466,17.96103 -6.58749,17.75443c-2.93277,-0.20661 -4.73856,-8.49053 -4.03325,-18.50265c0.70536,-10.01212 3.65462,-17.96105 6.58746,-17.75443z" data-paper-data="{&quot;index&quot;:null}" fill="#d0beef" stroke="#000000" stroke-linecap="butt"/><path d="M302.64917,99.03171l-35.17985,2.28389l1.16782,-3.37052l33.12623,-4.21163z" data-paper-data="{&quot;index&quot;:null}" fill="#000000" stroke="#000000" stroke-linecap="round"/><path d="M269.27488,133.23688c0,0 3.6327,-1.42729 5.42246,-1.90522c1.94211,-0.51861 6.3381,-0.69874 6.3381,-0.69874" fill="none" stroke="#000000" stroke-linecap="round"/><path d="M228.42891,84.58715l32.06643,12.22206l0.37955,2.63007l-34.38122,-9.72142z" data-paper-data="{&quot;index&quot;:null}" fill="#000000" stroke="#000000" stroke-linecap="round"/><g stroke="#000000"><path d="M264.94742,21.85845c0,0 -81.3619,51.11797 -86.8559,53.45736c-5.494,2.33938 -15.19287,-37.11436 7.43596,-53.75957c36.55137,-28.80321 79.41994,0.30221 79.41994,0.30221z" fill="#8672c9" stroke-linecap="round"/><path d="M194.76493,86.0488c-12.4654,5.73176 -20.53003,-9.07997 -16.85708,-13.7425c5.22233,-6.62936 46.28564,-37.64827 81.1707,-51.66428c8.30732,-3.33767 15.79212,9.66476 8.76765,16.80861c-7.02448,7.14386 -62.04107,43.52173 -73.08127,48.59816z" fill="#69599c" stroke-linecap="butt"/><path d="M186.97006,86.58439c0,0 -2.79256,-3.80218 -4.77493,-7.73936c-1.78564,-3.54647 -2.20766,-7.60202 -2.20766,-7.60202" fill="none" stroke-linecap="round"/><path d="M194.87982,85.71532c0,0 -4.53858,-5.05124 -6.89121,-9.71216c-1.73113,-3.4296 -3.11173,-8.91358 -3.11173,-8.91358" fill="none" stroke-linecap="round"/><path d="M202.04156,81.33052c0,0 -4.27639,-5.93072 -6.57815,-10.23172c-2.58347,-4.82738 -3.96349,-9.96029 -3.96349,-9.96029" fill="none" stroke-linecap="round"/><path d="M209.86288,77.56725c0,0 -3.28828,-4.37157 -6.68829,-10.52052c-2.13046,-3.85295 -4.58268,-10.94287 -4.58268,-10.94287" fill="none" stroke-linecap="round"/><path d="M217.78719,72.00282c0,0 -4.4613,-5.75494 -6.90635,-10.55058c-2.46514,-4.83508 -4.15612,-10.35129 -4.15612,-10.35129" fill="none" stroke-linecap="round"/><path d="M225.78129,67.08822c0,0 -4.48708,-6.8425 -6.5324,-10.41341c-2.05854,-3.59401 -5.77941,-11.08177 -5.77941,-11.08177" fill="none" stroke-linecap="round"/><path d="M222.1572,40.23698c0,0 3.73667,5.85752 5.59597,9.11906c2.12279,3.72377 6.45542,12.02118 6.45542,12.02118" fill="none" stroke-linecap="round"/><path d="M232.52747,34.67779c0,0 4.30046,7.69325 5.98406,11.31007c1.46422,3.14556 3.55163,9.1751 3.55163,9.1751" fill="none" stroke-linecap="round"/><path d="M240.9207,30.02982c0,0 3.9874,6.33841 5.71411,9.70463c1.74079,3.39367 4.68879,10.57567 4.68879,10.57567" fill="none" stroke-linecap="round"/><path d="M250.11139,24.52715c0,0 3.55598,5.04346 5.01039,8.05229c1.66159,3.43742 4.42064,11.45815 4.42064,11.45815" fill="none" stroke-linecap="round"/><path d="M258.24502,20.91221c0,0 3.84298,4.73919 5.30605,7.49135c1.56358,2.94121 3.79395,9.6264 3.79395,9.6264" fill="none" stroke-linecap="round"/><g fill="#69599c" stroke-linecap="butt"><path d="M176.35161,23.06238c-4.62054,-4.17704 -4.38915,-11.34997 0.51683,-16.02118c4.90599,-4.67122 12.62874,-5.07185 17.24929,-0.89481c4.62054,4.17704 4.38915,11.34998 -0.51683,16.0212c-4.90599,4.67122 -12.62874,5.07185 -17.24929,0.89481z"/><path d="M192.91484,15.62307c-1.56713,-1.41671 -1.48819,-3.84997 0.17632,-5.43483c1.6645,-1.58487 4.28428,-1.72118 5.85141,-0.30448c1.56713,1.41671 1.48819,3.84998 -0.17632,5.43484c-1.6645,1.58487 -4.28428,1.72118 -5.85141,0.30448z"/><path d="M189.7584,23.12931c-1.42466,-1.28792 -1.25522,-3.59298 0.37847,-5.14851c1.6337,-1.55551 4.11298,-1.77244 5.53766,-0.48452c1.42466,1.28792 1.25522,3.59297 -0.37848,5.14849c-1.6337,1.55551 -4.11298,1.77247 -5.53764,0.48454z"/><path d="M187.34015,18.24964c2.36494,2.13795 2.45799,5.60793 0.2078,7.75045c-2.25018,2.14251 -5.99148,2.14621 -8.35643,0.00825c-2.36494,-2.13795 -2.45799,-5.60793 -0.2078,-7.75045c2.25018,-2.14251 5.99148,-2.14619 8.35642,-0.00825z"/><path d="M179.32093,15.35126c1.7381,1.57126 1.80648,4.12149 0.15273,5.6961c-1.65375,1.57462 -4.40337,1.57732 -6.14146,0.00607c-1.73808,-1.57126 -1.80648,-4.12149 -0.15273,-5.6961c1.65375,-1.57462 4.40337,-1.57733 6.14146,-0.00607z"/><path d="M187.86917,13.34085c-2.36494,-2.13795 -2.45798,-5.60793 -0.20779,-7.75043c2.25018,-2.14251 5.99146,-2.14621 8.35642,-0.00825c2.36494,2.13795 2.45798,5.60794 0.2078,7.75045c-2.25018,2.14251 -5.99148,2.14619 -8.35642,0.00825z" data-paper-data="{&quot;index&quot;:null}"/><path d="M182.80662,11.45776c-2.36494,-2.13795 -2.45799,-5.60793 -0.2078,-7.75043c2.25018,-2.14251 5.99148,-2.14621 8.35643,-0.00826c2.36494,2.13795 2.45798,5.60793 0.20779,7.75045c-2.25018,2.14251 -5.99146,2.14621 -8.35642,0.00825z" data-paper-data="{&quot;index&quot;:null}"/><path d="M178.4767,12.51609c-2.36494,-2.13795 -2.45798,-5.60793 -0.20779,-7.75045c2.25018,-2.14251 5.99146,-2.14619 8.35642,-0.00825c2.36494,2.13795 2.45799,5.60793 0.2078,7.75045c-2.25018,2.14251 -5.99148,2.14621 -8.35643,0.00825z" data-paper-data="{&quot;index&quot;:null}"/><path d="M174.98256,16.60913c-2.36494,-2.13795 -2.45798,-5.60793 -0.20779,-7.75045c2.25018,-2.14251 5.99146,-2.14619 8.35642,-0.00825c2.36494,2.13795 2.45798,5.60793 0.2078,7.75045c-2.25018,2.14251 -5.99148,2.14619 -8.35642,0.00825z" data-paper-data="{&quot;index&quot;:null}"/><path d="M173.56708,19.68062c-2.36494,-2.13795 -2.45798,-5.60793 -0.20779,-7.75045c2.25018,-2.14251 5.99146,-2.14621 8.3564,-0.00825c2.36494,2.13795 2.45799,5.60793 0.2078,7.75045c-2.25018,2.14251 -5.99148,2.14621 -8.35643,0.00826z" data-paper-data="{&quot;index&quot;:null}"/><path d="M175.20302,24.06024c-2.36494,-2.13795 -2.45799,-5.60794 -0.2078,-7.75045c2.25018,-2.14251 5.99146,-2.14619 8.35642,-0.00825c2.36494,2.13795 2.45799,5.60794 0.2078,7.75045c-2.25018,2.14251 -5.99148,2.14619 -8.35642,0.00825z" data-paper-data="{&quot;index&quot;:null}"/><path d="M181.79455,25.25361c-2.36494,-2.13795 -2.45798,-5.60793 -0.20779,-7.75045c2.25018,-2.14251 5.99146,-2.14619 8.3564,-0.00825c2.36494,2.13795 2.45799,5.60794 0.2078,7.75045c-2.25018,2.14251 -5.99148,2.14619 -8.35642,0.00825z" data-paper-data="{&quot;index&quot;:null}"/><path d="M188.57835,19.369c-2.36494,-2.13795 -2.45799,-5.60793 -0.2078,-7.75045c2.25018,-2.14251 5.99148,-2.14619 8.35642,-0.00825c2.36494,2.13795 2.45798,5.60793 0.20779,7.75045c-2.25018,2.14251 -5.99146,2.14619 -8.35642,0.00825z" data-paper-data="{&quot;index&quot;:null}"/><path d="M176.6169,22.72666c-4.48184,-4.05165 -4.25739,-11.00924 0.50131,-15.54024c4.7587,-4.531 12.24965,-4.9196 16.73148,-0.86795c4.48184,4.05165 4.25739,11.00924 -0.50131,15.54024c-4.7587,4.531 -12.24965,4.9196 -16.73148,0.86795z"/></g></g></g><path d="M247.62518,156.60677c0,0 2.16727,-1.40174 7.4547,-1.32177c4.91408,0.07432 8.71758,2.19595 8.71758,2.19595" fill="none" stroke="#000000" stroke-width="1.5" stroke-linecap="round"/></g></g></svg>