<svg version="1.1" xmlns="http://www.w3.org/2000/svg" xmlns:xlink="http://www.w3.org/1999/xlink" width="203.65188" height="182.26781" viewBox="0,0,203.65188,182.26781"><defs><linearGradient x1="-37.33033" y1="82.0455" x2="153.78616" y2="82.0455" gradientUnits="userSpaceOnUse" id="color-1"><stop offset="0" stop-color="#4f4f4f"/><stop offset="1" stop-color="#9c9c9c"/></linearGradient></defs><g transform="translate(45.17278,12.0644)"><g data-paper-data="{&quot;isPaintingLayer&quot;:true}" fill-rule="nonzero" stroke-linejoin="miter" stroke-miterlimit="10" stroke-dasharray="" stroke-dashoffset="0" style="mix-blend-mode: normal"><path d="M-26.78169,123.73073l-10.54864,-120.80001l191.11649,-3.72305l-16.13321,165.67566z" fill="url(#color-1)" stroke="#000000" stroke-width="8.5" stroke-linecap="butt"/><path d="M70.81173,143.62397c0,0 12.83061,-9.33921 16.10873,6.86603c-5.67701,-1.74051 -11.35401,-3.48102 -17.03101,-5.22154z" data-paper-data="{&quot;index&quot;:null}" fill="#000000" stroke="#000000" stroke-width="0" stroke-linecap="butt"/><path d="M62.54736,32.66592c20.59099,-0.15158 26.13882,-16.9095 51.86591,-2.71121c5.25691,2.9012 11.52716,4.13137 15.47178,7.29368c13.19008,10.57416 17.52971,22.99536 17.52971,22.99536c0,0 -6.08165,-3.86632 -11.60831,2.18406c-1.28311,1.4047 -2.4244,2.63447 -3.43722,3.70583c1.24414,2.46686 1.94617,5.5292 2.45711,7.56798c1.57301,6.27645 0.94173,14.4485 2.16282,19.01022c2.20249,8.22801 5.7302,10.58649 5.7302,10.58649c0,0 -3.6585,0.93279 -8.01636,1.37616c1.17726,1.79334 1.64844,4.16946 -0.03297,7.73158c-5.73913,12.15852 -0.93725,28.05494 -0.93725,28.05494c0,0 -8.2464,-1.40391 -12.31575,-3.99367c-1.2045,3.75743 -3.36843,9.17562 -9.89198,15.79325c-0.73691,1.83509 -1.47229,3.53553 -2.19072,5.10129c-10.65601,-3.26703 -21.31204,-6.53406 -31.96804,-9.8011c-0.0072,-0.03513 -0.01107,-0.05366 -0.01107,-0.05366l-1.12533,-0.29475c-10.99206,-3.37006 -21.98411,-6.74012 -32.97617,-10.11017c-11.66715,-3.57703 -23.42955,-6.94625 -35.07832,-10.61418c0.56739,-0.43498 0.8125,-0.63166 0.39039,-0.33259c-0.21319,0.15105 -0.37596,0.24822 -0.49533,0.29954c-0.08925,-0.02812 -0.17849,-0.05625 -0.26773,-0.08441c0.04459,-0.71668 2.76991,-4.17572 2.76991,-4.17572c0,0 -19.98249,1.21871 -17.66958,-8.23524c2.72024,-11.11887 11.92334,-36.56225 11.92334,-36.56225l6.67064,-4.86774c0,0 -5.48174,-5.33375 -8.2594,-10.41039c-2.6411,1.39857 -4.7711,2.02688 -5.74161,1.20341c-3.36005,-2.85098 -3.96967,-3.14024 -9.87139,-12.8663c-3.08223,-9.8365 -12.94217,-1.96661 -12.94217,-1.96661c0,0 3.67157,-18.97212 15.94577,-21.67985c2.95472,-0.65182 6.87288,4.03767 10.10444,4.39276c5.05297,1.10905 6.32645,-0.34342 9.47022,-0.10873c5.9767,0.44618 13.80553,-1.86875 19.71357,0.48586c3.42291,0.6022 16.81497,1.20255 32.63092,1.08614z" data-paper-data="{&quot;index&quot;:null}" fill="#000000" stroke="#000000" stroke-width="0" stroke-linecap="butt"/><path d="M-23.7115,56.3052c8.24627,-23.5564 28.99886,-23.52413 40.5958,-28.48678c7.96179,-3.40708 22.2107,2.53652 30.51752,1.12911c17.15663,0.86168 53.51119,9.76294 53.51119,9.76294c0,0 14.28039,3.68724 20.65496,7.29665c7.23365,4.09583 -8.77039,19.14313 -8.77039,19.14313l6.90776,5.08516c0,0 9.14323,26.47282 11.77141,38.03614c2.23464,9.83183 -18.73443,8.48234 -18.73443,8.48234c0,0 4.63813,5.98932 2.02664,4.12324c-1.53987,-1.10032 5.48492,4.22015 5.48492,4.22015c0,0 -3.93648,-0.76855 -7.35564,-0.23334c0.05062,-0.04262 0.07797,-0.06584 0.07797,-0.06584c0,0 -0.0398,0.02493 -0.11558,0.07178c-1.74412,0.27821 -3.34907,0.89843 -4.2217,2.13662c-0.13094,0.1858 -0.23752,0.34714 -0.32188,0.48601c-2.68988,1.45727 -6.04028,3.09698 -8.62091,3.78819c-5.12317,1.37222 -7.68776,-1.18198 -7.68776,-1.18198l-39.17574,9.94029c-3.19298,-0.97894 -6.38595,-1.95786 -9.57893,-2.9368c-14.39428,-4.41314 -28.93356,-8.50997 -43.22551,-13.24169c-2.54833,-0.84369 -4.92932,-2.11033 -7.3303,-3.32675c-0.31099,-2.89973 -0.30152,-5.77362 -0.14252,-8.35069c-3.1305,0.50012 -9.11808,0.0979 -9.11808,0.0979c0,0 8.15805,-8.85856 4.74355,-21.33226c-0.17001,-0.62107 -0.29833,-1.23447 -0.38979,-1.83843c-1.39228,3.55434 -2.42147,6.40861 -2.42147,6.40861c0,0 -1.26967,-3.31237 -2.56094,-8.07281c-2.36592,7.34057 -2.30939,12.13166 -2.30919,12.14827c-0.01305,-0.02996 -10.73335,-24.6572 -4.21095,-43.28917z" data-paper-data="{&quot;index&quot;:null}" fill="#000000" stroke="#000000" stroke-width="0" stroke-linecap="butt"/><path d="M108.31705,127.49251c2.27716,-1.23368 4.08094,-2.3366 4.54357,-2.62262c0.01253,-0.002 0.02507,-0.00398 0.03761,-0.00594c-0.71409,0.60118 -6.05907,5.0617 -4.58118,2.62857z" data-paper-data="{&quot;index&quot;:null}" fill="#000000" stroke="#000000" stroke-width="0" stroke-linecap="butt"/><path d="M-19.50055,99.59442c0,0 0,-0.00002 0,-0.00005c0.00001,0.00002 0.00001,0.00003 0.00001,0.00003z" data-paper-data="{&quot;index&quot;:null}" fill="#000000" stroke="#000000" stroke-width="0" stroke-linecap="butt"/><path d="M79.89049,124.7438c1.93158,0.14189 4.62393,0.60936 4.37129,3.49357c-0.25261,2.8842 -3.35454,7.09292 -5.28615,6.95106c-1.9316,-0.14187 -5.59043,-2.88827 -5.3378,-5.77248c0.25261,-2.88421 4.32103,-4.81399 6.25265,-4.67213z" data-paper-data="{&quot;index&quot;:null}" fill="none" stroke="#ba8e21" stroke-width="0" stroke-linecap="butt"/><path d="M37.03887,128.39843c0.58423,-0.67953 -1.16898,1.98735 19.79531,3.37725c11.00199,0.72941 10.38807,-2.55678 13.92254,-0.65094c0.6008,0.32396 12.06666,11.31863 -4.59503,13.00082c-7.63599,-2.34112 -15.27198,-4.68223 -22.90797,-7.02335c-3.58165,-1.0981 -7.17227,-2.17662 -10.76583,-3.2502c0.99733,-2.99726 4.55098,-5.45358 4.55098,-5.45358z" data-paper-data="{&quot;index&quot;:null}" fill="#3c3c3c" stroke="#000000" stroke-width="0" stroke-linecap="butt"/><path d="M30.94418,123.34991c1.91498,0.20873 4.6387,2.64891 4.77541,5.2833c0.13671,2.63439 -2.433,4.9956 -4.34797,4.78685c-1.91495,-0.20874 -6.15802,-4.81876 -6.29472,-7.45315c-0.13673,-2.63434 3.95231,-2.8257 5.8673,-2.61695z" data-paper-data="{&quot;index&quot;:null}" fill="none" stroke="#ba8e21" stroke-width="0" stroke-linecap="butt"/><path d="M55.46402,36.62456c28.6561,-1.99363 53.27173,17.45194 54.98057,43.43282c1.7088,25.98085 -20.13627,48.65869 -48.79237,50.65228c-28.6561,1.99359 -53.2717,-17.45195 -54.98055,-43.43284c-1.70882,-25.98085 20.13623,-48.65869 48.79234,-50.6523z" data-paper-data="{&quot;index&quot;:null}" fill="#453312" stroke="#000000" stroke-width="0" stroke-linecap="butt"/><path d="M63.40338,75.72116" data-paper-data="{&quot;index&quot;:null}" fill="none" stroke="#000000" stroke-width="0" stroke-linecap="round"/><path d="M55.38829,30.83122c31.04038,-2.13692 57.71247,18.82335 59.57373,46.81607c1.86123,27.99275 -21.79315,52.41762 -52.83356,54.55455c-31.04041,2.13692 -57.71246,-18.82331 -59.57371,-46.81606c-1.86124,-27.99272 21.79314,-52.41763 52.83355,-54.55456z" data-paper-data="{&quot;index&quot;:null}" fill="#767676" stroke="#000000" stroke-width="0" stroke-linecap="butt"/><path d="M55.07378,34.93086c28.40473,-2.22043 54.03376,17.82885 55.57668,44.57286c0.42368,7.34377 -1.86799,14.51198 -4.15714,20.99447c-2.99838,8.49091 -7.97231,15.91065 -15.57087,20.72002c-7.72667,4.89046 -18.57328,10.23623 -31.46103,10.95761c-13.97181,1.09217 -26.51781,-5.65497 -36.0847,-12.77147c-0.45384,-0.33759 -0.90006,-0.4555 -1.3385,-0.80874c-9.10877,-7.33874 -14.85407,-18.25501 -15.60205,-31.22004c-1.54291,-26.74401 20.2329,-50.22431 48.63767,-52.44475z" data-paper-data="{&quot;index&quot;:null}" fill="#616161" stroke="#000000" stroke-width="0" stroke-linecap="butt"/><path d="M20.19431,95.30505c1.0405,-8.1509 9.25126,-13.81806 18.33927,-12.65794c5.97146,0.76228 8.83631,-1.63765 12.46769,2.07521c2.3699,2.42309 4.49493,11.52988 4.13812,14.32507c-1.0405,8.1509 -7.17872,18.93139 -21.30035,15.87252c-8.9541,-1.93954 -14.68521,-11.46395 -13.64471,-19.61486z" data-paper-data="{&quot;index&quot;:null}" fill="#c3c3c3" stroke="#000000" stroke-width="0" stroke-linecap="butt"/><path d="M54.3253,118.05531c0.05281,-0.78672 1.28502,-1.34647 2.75225,-1.25021c1.46719,0.09626 2.61382,0.81207 2.561,1.5988c-0.0528,0.78673 -1.23845,0.65258 -2.70567,0.55631c-1.46722,-0.09625 -2.66039,-0.11817 -2.60758,-0.9049z" data-paper-data="{&quot;index&quot;:null}" fill="#000000" stroke="#000000" stroke-width="0" stroke-linecap="butt"/><path d="M52.95922,78.17226" data-paper-data="{&quot;index&quot;:null}" fill="none" stroke="#000000" stroke-width="0" stroke-linecap="round"/><path d="M80.43053,85.12134c9.08801,1.16011 15.61182,8.70819 14.57132,16.85909c-1.04049,8.1509 -9.04667,16.71823 -18.13468,15.55811c-9.08801,-1.16011 -15.81641,-11.60836 -14.77591,-19.75927c0.35682,-2.79518 2.84745,-12.03127 5.75008,-13.78132c4.44764,-2.68155 6.61773,0.3611 12.58919,1.12338z" data-paper-data="{&quot;index&quot;:null}" fill="#c3c3c3" stroke="#000000" stroke-width="0" stroke-linecap="butt"/><path d="M23.44255,99.3798c0,0 -1.25753,-0.3895 -1.98293,-0.12975c-1.38527,0.49605 -2.66958,2.19716 -2.66958,2.19716c0,0 -0.03483,-0.94754 0.36799,-3.22624c0.12085,-0.68363 1.08107,-2.75064 1.08107,-2.75064c0,0 -1.89481,-0.18562 -2.71834,-0.92138c-0.993,-0.88717 -2.82689,-4.03297 -2.82689,-4.03297c0,0 3.34081,2.03603 4.99407,1.86356c2.81273,-0.29339 3.98557,0.43254 3.98557,0.43254" data-paper-data="{&quot;index&quot;:null}" fill="#000000" stroke="#000000" stroke-width="0" stroke-linecap="round"/><path d="M62.62928,96.66792c-0.08696,-4.09887 3.07315,-7.02332 3.94965,-6.94668c0.87646,0.07665 3.802,0.24949 3.88895,4.34837c0.08696,4.09889 -1.49789,11.09534 -3.90001,11.17194c-3.28456,-0.38406 -4.10988,-7.14228 -4.19684,-11.24117z" data-paper-data="{&quot;index&quot;:null}" fill="#000000" stroke="#000000" stroke-width="0" stroke-linecap="butt"/><path d="M78.71952,80.88979c8.94286,1.30024 14.17665,7.33754 15.98563,13.01982c1.89428,5.95022 -0.84966,12.29662 -0.84966,12.29662c0,0 -7.60594,-3.98698 -15.13943,-5.6756c-5.73958,-2.13849 -16.86494,-3.77455 -16.86494,-3.77455c0,0 1.03196,-18.16875 16.86843,-15.86627z" data-paper-data="{&quot;index&quot;:null}" fill="#000000" stroke="#000000" stroke-width="0" stroke-linecap="round"/><path d="M90.77585,99.88675c0,0 1.36929,-0.56635 4.35751,0.09195c0.6513,0.14347 0.47111,0.88105 1.31722,1.60725c1.43562,1.23218 3.99064,0.67603 3.99064,0.67603c0,0 -6.17157,4.42974 -7.37049,5.17943c-0.99428,0.62175 1.01958,-4.47102 1.01958,-4.47102c0,0 0.27918,1.26403 0.31005,1.95743c0.03621,0.81309 0.43683,1.58723 0.35092,2.24922c-0.15831,1.21983 -0.87834,2.05884 -0.87834,2.05884c0,0 -0.51527,-1.80013 -1.93589,-2.47282c-0.74392,-0.35225 -3.01136,-3.34448 -3.01136,-3.34448" data-paper-data="{&quot;index&quot;:null}" fill="#000000" stroke="#000000" stroke-width="0" stroke-linecap="round"/><path d="M53.86746,105.09441c0,0 1.50992,-1.7111 5.42795,-1.29579c4.09358,0.071 4.9658,2.04917 4.9658,2.04917l0.97359,3.11696c0,0 -1.72602,-2.37867 -5.81957,-2.44968c-4.24507,-0.66908 -6.95354,1.50271 -6.95354,1.50271z" data-paper-data="{&quot;index&quot;:null}" fill="#c3c3c3" stroke="#6c5313" stroke-width="0" stroke-linecap="round"/><g data-paper-data="{&quot;index&quot;:null}" stroke-width="0" stroke-linecap="round"><g><path d="" data-paper-data="{&quot;index&quot;:null}" fill="#000000" stroke="#000000"/><path d="" data-paper-data="{&quot;index&quot;:null}" fill="#000000" stroke="#000000"/><path d="M2.3713,33.48037l-7.92195,1.87104" data-paper-data="{&quot;index&quot;:null}" fill="none" stroke="#b98f21"/></g><g fill="#000000" stroke="#000000"><path d="M-1.0604,31.04122c0,0 -11.4916,-18.93875 -5.97276,-27.07488c3.63471,-5.35849 124.07731,-28.86797 119.76772,-6.64464c3.40706,3.60802 -4.36598,23.41923 -4.36598,23.41923z"/><path d="M7.74212,27.54926c1.59915,-0.4379 3.59966,-0.84834 6.07268,-1.21914c35.27265,-5.28912 89.03094,-19.39872 104.97686,-14.21561c8.44267,2.28956 -5.09237,21.88519 -5.09237,21.88519l-116.40956,3.36043c0,0 -13.00903,-7.11712 0.95726,-10.94189z"/></g></g><path d="M39.51789,102.68693c-2.42225,-0.05465 -3.11024,-5.99142 -3.37026,-9.75623c1.45207,0.21054 3.18092,1.70625 4.58027,1.92002c1.014,0.1549 2.3845,-2.54099 3.403,-2.46603c-0.24131,2.88513 -1.91728,9.97736 -4.613,10.30223z" data-paper-data="{&quot;index&quot;:null}" fill="#000000" stroke="#000000" stroke-width="0" stroke-linecap="butt"/><path d="M25.24522,95.68482c0,0 -3.48671,3.52625 -4.71787,7.77102c-1.71924,5.92754 5.80487,12.25099 5.80487,12.25099c0,0 -12.11178,0.59366 -17.18245,-4.38958c-5.94554,-5.84304 -1.31321,-5.88159 -1.31321,-5.88159c0,0 -3.37231,-0.27236 -7.83516,4.83016c-2.5331,2.89617 -4.91604,10.62785 -4.91604,10.62785c0,0 -6.21293,-10.42952 -5.89357,-14.95697c0.60604,-8.59187 7.78455,-11.55446 7.78455,-11.55446c0,0 -4.04261,-1.08842 -6.16764,-0.65802c-2.22625,0.45091 -7.14789,1.6835 -7.14789,1.6835c0,0 0.16716,-8.42565 7.13074,-12.72019c7.88985,-4.8658 19.55206,-3.54172 19.55206,-3.54172" data-paper-data="{&quot;index&quot;:null}" fill="#000000" stroke="#000000" stroke-width="0" stroke-linecap="round"/><path d="M38.81517,125.41538c-0.063,0.49349 -0.51932,0.84183 -1.01923,0.77802c-0.4999,-0.06382 -0.85409,-0.51561 -0.7911,-1.00911c0.063,-0.49349 0.51933,-0.84182 1.01924,-0.77801c0.4999,0.06382 0.85409,0.51561 0.7911,1.0091z" data-paper-data="{&quot;index&quot;:null}" fill="#000000" stroke="none" stroke-width="0" stroke-linecap="butt"/><path d="M50.02508,55.43235c0,0 13.25637,3.07846 20.73133,10.77513c6.59741,6.79306 4.59856,15.06548 4.59856,15.06548c0,0 -5.99141,4.88495 -7.29311,4.12249c-1.67301,-0.97996 1.13549,-7.72433 -0.18516,-8.44044c-2.24139,-1.21541 2.89067,2.46738 2.89067,2.46738c0,0 -2.7098,1.43912 -4.26575,10.03793c-0.8199,4.5311 -13.76456,13.37398 -13.76456,13.37398c0,0 1.97535,-9.17088 -0.07878,-12.94175c-3.61899,-6.64357 -5.71591,-15.52133 -5.71591,-15.52133c0,0 4.97992,1.28848 -3.1179,4.75466c-2.7468,1.17574 -7.30591,2.65108 -10.38665,2.33144c-4.66512,-0.48401 -7.45874,-3.29099 -7.45874,-3.29099c0,0 12.73687,-4.98794 12.36962,-11.40766c-0.26299,-4.59722 -1.95319,-13.12403 -1.95319,-13.12403" data-paper-data="{&quot;index&quot;:null}" fill="#000000" stroke="#000000" stroke-width="0" stroke-linecap="round"/><path d="M117.24467,107.23596c0,0 -13.05746,-7.83799 -19.9429,-12.10024c-8.20598,-5.07973 -27.90451,-17.75219 -27.90451,-17.75219c0,0 -17.96499,7.27657 -26.99145,10.65395c-0.8976,0.33586 -3.39351,1.61319 -6.60486,3.37622c-4.49688,2.46879 -10.39661,5.88996 -15.27498,9.012c-5.8384,3.73642 -8.82154,8.25328 -12.07644,5.08243c-15.33226,-2.41779 -16.03915,-14.26209 -16.03915,-14.26209c0,0 -3.15332,-8.69149 2.6411,-15.4686c0.61307,-0.71702 2.00092,-7.5955 2.443,-8.49583c5.17428,-10.53744 9.14196,-27.65186 9.14196,-27.65186c0,0 51.08158,-6.04746 65.12422,-6.99582c15.2797,3.51304 28.51339,6.75921 35.30506,15.39686c20.1767,25.66081 6.81034,68.85 6.81034,68.85z" data-paper-data="{&quot;index&quot;:null}" fill="#000000" stroke="#000000" stroke-width="0" stroke-linecap="round"/><path d="M22.88997,108.53155c0,0 -7.02392,5.03923 -24.97299,5.16697c-3.47853,0.02475 -6.14749,2.48701 -8.09921,5.43809c-2.96707,-1.36942 -5.93414,-2.73884 -8.90121,-4.10826c-0.92521,-4.97472 -1.44952,-11.13139 -0.84507,-18.25329c2.46386,-14.36601 13.53267,-29.84545 13.53267,-29.84545z" data-paper-data="{&quot;index&quot;:null}" fill="#000000" stroke="#000000" stroke-width="0" stroke-linecap="butt"/><path d="M-14.43544,129.13951c0,0 -0.50007,-0.86141 -1.20531,-2.49642c0.56299,0.25984 1.12599,0.51969 1.68898,0.77953c-0.32679,1.05278 -0.48366,1.71689 -0.48366,1.71689z" data-paper-data="{&quot;index&quot;:null}" fill="#000000" stroke="#000000" stroke-width="0" stroke-linecap="butt"/><path d="M9.93628,115.93917c0,0 2.99517,6.14957 -0.63719,10.90167c-3.09916,-0.97029 -6.19078,-1.96056 -9.27089,-2.98031c-3.43085,-1.13587 -6.55837,-3.03835 -9.83974,-4.55282c-0.23801,-0.10986 -0.47603,-0.21971 -0.71405,-0.32956c-0.28253,-17.81242 1.77603,-26.35144 1.77603,-26.35144z" data-paper-data="{&quot;index&quot;:null}" fill="#000000" stroke="#000000" stroke-width="0" stroke-linecap="butt"/><path d="M19.80099,128.69469c0,0 0.28564,0.58645 0.57351,1.53708c-3.96863,-1.19417 -8.93256,0.59758 -12.88363,-0.64449c-2.82848,-0.88917 -4.65037,-4.79568 -7.46268,-5.72677c-0.22004,-0.07286 -0.43885,-0.14887 -0.65653,-0.22772c0.31113,-12.30914 1.74349,-18.2506 1.74349,-18.2506z" data-paper-data="{&quot;index&quot;:null}" fill="#000000" stroke="#000000" stroke-width="0" stroke-linecap="butt"/><path d="M106.11672,56.17307c0,0 18.92374,-1.19483 29.74501,4.94116c10.00072,5.67072 17.23404,24.79635 17.23404,24.79635c0,0 -8.13633,-3.20824 -13.75505,3.46031c-11.56566,13.72666 -19.92983,15.91068 -19.92983,15.91068z" data-paper-data="{&quot;index&quot;:null}" fill="#000000" stroke="#000000" stroke-width="0" stroke-linecap="round"/><path d="M71.1145,42.07455c0,0 3.99435,-5.91341 11.14172,-8.80877c6.7407,-2.73062 16.58766,-2.34114 18.79431,-5.83363c8.84488,-13.9989 38.02029,1.3296 38.02029,1.3296c0,0 -13.39185,0.2137 -14.99563,9.38718c-1.15603,3.95984 -1.28405,12.62736 -1.28405,12.62736" data-paper-data="{&quot;index&quot;:null}" fill="#000000" stroke="#000000" stroke-width="0" stroke-linecap="round"/><path d="M56.92755,132.66875c0,0 0.24066,3.56862 0.18209,5.39757c-0.02711,0.84651 -0.13556,2.08566 -0.2485,3.20779" data-paper-data="{&quot;index&quot;:null}" fill="none" stroke="#000000" stroke-width="0" stroke-linecap="round"/><path d="M61.08303,132.48069c0,0 0.43898,3.697 0.4838,5.61172c0.02821,1.20509 -0.04853,3.17636 -0.11611,4.58883" data-paper-data="{&quot;index&quot;:null}" fill="none" stroke="#000000" stroke-width="0" stroke-linecap="round"/><path d="M65.06176,132.27006c0,0 0.47429,3.42164 0.54096,5.28515c0.06212,1.73639 -0.04901,5.1622 -0.09228,6.37069" data-paper-data="{&quot;index&quot;:null}" fill="none" stroke="#000000" stroke-width="0" stroke-linecap="round"/><path d="M67.84834,131.54802c0,0 0.84328,3.23491 1.20698,4.98774c0.40937,1.97291 1.12843,6.26774 1.12843,6.26774" data-paper-data="{&quot;index&quot;:null}" fill="none" stroke="#000000" stroke-width="0" stroke-linecap="round"/><path d="M70.72146,131.55552c0,0 1.398,3.86822 1.82491,5.73794c0.4178,1.82986 0.70981,5.36335 0.70981,5.36335" data-paper-data="{&quot;index&quot;:null}" fill="none" stroke="#000000" stroke-width="0" stroke-linecap="round"/><path d="M52.20831,139.8476l0.40747,-7.00405" data-paper-data="{&quot;index&quot;:null}" fill="none" stroke="#000000" stroke-width="0" stroke-linecap="round"/><path d="M47.3884,138.36987l0.27843,-6.15807" data-paper-data="{&quot;index&quot;:null}" fill="none" stroke="#000000" stroke-width="0" stroke-linecap="round"/><path d="M43.82347,131.36192l-0.36342,5.80355" data-paper-data="{&quot;index&quot;:null}" fill="none" stroke="#000000" stroke-width="0" stroke-linecap="round"/><path d="M39.29043,135.89539l0.93414,-5.89102" data-paper-data="{&quot;index&quot;:null}" fill="none" stroke="#000000" stroke-width="0" stroke-linecap="round"/><path d="M37.21984,129.62079l-1.38272,5.23398" data-paper-data="{&quot;index&quot;:null}" fill="none" stroke="#000000" stroke-width="0" stroke-linecap="round"/><path d="M-15.24576,92.21815c0,0 -0.01615,3.34735 -7.00092,3.11387c-1.83859,12.10265 -15.00197,13.72439 -15.00197,13.72439c0,0 3.66249,-8.88396 1.00742,-22.89063c-2.98246,-15.73382 8.08391,-26.55353 8.08391,-26.55353z" data-paper-data="{&quot;index&quot;:null}" fill="#000000" stroke="#000000" stroke-width="0" stroke-linecap="round"/><path d="M123.15118,88.4777c0,0 -2.72065,5.62585 -8.38468,13.8792c-4.93533,5.30917 -9.34677,9.16894 -12.89068,11.62802c-4.29646,2.98127 -7.23591,3.9796 -7.23591,3.9796c0,0 2.90878,-3.61329 4.11056,-8.20701c0.53234,-2.03485 0.72975,-4.26208 0.19101,-6.45285c-2.14927,-7.26255 0.54216,-18.45664 0.54216,-18.45664z" data-paper-data="{&quot;index&quot;:null}" fill="#000000" stroke="#000000" stroke-width="0" stroke-linecap="round"/><path d="M77.17929,75.14732c0,0 -0.86059,6.18964 -3.71497,15.784c-3.06547,6.56868 -6.07768,11.59713 -8.69468,15.02608c-3.17271,4.15709 -5.66326,6.01023 -5.66326,6.01023c0,0 3.45213,-9.02031 -0.41048,-15.27241c-4.27662,-6.25096 -5.15458,-17.73054 -5.15458,-17.73054z" data-paper-data="{&quot;index&quot;:null}" fill="#000000" stroke="#000000" stroke-width="0" stroke-linecap="round"/><path d="M72.6042,71.11598c0,0 -0.86061,6.18962 -3.71498,15.78398c-3.06547,6.56868 -6.07769,11.59712 -8.69467,15.02607c-3.17271,4.15709 -5.66326,6.01024 -5.66326,6.01024c0,0 3.45213,-9.0203 -0.41049,-15.27241c-4.27663,-6.25096 -5.15458,-17.73055 -5.15458,-17.73055z" data-paper-data="{&quot;index&quot;:null}" fill="#000000" stroke="#000000" stroke-width="0" stroke-linecap="round"/><path d="M130.76069,122.58331c0,0 -0.8606,6.18962 -3.71498,15.78398c-3.06547,6.56868 -6.07769,11.59713 -8.69467,15.02608c-2.02995,2.65978 -3.78065,4.37639 -4.77845,5.26793c-0.19254,-0.05903 -0.38509,-0.11806 -0.57763,-0.17709c0.75115,-2.45218 2.40108,-9.30492 -0.71767,-14.353c-4.27663,-6.25097 -5.15458,-17.73055 -5.15458,-17.73055z" data-paper-data="{&quot;index&quot;:null}" fill="#000000" stroke="#000000" stroke-width="0" stroke-linecap="round"/><path d="M69.8643,62.57027c0,0 10.04033,-6.07882 19.24188,-4.95752c8.12128,0.98965 11.79593,8.57359 11.79593,8.57359c0,0 -4.98616,0.93809 -7.19701,1.4593c-2.11033,0.4975 -5.32756,3.17645 -5.32756,3.17645c0,0 7.75963,-0.31016 11.90247,7.2413c2.18305,3.97921 0.89988,16.05103 0.89988,16.05103c0,0 -5.39731,-6.02713 -8.90929,-7.59891c-6.18744,-2.76918 -9.13697,-1.11178 -9.13697,-1.11178c0,0 4.22412,-1.90179 1.26621,5.89188c-2.52266,6.64685 -13.77322,11.17159 -13.77322,11.17159c0,0 4.19103,-8.89009 0.15093,-13.55584c-2.89315,-3.34118 -7.53481,-5.08661 -7.53481,-5.08661" data-paper-data="{&quot;index&quot;:null}" fill="#000000" stroke="#000000" stroke-width="0" stroke-linecap="round"/><path d="M0.99334,106.81055c0,0 -0.9778,8.72605 -3.75929,15.95269c-2.38321,-1.06397 -4.67423,-2.36107 -7.04558,-3.45555c-3.67444,-1.6959 -7.34889,-3.39179 -11.02333,-5.08769c-1.3085,-7.6341 -1.63707,-12.2771 -1.63707,-12.2771z" data-paper-data="{&quot;index&quot;:null}" fill="#000000" stroke="#000000" stroke-width="0" stroke-linecap="butt"/><path d="M20.47712,97.63952c0,0 -2.71417,-18.76652 19.85346,-18.88749c14.30642,-0.14884 14.79258,18.52057 14.79258,18.52057c0,0 -12.57447,-1.64342 -18.22756,-0.56988c-8.01206,0.58646 -16.0191,3.6936 -16.0191,3.6936z" data-paper-data="{&quot;index&quot;:null}" fill="#000000" stroke="#000000" stroke-width="0" stroke-linecap="round"/><path d="M36.6871,76.17681c9.04944,-0.55107 19.16527,4.37042 20.06954,15.06137c0.90426,10.69096 -4.04898,23.27265 -15.56855,25.39614c-10.87183,1.93463 -21.52088,-5.53494 -22.42514,-16.22589c-0.90428,-10.69093 4.9505,-22.57376 17.92418,-24.23163z" data-paper-data="{&quot;index&quot;:null}" fill="none" stroke="#6c5313" stroke-width="0" stroke-linecap="butt"/><path d="M60.96407,92.9656c1.60081,-10.61795 12.33022,-14.93206 21.61845,-13.84669c13.26169,2.42231 18.54941,14.62981 16.94858,25.24775c-1.60083,10.61795 -12.81974,16.76605 -24.84065,13.89664c-11.73454,-2.80104 -15.32719,-14.67974 -13.72637,-25.29768z" data-paper-data="{&quot;index&quot;:null}" fill="none" stroke="#6c5313" stroke-width="0" stroke-linecap="butt"/><path d="M-14.89171,42.80091c0,0 -0.12802,-8.66752 -1.28406,-12.62736c-1.60378,-9.17348 -14.99563,-9.38718 -14.99563,-9.38718c0,0 29.1754,-15.3285 38.02029,-1.3296c2.20664,3.49248 12.05361,3.10301 18.79431,5.83363c7.14737,2.89536 11.14172,8.80877 11.14172,8.80877" data-paper-data="{&quot;index&quot;:null}" fill="#000000" stroke="#000000" stroke-width="0" stroke-linecap="round"/><path d="M13.7846,91.51729c0,0 -8.15107,-2.94999 -12.26367,-3.27131c-9.14689,-1.74907 -14.08963,10.69908 -14.08963,10.69908c0,0 -4.00212,-32.71315 12.22195,-36.02685c4.04763,-0.82671 7.17082,-10.17337 12.11176,-15.51008c5.23902,-5.65867 12.1838,-7.29981 12.1838,-7.29981" data-paper-data="{&quot;index&quot;:null}" fill="#000000" stroke="#000000" stroke-width="0" stroke-linecap="round"/><path d="M-6.2225,77.48731c0,0 -8.36417,-2.18402 -19.92983,-15.91068c-5.61872,-6.66855 -13.75505,-3.46031 -13.75505,-3.46031c0,0 7.23333,-19.12564 17.23405,-24.79635c10.82127,-6.136 29.74501,-4.94116 29.74501,-4.94116z" data-paper-data="{&quot;index&quot;:null}" fill="#000000" stroke="#000000" stroke-width="0" stroke-linecap="round"/><path d="M-14.93123,68.58925c0,0 -4.89105,15.64999 -12.41995,17.89992c-2.77573,1.0003 -1.68668,0.58647 -3.50246,3.06746c-0.82771,1.13094 0.1535,6.27992 -0.86428,7.23179c-1.45351,1.35938 -13.05366,-0.89542 -13.44611,0.02827c-0.17656,-0.11074 2.38052,-2.95511 2.20396,-3.06583c-0.04052,-1.71544 4.78351,-4.18714 5.31887,-8.48364c0.69018,-5.539 -2.5094,-13.62913 0.16273,-22.55044c5.02796,-11.62279 8.95148,-18.27025 8.95148,-18.27025z" data-paper-data="{&quot;index&quot;:null}" fill="#000000" stroke="#000000" stroke-width="0" stroke-linecap="round"/><path d="M-0.71462,94.76806c0,0 -6.52625,9.92333 -13.89369,13.65607c-5.61347,3.16176 -7.32661,10.04173 -7.77826,12.57435c-0.22234,-0.03168 -0.44468,-0.06335 -0.66702,-0.09503c-0.56339,-1.23954 -1.47697,-3.55123 -2.20714,-6.83277c-0.94133,-4.23052 -1.49295,-10.07134 -1.34067,-17.31883c1.85201,-9.87192 4.03157,-15.80918 4.03157,-15.80918z" data-paper-data="{&quot;index&quot;:null}" fill="#000000" stroke="#000000" stroke-width="0" stroke-linecap="round"/><path d="M5.65187,39.87077c0,0 -3.48671,3.52625 -4.71787,7.77102c-1.71924,5.92754 5.80487,12.251 5.80487,12.251c0,0 -12.11178,0.59365 -17.18245,-4.38959c-5.94554,-5.84304 -1.31321,-5.88159 -1.31321,-5.88159c0,0 -3.37232,-0.27236 -7.83516,4.83016c-2.5331,2.89617 -4.91604,10.62785 -4.91604,10.62785c0,0 -6.21292,-10.42951 -5.89357,-14.95697c0.60604,-8.59188 9.83478,-10.87106 9.83478,-10.87106c0,0 -6.09284,-1.08842 -8.21786,-0.65801c-2.22625,0.45091 -7.1479,1.00008 -7.1479,1.00008c0,0 2.21739,-7.74223 9.18097,-12.03678c7.88986,-4.8658 17.50183,-4.22513 17.50183,-4.22513" data-paper-data="{&quot;index&quot;:null}" fill="#000000" stroke="#000000" stroke-width="0" stroke-linecap="round"/><path d="M-9.63955,93.88914c0,0 -8.36417,-2.18402 -19.92984,-15.91068c-5.61872,-6.66855 -13.75505,-3.46031 -13.75505,-3.46031c0,0 7.23332,-19.12564 17.23404,-24.79635c10.82127,-6.136 29.74501,-4.94116 29.74501,-4.94116z" data-paper-data="{&quot;index&quot;:null}" fill="#000000" stroke="#000000" stroke-width="0" stroke-linecap="round"/><path d="M-27.62613,120.95947l2,-11l45,16l22,13z" fill="#000000" stroke="none" stroke-width="0" stroke-linecap="butt"/><path d="M50.54433,129.80835c0,0 1.15722,-1.0613 4.1042,-0.8499c3.10039,0.2224 4.16705,1.63224 4.16705,1.63224" fill="none" stroke="#000000" stroke-width="1" stroke-linecap="round"/></g></g></svg>