<svg version="1.1" xmlns="http://www.w3.org/2000/svg" xmlns:xlink="http://www.w3.org/1999/xlink" width="206.2226" height="209.78905" viewBox="0,0,206.2226,209.78905"><defs><linearGradient x1="-57.54147" y1="270.69776" x2="139.3587" y2="270.69776" gradientUnits="userSpaceOnUse" id="color-1"><stop offset="0" stop-color="#212121"/><stop offset="1" stop-color="#a0a0a0"/></linearGradient><radialGradient cx="60.56296" cy="295.52027" r="17.56937" gradientUnits="userSpaceOnUse" id="color-2"><stop offset="0" stop-color="#000000"/><stop offset="1" stop-color="#000000" stop-opacity="0"/></radialGradient></defs><g transform="translate(62.17096,-151.57352)"><g data-paper-data="{&quot;isPaintingLayer&quot;:true}" fill-rule="nonzero" stroke-linejoin="miter" stroke-miterlimit="10" stroke-dasharray="" stroke-dashoffset="0" style="mix-blend-mode: normal"><path d="M-46.6736,313.64449l-10.86787,-124.45573l196.90017,-3.83572l-16.62144,170.68944z" fill="url(#color-1)" stroke="#000000" stroke-width="8.5" stroke-linecap="butt"/><g><path d="M67.77787,312.48651c6.23087,-3.81303 12.55479,-4.82425 14.12487,-2.25858c1.57007,2.56565 -2.20825,7.73661 -8.43913,11.54965c-6.23087,3.81303 -12.5548,4.82424 -14.12487,2.25858c-1.21018,-1.97755 -1.58818,-6.06747 2.23053,-9.3258c1.13565,-0.96899 4.78035,-1.3498 6.2086,-2.22383z" data-paper-data="{&quot;index&quot;:null}" fill="#000000" stroke="none" stroke-width="0" stroke-linecap="butt"/><path d="M116.36724,234.07676l0.04662,0.23427c0.67516,3.39276 1.7753,6.96647 1.8597,10.42455c0.02184,0.96642 0.04367,1.93284 0.06551,2.89926c0.45348,-1.13827 0.97266,-2.23815 1.57819,-3.28024l-0.0787,-0.03016l0.41326,-1.07837c0.07259,-0.20153 0.25387,-0.3554 0.48106,-0.38215c0.32007,-0.03768 0.61007,0.19125 0.64775,0.51132c0,0.00001 0,0.00004 0,0.00005l0.13633,1.15908l-0.00019,0.00002l0.00027,0.00071c0.13346,1.15967 0.2669,2.31934 0.40036,3.47901c0.59391,5.1609 -1.16015,10.00054 -2.3897,15.01941c-0.30642,1.2508 -0.55955,2.53269 -0.87082,3.79326c0.00118,0.01009 0.00825,0.06997 0.00944,0.08005l0.10817,-0.00245l0.02623,1.16061c0.01029,0.30023 -0.21135,0.56314 -0.51504,0.59889c-0.04861,0.00572 -0.09653,0.0053 -0.14296,-0.00067c-0.12414,0.38527 -0.25941,0.7659 -0.40927,1.14026l0.12805,0.03137l-0.27446,1.12032c-0.05199,0.23597 -0.24831,0.42408 -0.5018,0.45392c-0.32007,0.03768 -0.61008,-0.19125 -0.64776,-0.51133c-0.00139,-0.01177 -0.00241,-0.0235 -0.00308,-0.03518l-0.07502,-1.16c-0.16278,-2.5168 -0.32556,-5.03358 -0.48834,-7.55038l-0.08359,0.38199c-0.04716,0.24253 -0.24621,0.43759 -0.50473,0.46802c-0.31856,0.0375 -0.60734,-0.1891 -0.6472,-0.5068l-0.14671,-1.15716l0.19634,-0.02489c-0.37354,-1.90909 -0.18278,-3.86726 -0.17316,-5.8866c0.01853,-3.89021 0.04014,-8.42684 0.05867,-12.31705c-0.05865,-0.83827 -0.11724,-1.67655 -0.17567,-2.51483c0,0 -0.04057,-0.58212 0.54156,-0.62269c0.58213,-0.04058 0.6227,0.54155 0.6227,0.54155c0.04262,0.61169 0.08535,1.22338 0.12812,1.83506c0.02438,0.05325 0.04108,0.1111 0.04855,0.17231l0.14218,1.158l-0.09681,0.01188c0.00577,0.08251 0.01156,0.16506 0.01734,0.24757c0.57088,2.15938 0.65957,4.4652 0.93284,6.69081c0.05813,0.4734 0.11597,0.94683 0.17355,1.4203c0.10825,-0.4055 0.22102,-0.80939 0.33911,-1.21094c-0.04577,-2.02559 -0.09155,-4.05118 -0.13731,-6.07677c-0.06976,-3.38206 -1.17721,-6.90489 -1.83755,-10.22314l-0.04662,-0.23427c0,0 -0.1139,-0.57231 0.45843,-0.68621c0.57231,-0.11389 0.68621,0.45843 0.68621,0.45843zM118.61632,259.90371c0.01347,0.59589 0.04082,1.19555 0.0689,1.79652c1.20914,-4.47165 2.60013,-8.97021 2.07279,-13.5527c-0.07423,-0.64498 -0.14844,-1.28994 -0.22267,-1.93492c-0.43901,1.40393 -1.28823,2.91642 -1.69521,3.97839c-0.14745,0.38474 -0.28604,0.77249 -0.41701,1.1628c0.0644,2.84996 0.1288,5.69993 0.19319,8.54989zM117.40726,266.19446c-0.01414,-0.11998 -0.02827,-0.23998 -0.04241,-0.35996c-0.06374,-0.54103 -0.12743,-1.08205 -0.19113,-1.62308c0.04892,0.75641 0.09784,1.51283 0.14677,2.26924c0.02847,-0.09578 0.05746,-0.19126 0.08676,-0.28621zM117.35616,255.79816c-0.00421,-0.1865 -0.00843,-0.37301 -0.01265,-0.5595c-0.01198,0.05127 -0.02391,0.10255 -0.03578,0.15385c0.01614,0.13521 0.0323,0.27044 0.04842,0.40566z" data-paper-data="{&quot;index&quot;:null}" fill="#000000" stroke="none" stroke-width="0" stroke-linecap="butt"/><path d="M55.69642,315.24343c5.01443,-0.59022 9.25758,0.44488 9.47734,2.31195c0.21977,1.86708 -3.66708,3.85911 -8.68151,4.44932c-5.01443,0.59022 -9.25758,-0.44488 -9.47734,-2.31196c-0.21977,-1.86708 3.66708,-3.85911 8.68152,-4.44932z" data-paper-data="{&quot;index&quot;:null}" fill="#000000" stroke="#000000" stroke-width="0" stroke-linecap="butt"/><path d="M84.3451,286.60555c-1.79239,1.32783 -3.46726,2.78763 -4.89321,4.49625c-0.11771,0.08204 -0.2327,0.16714 -0.34489,0.25508c-1.58856,1.05684 -2.39626,2.49328 -2.71215,4.07715c-1.78047,0.68076 -3.60416,0.77562 -5.15322,-0.14435c-0.66646,-0.39582 -0.62839,-1.42668 -0.85058,-2.25803l-1.75623,-0.44253c-0.71546,-0.16817 -1.30497,-0.71401 -1.51779,-1.51159c-0.12428,-0.46576 -0.10254,-0.9516 0.03674,-1.4021c-0.39945,-0.53199 -0.77113,-1.09135 -1.10973,-1.67372c-0.19119,0.13084 -0.38261,0.26318 -0.5734,0.39757c-0.20508,-0.57513 -0.41014,-1.15011 -0.61511,-1.72477c-0.24164,1.14543 -0.64358,2.24035 -1.18823,3.10569c-0.55427,0.47272 -1.0756,0.97813 -1.53809,1.52881c-1.49285,0.81911 -2.78529,0.56149 -3.95533,-0.18616c-0.17087,1.60393 -0.53533,3.18993 -1.1201,4.71626l-0.00002,-0.00002c-1.84775,4.82276 -5.27938,5.06223 -8.001,1.90446l0.66037,4.61422l-0.03824,0.69694l0.07097,0.69632l-0.17487,1.82111l-0.07096,0.23002l0.00468,0.2485l-0.27866,1.53016l-0.09098,0.22195l0.03322,0.18188l-0.45323,0.84274l-0.37083,0.90453l-0.1426,0.05011l-0.11119,0.20679l-0.59019,0.65735l-0.87664,0.56722l-0.14084,0.23612l-0.18153,-0.02752l-0.52269,0.3382l-1.52174,-0.64845l-1.58933,-0.24118l-0.36815,-0.59295l-0.17383,-0.07406l-0.05322,-0.29156l-0.61745,-0.99441l-0.1573,-0.44069l-0.53196,-0.94438l-0.13852,-0.44285l-0.23435,-0.37743l-4.56919,-12.80125l-0.034,-0.23754l-0.10376,-0.20576l-0.2089,-0.78456c-0.131,2.21788 -0.86798,4.10952 -2.71417,5.2414c-0.48446,0.29699 -1.16388,0.1169 -1.82114,-0.11608l-0.06741,0.04651l-0.23535,0.07701l0.01829,0.08795l0.68809,2.5845l0.04941,0.08391l-0.00913,0.06737l0.03821,0.14345l0.15132,2.43592l-0.66014,0.89863l-0.15401,1.13819l-1.01557,0.45391l-0.72493,0.98684l-0.91356,-0.25449l-0.92484,0.41333l-1.77348,-1.09322l-0.09337,-0.09777l-0.05406,-0.01506l-0.04437,-0.08806l-0.05504,-0.05763l-0.04253,-0.00646l-0.06759,-0.10885l-0.08204,-0.08598l-0.5224,-0.88753l-0.54063,-0.87071l-0.04338,-0.12161l-0.0653,-0.11096l0.00706,-0.05223l-0.3263,-0.91412l-0.84453,-1.78205c-0.17875,0.34221 -0.3526,0.68735 -0.52062,1.03868l2.84066,7.95863l0.11645,0.81372l0.20694,0.78798l0.43379,7.37778l-0.08383,0.5984l0.03004,0.60973l-0.73215,4.88146l-0.81477,2.19327l-0.74441,0.30026l-0.23262,0.45355c-9.23007,-1.67186 -18.45837,-3.35277 -27.68451,-5.04465c-3.45069,-3.5171 -7.6798,-7.58141 -7.88279,-8.41294c-0.42018,-1.72113 4.18214,0.69422 6.84223,2.06462c-2.24543,-8.29805 -3.78805,-25.49645 -0.48505,-33.44077c-0.00513,-0.02815 -0.01006,-0.05648 -0.01475,-0.08497c-0.02883,-0.07558 -0.05696,-0.15177 -0.08439,-0.22862c-0.7425,-2.08015 -4.4032,10.9148 -3.97252,8.90533c0.30698,-5.10196 -9.94328,-16.94912 6.0415,-26.72318c0.92488,-1.00691 6.13196,-3.80724 7.17703,-5.20243c2.20333,-2.94144 10.5039,-7.97985 13.34973,-8.65357c1.63745,-0.38769 3.11842,-2.43415 4.98009,-2.97502c1.75133,-0.50884 4.16839,-1.13661 6.61243,-1.29563c0.4911,-0.64625 0.99178,-1.28486 1.57542,-1.81315c3.06087,-2.77053 6.81649,-4.78054 10.26261,-6.73202l2.58205,-0.25425c0,0 0.04453,-0.00111 0.12027,0.0055c0.07582,0.0015 0.12027,0.00741 0.12027,0.00741v0.00001c0.33013,0.07199 0.63115,0.09203 0.91126,0.06993c0.27389,-0.6571 0.49813,-1.37025 1.01899,-1.63511c1.56092,-0.79377 2.90647,-1.24457 4.27983,-1.60534c1.77716,-0.9688 6.86147,-1.92427 7.46893,-1.84321c0.87116,-0.71951 1.3912,-1.85857 2.45583,-2.42063c2.20833,-1.16588 3.36805,-1.28362 5.34317,-1.40675c0.95525,0.54754 9.58263,3.35163 17.42098,2.88006c13.27228,0.06366 19.87257,-5.73049 22.91377,-5.1199c3.9771,0.79847 5.77907,14.84902 3.24412,26.47059c-1.05976,4.8585 -11.60632,5.58429 -11.12375,6.86815c1.81735,4.83494 3.57562,9.85624 4.57893,14.97352c-3.05689,2.02257 -5.65057,4.19975 -6.47655,4.77689c-3.19175,2.23023 -6.79272,4.18572 -10.03941,6.54503c-0.03632,-0.11885 -0.07653,-0.24859 -0.12052,-0.38626c-0.07326,0.20591 -0.13989,0.41446 -0.20356,0.62419zM-3.78206,317.09337c-0.41454,-0.97922 -0.63818,-0.72756 -0.81222,-0.28709c0.54006,0.2659 0.8589,0.39737 0.81222,0.28709z" data-paper-data="{&quot;index&quot;:null}" fill="#000000" stroke="none" stroke-width="0" stroke-linecap="butt"/><path d="M15.34061,322.90286c-0.16614,-0.1229 -0.33343,-0.24309 -0.50322,-0.35712c0.05588,0.13335 0.1093,0.25827 0.15855,0.37237c-3.43745,0.17024 -6.85082,0.86946 -10.17625,1.1056c-0.31365,0.02227 -0.90116,0.02451 -1.67213,0.03355c-1.97654,-0.36114 -3.95298,-0.72275 -5.92933,-1.08486c-2.13883,-4.18736 -3.87825,-8.65285 -5.49602,-13.0305c-0.47563,-1.28703 -7.45411,4.62166 -11.04375,1.52128c-8.5864,-7.41609 -15.94941,-19.3673 -13.96496,-22.42311c1.51746,-2.33671 9.10776,-1.91253 17.30005,-10.10245c5.14555,-4.44375 8.80333,-11.90008 9.06523,-12.90865c1.29914,-1.11645 2.08947,-1.73688 4.16261,-2.19143c0.99946,-0.21914 2.00948,0.34112 2.98397,0.36221c0.32779,-0.43517 4.05749,-2.81617 5.74432,-3.15839c1.06943,-0.56391 2.17598,-1.04122 3.62305,-1.38593c0.48287,-0.11503 1.05238,0.2979 1.61883,0.63713c0.18706,-0.15471 0.36164,-0.3548 0.5229,-0.61289l-0.00002,-0.00003c0,0 0.02401,-0.03181 0.07013,-0.07948c0.04299,-0.05154 0.07128,-0.078 0.07128,-0.078l1.75471,-1.38752c3.31496,-0.60736 6.85717,-1.35935 10.42754,-1.09817c0.68082,0.04981 1.37673,0.23565 2.07134,0.4333c1.61164,-1.37634 3.48946,-2.3743 4.88266,-3.05573c1.48094,-0.72437 3.63453,-0.05304 4.88399,-0.75816c2.17148,-1.22549 10.36007,-2.42754 13.50182,-1.50843c1.49018,0.436 6.40955,-0.59622 7.59082,-0.38627c15.81217,-2.25977 16.6061,13.17253 19.87586,16.92256c1.47994,1.287 -8.63357,-6.49873 -7.83851,-4.4376c0.02935,0.07615 0.0579,0.15222 0.08565,0.22823c0.0143,0.02487 0.02835,0.04977 0.04216,0.07462c7.01401,4.20889 16.73879,19.04434 20.14259,26.68135c1.09376,2.45406 -1.70465,-1.27294 -0.90284,1.15239c0.30582,0.92507 1.85789,5.08378 4.28557,8.78523c3.56483,5.43532 4.23393,15.7945 2.67072,16.28418c0.02683,0.56148 -4.28308,-3.99644 -4.54563,-2.76731c1.60441,6.08207 -1.36082,12.79851 -0.36994,19.48447c-0.1809,1.28724 -10.16361,-7.5384 -13.31383,-14.0402c-0.82388,-1.70044 2.8112,-2.13912 2.48013,-3.50348l0.14657,0.43301l0.18964,-0.71944l-0.04912,0.0583l-0.13797,0.08002l-0.0021,0.00307l-0.00265,-0.00034l-1.30984,0.76005l-0.75354,-0.3739l-0.64285,0.22481l-1.82905,-1.19326l-3.40033,-3.31903l-0.34937,-0.48909l-0.41317,-0.4105l-4.18398,-5.96116l-0.34727,-0.73519l-0.4189,-0.69955l-3.04193,-7.88584c-0.31626,-0.16813 -0.63238,-0.32792 -0.94979,-0.48245l0.55187,1.89363l0.34937,0.90578l0.03588,0.03601l0.02648,0.12568l0.0465,0.12049l0.19026,1.0037l0.21172,1.00553l0.00099,0.11668l0.02375,0.12547l-0.02247,0.03108l0.00068,0.07825l0.02563,0.09519l-0.02445,0.04475l0.00112,0.13274l-0.43997,1.93169l-0.82301,0.24819l-0.41296,0.7568l-1.0452,-0.31711l-0.90376,0.27258l-0.78249,-0.78414l-0.95178,-0.28876l-1.37641,-1.97314l-0.0629,-0.13417l-0.04632,-0.04639l-0.02002,-0.09509l-1.1332,-2.41707l-0.04176,-0.07912l-0.19243,0.08488l-0.06987,0.00546c-0.26698,0.58301 -0.57959,1.13875 -1.05933,1.20663c-1.82807,0.25868 -3.42684,-0.74944 -4.84671,-2.38116l0.34399,0.73373l0.05987,0.22245l0.12226,0.20422l4.89286,12.6842l0.08247,0.43508l0.18139,0.42683l0.24011,1.05526l0.16843,0.43667l0.21729,1.14633l0.14297,0.25771l-0.06309,0.16377l0.12959,0.68352l-0.84006,1.16101l-0.55232,1.43395l-0.52826,0.05952l-0.09598,0.13257l-0.22985,-0.09588l-0.88598,0.09986l-0.76274,-0.14541l-0.19376,-0.09143l-0.11867,0.0488l-0.77593,-0.47079l-0.78971,-0.37253l-0.08919,-0.16078l-0.19038,-0.11551l-1.09638,-1.01025l-0.14708,-0.19468l-0.18287,-0.13404l-1.20759,-1.29852l-0.37625,-0.58101l-0.44436,-0.51453l-2.37547,-3.96686c0.21815,4.1069 -2.05451,6.02693 -6.11124,3.43749v0.00004c-1.28387,-0.81954 -2.46714,-1.82027 -3.54118,-2.95358c-0.27433,1.29479 -0.92035,2.2864 -2.34051,2.56977c-0.61919,-0.14142 -1.2475,-0.21177 -1.87656,-0.23671c-0.86006,-0.3339 -1.77013,-0.93253 -2.61136,-1.66851c0.21974,0.56934 0.43958,1.13892 0.65954,1.70868c-0.19943,0.0133 -0.39801,0.02857 -0.59555,0.04483c0.14152,0.65725 0.24864,1.31702 0.32203,1.97267c0.35826,0.26234 0.665,0.62403 0.86905,1.05978c0.34942,0.74622 0.31327,1.52918 -0.0289,2.09782l-0.82202,1.41882c0.36395,0.77802 1.00977,1.55044 0.83536,2.26475c-0.40538,1.66027 -1.59361,2.70566 -3.10862,3.27225c-1.15186,-1.02884 -2.51971,-1.64225 -4.14274,-1.48366c-0.12265,0.00091 -0.24532,0.00578 -0.36784,0.01462c-1.91557,-0.44427 -3.83531,-0.54383 -5.7483,-0.46941zM84.17836,309.2159l-0.15036,0.02127l0.05969,0.31488l-0.00013,0.00832z" data-paper-data="{&quot;index&quot;:null}" fill="#000000" stroke="none" stroke-width="0" stroke-linecap="butt"/><path d="M61.75869,317.22202c0,0 7.00961,3.20698 10.10154,5.32475c2.77846,1.90305 5.83927,14.13801 6.04534,14.97248c-0.01881,-0.00335 -0.03764,-0.0067 -0.05645,-0.01005c-0.72433,-0.5869 -7.0772,-5.68582 -9.09982,-5.63191c-0.73797,0.01965 -1.15206,-0.24037 -1.38006,-0.58009c0.17394,1.16744 0.40818,2.86981 0.55173,4.44293c-6.95568,-1.241 -13.91074,-2.48537 -20.86498,-3.73395c0.72,-3.106 1.41771,-6.08847 1.41771,-6.08847z" data-paper-data="{&quot;index&quot;:null}" fill="#000000" stroke="#000000" stroke-width="0" stroke-linecap="round"/><path d="M19.67583,325.06817c0,0 0.56735,0.91337 1.37401,2.24699c-6.12676,-1.1107 -12.25272,-2.22544 -18.37777,-3.3448c2.74009,-2.2199 5.75971,-4.37866 5.75971,-4.37866z" data-paper-data="{&quot;index&quot;:null}" fill="#000000" stroke="#000000" stroke-width="0" stroke-linecap="butt"/><path d="M19.67583,325.06817c0,0 0.56735,0.91337 1.37401,2.24699" data-paper-data="{&quot;index&quot;:null}" fill="#000000" stroke="#000000" stroke-width="0" stroke-linecap="round"/><path d="M102.44113,208.61439l-38.16935,40.05028c0,0 -12.42454,0.20261 -10.158,-8.31463c5.79139,-21.76273 31.14002,-38.95506 36.26913,-42.32323c5.12911,-3.3682 12.05825,10.58753 12.05825,10.58753z" data-paper-data="{&quot;index&quot;:null}" fill="#000000" stroke="#000000" stroke-width="0" stroke-linecap="round"/><path d="M91.54693,280.69311l-11.25424,-9.92344l14.13915,1.68114" data-paper-data="{&quot;index&quot;:null}" fill="#000000" stroke="#000000" stroke-width="0" stroke-linecap="round"/><path d="M-25.23036,264.89261c-2.73451,-33.13809 23.48799,-62.30892 58.56962,-65.15483c35.08163,-2.84594 65.73765,21.71077 68.47214,54.84887c2.73451,33.13812 -23.48801,62.30895 -58.56963,65.15485c-35.08162,2.8459 -65.73764,-21.7108 -68.47213,-54.84888z" data-paper-data="{&quot;index&quot;:null}" fill="#242424" stroke="#000000" stroke-width="0" stroke-linecap="butt"/><path d="M-14.48526,268.69939c-2.50731,-30.07555 19.94967,-56.42074 50.15901,-58.84369c30.20933,-2.42294 56.73141,19.99391 59.23873,50.06941c2.50733,30.07551 -19.94965,56.4208 -50.15895,58.8437c-30.20935,2.4229 -56.73142,-19.99395 -59.23872,-50.06944z" data-paper-data="{&quot;index&quot;:null}" fill="#242424" stroke="#000000" stroke-width="0" stroke-linecap="butt"/><path d="M-10.76828,275.08141c-2.3179,-26.2937 17.97845,-49.28377 45.33313,-51.34972c27.35469,-2.06598 51.40903,17.57448 53.72694,43.86817c2.31792,26.29369 -17.97842,49.28379 -45.33306,51.34973c-27.35465,2.06599 -51.409,-17.57448 -53.72693,-43.86819z" data-paper-data="{&quot;index&quot;:null}" fill="#2e2e2e" stroke="#000000" stroke-width="0" stroke-linecap="butt"/><path d="M87.03357,288.75217c2.86378,5.32327 -15.52293,40.86908 -21.88659,40.57653c-3.04178,-0.13982 -12.12474,-5.48946 -13.92764,-10.87938c-3.94178,-11.7843 -8.52852,-31.37291 -8.3339,-34.6925c0.28364,-4.83795 8.49894,2.55804 18.19112,3.00359c9.69222,0.44558 23.6057,-2.37884 25.95699,1.99177z" data-paper-data="{&quot;index&quot;:null}" fill="url(#color-2)" stroke="none" stroke-width="0" stroke-linecap="butt"/><path d="M1.25622,275.46368c-0.90478,-1.01293 -1.42969,-2.30843 -2.1587,-3.4543c-0.05473,0.46649 -0.09074,0.86047 -0.11853,1.11903c-0.26371,2.45042 -0.39249,4.59201 -0.68678,6.65924c-0.21319,4.76275 -0.73108,9.59888 -1.37564,14.26489c0,0 -0.12904,0.93717 0.19807,1.82467c-0.35117,1.75205 -0.81622,3.5283 -1.34241,3.81307c-1.4163,0.76659 -2.85442,1.47469 -4.30918,2.12176c-1.02074,0.45405 -3.3882,-2.16304 -3.91551,-2.97478c-2.81537,-4.3336 -4.88635,-9.60447 -7.289,-14.18058c-6.24248,-11.88959 -4.51624,-26.0542 -2.28356,-39.35096c0.96977,-5.77539 0.6159,-11.92765 2.36672,-17.43824c0.07601,-0.23926 0.17432,-0.4552 0.29147,-0.65144c0.22092,-0.37003 0.50878,-0.66988 0.84061,-0.92359c0.77457,-4.7927 3.35955,-8.30989 5.87665,-12.06397c0.61521,-0.21354 1.20554,-0.48605 1.76013,-0.81811c3.74522,-2.24277 17.33825,-12.79372 21.41067,-16.64393c2.46662,-0.54682 3.92592,-0.81365 6.93157,-0.19721c1.44901,0.29722 2.36523,1.47474 3.61349,2.02788c0.72995,-0.31023 1.4919,-0.5206 2.24938,-0.67552c2.34578,-0.47968 4.98392,-0.27986 7.41013,0.25266c1.78141,-0.05172 3.55026,0.0139 5.66746,0.41344c0.70647,0.13337 1.15509,0.90618 1.65145,1.5946c0.35095,-0.07204 0.71751,-0.20167 1.10744,-0.40369v-0.00001c0,0 0.05338,-0.02267 0.14659,-0.05115c0.09185,-0.03451 0.14707,-0.04883 0.14707,-0.04883l3.24709,-0.60347c4.72229,1.11978 9.84055,2.20063 14.28493,4.43381c0.84748,0.4258 1.61913,1.01249 2.38086,1.61175c3.05388,-0.66873 6.18728,-0.76815 8.47077,-0.7758c2.42733,-0.00808 4.74791,1.91539 6.86167,1.80308c3.67361,-0.19519 15.12955,2.90538 18.55706,5.64392c1.62579,1.29893 19.43962,1.03432 21.82195,8.38419c9.48106,29.2508 16.56462,36.39964 16.56462,36.39964c0,0 -13.19226,-0.86792 -15.82333,-2.5748c-2.02835,-1.31587 1.09566,-6.03542 0.91518,-4.84051c-0.00924,0.06131 5.65456,10.09132 6.29155,19.04499c-0.88568,15.6036 1.85317,23.36708 1.85317,23.36708c0,0 -5.46965,-2.04485 -7.32212,-5.8374c-1.87991,-3.84875 -1.6357,-9.19432 -1.96873,-7.60411c-0.26443,1.2626 4.14661,5.22578 2.06178,15.28978c-4.48719,8.92372 -5.40574,14.89865 -5.40574,14.89865c0,0 -3.43728,-10.13777 -4.63932,-8.90123c-0.44305,1.56089 0.07517,5.4994 -3.33884,7.64362c-5.80963,3.64881 -5.57232,9.29406 -5.57232,9.29406c0,0 -3.47271,-4.73257 -3.41607,-6.92295c0.04134,-1.59976 -0.37332,-3.55391 -0.37332,-3.55391l-6.06658,21.49706c0,0 -2.22945,-9.62156 -8.9559,-14.2676c-5.64747,-3.90079 -6.91084,-17.0992 -4.89235,-21.33187c1.22918,-2.57753 13.59218,6.15616 14.24576,4.03616l2.01222,-2.1776l1.30286,2.35284l-0.20983,-0.05785l-0.14342,0.38582l-0.01703,0.02629l0.00738,0.10611l-0.78882,1.1027l-0.74266,1.14881l-0.08735,0.01144l-0.01806,0.02523l-0.74576,0.63862l-0.72304,0.34272l-0.66746,0.48418l-0.68775,0.25474l-0.23494,0.01484l-0.00491,0.00236l-0.00322,-0.00184l-2.23059,0.14115l-0.71446,-0.82902l-0.99079,-0.09702l-1.534,-2.33292l-2.08011,-5.57211l-0.1099,-0.73869l-0.24773,-0.68513l-1.24331,-8.96268l0.06535,-1.01372l-0.05244,-1.01261l1.58622,-10.50193c-0.29208,-0.36049 -0.58973,-0.71161 -0.89276,-1.05748l-0.61234,2.42481l-0.1822,1.20625l0.02131,0.05988l-0.0538,0.15545l-0.02423,0.16047l-0.45713,1.22972l-0.43056,1.2434l-0.08053,0.13147l-0.05715,0.15366l-0.05093,0.02265l-0.05402,0.08814l-0.03356,0.12075l-0.06305,0.0369l-0.09164,0.14955l-1.92457,1.92854l-1.24069,-0.1687l-1.06587,0.6249l-1.13232,-0.92373l-1.36246,-0.18523l-0.46444,-1.30511l-1.03112,-0.84118l-0.40052,-2.9621l0.01253,-0.18474l-0.02747,-0.07723l0.0407,-0.11755l0.22595,-3.32806l0.00137,-0.11146l-0.30889,-0.00931l-0.09439,-0.03185c-0.75479,0.50915 -1.54966,0.96292 -2.219,0.77843c-2.55067,-0.70307 -3.91606,-2.70309 -4.61229,-5.30558l-0.06856,1.01021l-0.07844,0.2822l0.01529,0.29564l-2.5515,16.89211l-0.19812,0.53306l-0.06412,0.57751l-0.42864,1.31463l-0.08783,0.5815l-0.52208,1.40439l0.00462,0.3669l-0.19662,0.1495l-0.31134,0.83742l-1.90277,0.84635l-1.72123,1.30897l-0.72647,-0.22024l-0.21736,0.09671l-0.23072,-0.23249l-1.21828,-0.36941l-0.88666,-0.57762l-0.18702,-0.20788l-0.188,-0.00968l-0.67556,-0.9499l-0.76243,-0.84718l-0.00287,-0.22891l-0.16575,-0.23307l-0.71269,-1.7294l-0.05413,-0.2983l-0.14307,-0.24973l-0.6547,-2.1133l-0.08029,-0.85643l-0.2152,-0.8188l-0.29756,-5.74222c-2.59668,4.72708 -6.88842,5.64665 -10.33079,0.53661l-0.00001,0.00002c-1.08945,-1.6172 -1.92139,-3.38319 -2.51887,-5.2385c-1.26336,1.30384 -2.79586,2.06555 -4.83523,1.61185c-0.70338,-0.49519 -1.46839,-0.9155 -2.26625,-1.28532c-0.88065,-0.84198 -1.64047,-2.00828 -2.21476,-3.2913c-0.11436,0.75823 -0.22876,1.5169 -0.34311,2.27577c-0.26777,-0.09342 -0.53586,-0.18425 -0.8033,-0.27332c-0.27743,0.81439 -0.60116,1.61295 -0.96576,2.38857c0.28043,0.4891 0.42438,1.0616 0.38333,1.66146c-0.07029,1.02723 -0.66603,1.88618 -1.50825,2.33833l-2.06015,1.14546c-0.07376,1.07084 0.22178,2.28844 -0.50514,2.99522c-4.47829,4.35467 -13.05689,0.8719 -16.50356,-2.98685z" data-paper-data="{&quot;index&quot;:null}" fill="#000000" stroke="none" stroke-width="0" stroke-linecap="butt"/><path d="M97.49308,263.44386l-8.74665,41.79344c0,0 -8.8206,-10.39669 -12.54041,-14.09456c-3.16723,-3.14856 -6.00582,-13.77976 -6.00582,-13.77976l-7.30704,8.39868c0,0 -10.70249,-4.29345 -16.22688,-7.13686c-4.75549,-2.44765 -14.95987,-8.91491 -14.95987,-8.91491c0,0 -3.50796,5.53469 -6.42674,8.43867c-4.15596,4.13489 -26.75604,17.75069 -26.75604,17.75069c0,0 -8.05611,-15.0114 -13.87855,-21.51144c-5.00796,-5.59078 -8.36275,-18.9142 -8.36275,-18.9142" data-paper-data="{&quot;index&quot;:null}" fill="#000000" stroke="#000000" stroke-width="0" stroke-linecap="round"/><path d="M43.2517,284.00698c0,0 1.89585,-15.59471 14.15791,-17.83557c12.44689,-2.27461 20.77441,0.49202 23.4284,10.72633c0.41815,1.61251 0.70312,5.29532 -0.13767,9.41091c-1.41106,6.907 -5.99287,15.03291 -18.43724,16.63719c-17.21163,2.28418 -19.01145,-18.93886 -19.01145,-18.93886z" data-paper-data="{&quot;index&quot;:null}" fill="#d8d3e1" stroke="#000000" stroke-width="0" stroke-linecap="round"/><path d="M62.11347,248.69137c-0.95532,2.75658 -1.22267,6.84267 -3.72056,7.87247c-1.15557,1.50077 0.10802,-0.96048 -1.13642,0.7116c-0.01104,0.04946 -3.51923,6.99009 -4.19645,10.34178c-0.66445,3.28842 -0.16626,5.58715 -0.29731,8.31334c-0.17051,3.54702 -3.40156,0.2675 -3.58436,0.38985c-2.06691,1.56787 -1.94402,-5.62679 -3.00236,-4.57926c-0.65818,0.4053 -1.32313,1.89031 -1.86096,2.4263c-0.70513,0.7027 3.2451,3.37553 4.3246,6.30633c1.68091,4.56356 -4.4458,15.15842 -4.4458,15.15842c0,0 -1.26993,-2.78104 -5.449,-6.01687c-3.0834,-2.38748 -2.90072,-6.11305 -4.13752,-5.60319c-0.87637,0.36129 -2.07962,1.24733 -3.4128,2.29692c-2.99033,2.35422 -6.63443,5.53143 -8.7103,5.45597c-1.49658,-0.05945 -1.84011,-3.06221 -3.71963,-3.94159c-1.31228,-0.61391 -2.40262,4.88405 -3.35656,5.27737c-1.23148,0.48043 -2.35791,4.9199 -3.64934,4.81823c-0.15448,0.26149 -4.82301,-10.03753 -5.27193,-8.96551c-0.55581,1.32718 -0.35456,2.56441 -0.56758,2.80153c-0.4593,0.19515 -0.75659,-1.42349 -1.27531,-3.15512c-0.44959,-1.50096 -1.13113,-3.13035 -1.42283,-3.20248c-1.58544,-0.99658 -9.28248,-1.94889 -9.31487,-2.07926c-0.54399,0.27993 4.81313,0.53454 7.0186,-1.15056c1.86241,-1.42257 4.44516,-8.94438 5.60316,-4.51529c-0.28912,1.28392 -1.26299,3.50324 -1.31548,4.59014c-0.03283,0.67984 2.99684,-1.32979 3.85932,-1.23566c0.71989,-1.28897 2.98129,4.13386 5.31834,1.18023c1.45951,-1.84454 0.3326,-4.97134 0.5124,-6.47336c1.11969,-0.46163 2.69066,6.60992 3.16515,2.17588c0.47983,-1.90216 -0.04679,-5.04801 -1.03855,-6.73725l-0.00564,-0.03819l-0.00801,0.00429l-0.19889,-0.57188c-0.00306,-0.0086 -0.00589,-0.01739 -0.00844,-0.02642c-0.0459,-0.16323 0.01383,-0.33553 0.13337,-0.38479c0.08448,-0.03481 0.17623,0.00111 0.23897,0.08276l0.29152,0.36555l-0.00945,0.01348c2.75788,2.11482 3.95467,4.2495 7.39551,2.83484c0.86602,-0.35665 3.84803,-2.17847 4.71336,-1.5823c0.17222,0.11863 -3.94909,-0.20166 -4.7692,-0.66398c-1.21896,-0.68713 0.65565,-1.6178 0.80803,-1.31974c0.40877,0.79961 -0.45481,2.58605 0.08273,3.30172c0.62477,0.46029 1.0171,-3.69813 1.63606,-3.95326c0.47215,-0.19465 2.08826,-1.85036 4.3889,-1.22488c3.60094,0.97902 8.43661,4.29884 9.796,2.64949c1.75874,-2.13386 2.02036,-4.78364 2.85943,-5.14405c1.35094,-1.13662 0.54023,3.80505 1.91404,2.76253c1.28867,-0.97788 3.25347,-7.90042 4.48108,-9.12348c1.43092,-1.42022 1.33898,3.1708 2.93454,2.28512c0.5312,-0.29487 2.10123,-12.76203 2.66603,-14.583c0.37535,-1.21016 0.42783,4.9746 1.12058,4.01284c0.60412,-0.82277 1.56936,-4.78987 2.2795,-5.00251c0.63914,-0.19138 1.90859,1.5222 2.57355,1.67431l0.36818,0.46165c0,0 0.0634,0.08317 0.07772,0.19609c0.06673,0.1135 0.11137,0.28091 0.12789,0.51614c0.12041,0.14957 -0.80297,-0.00327 -0.80297,-0.00327z" data-paper-data="{&quot;index&quot;:null}" fill="#000000" stroke="#000000" stroke-width="0" stroke-linecap="butt"/><path d="M33.4673,281.96623c0,0 4.41673,20.43068 -12.5178,24.26968c-20.48424,3.21877 -24.69686,-16.3507 -25.13793,-20.79113c-1.04524,-10.52279 5.75283,-13.09694 18.21445,-15.28898c12.27658,-2.15947 19.4413,11.81045 19.4413,11.81045z" data-paper-data="{&quot;index&quot;:null}" fill="#d8d3e1" stroke="#000000" stroke-width="0" stroke-linecap="round"/><path d="M16.88206,272.15835c2.04391,-0.43778 4.30445,4.89357 5.04903,11.90793c0.74455,7.01434 -0.30874,13.05547 -2.35266,13.49316c-2.0439,0.43772 -4.0667,-4.89701 -4.81129,-11.91137c-0.74461,-7.01432 0.07097,-13.05204 2.11489,-13.48975z" data-paper-data="{&quot;index&quot;:null}" fill="#000000" stroke="#000000" stroke-width="0.5" stroke-linecap="butt"/><path d="M-12.93372,292.24092c0.12401,-0.13415 0.24883,-0.24392 0.37323,-0.3327l-0.56237,-1.182c-0.08457,-0.16797 -0.14658,-0.3511 -0.18132,-0.54606c-0.19043,-1.06852 0.51013,-2.08801 1.56474,-2.27713c0.57108,-0.1024 1.12888,0.05969 1.55056,0.39953l2.44297,1.95027l-0.01571,0.02023l0.07811,0.03175c1.95107,1.85435 5.70273,5.57827 6.33096,8.22073c0.03245,0.13656 0.05906,0.27369 0.08041,0.41129l0.03702,-0.00661l0.55166,3.0955c0.19043,1.06852 -0.51012,2.088 -1.56474,2.27713c-0.5769,0.10346 -1.14023,-0.06299 -1.5634,-0.40993l-2.14143,-1.73712l0.03766,-0.04766l-0.18282,-0.08263c-0.49063,-0.58911 -0.98128,-1.1782 -1.47191,-1.76732c0,0 -0.5033,-0.60955 -0.48896,-1.37653c-0.48703,-0.016 -0.94171,-0.21787 -1.28229,-0.54791l-3.49712,-3.31559c0,0 -1.41888,-1.34522 -0.09524,-2.77724z" data-paper-data="{&quot;index&quot;:null}" fill="#000000" stroke="none" stroke-width="0" stroke-linecap="butt"/><path d="M31.20279,319.29302l0.33192,2.33466" data-paper-data="{&quot;index&quot;:null}" fill="none" stroke="#000000" stroke-width="0" stroke-linecap="round"/><path d="M85.26221,281.48928l-41.8207,9.49984c0,0 -3.05612,-6.51334 -2.23369,-13.28581c1.00659,-8.28911 6.71895,-16.95754 18.14505,-18.21117c17.51443,-1.92159 23.19283,18.57333 23.19283,18.57333" data-paper-data="{&quot;index&quot;:null}" fill="#000000" stroke="#000000" stroke-width="0" stroke-linecap="round"/><path d="M-4.21773,285.54183c0,0 -3.31817,-14.01659 15.97168,-18.35746c14.29614,-3.07563 20.19333,6.95642 21.85633,14.90143c0.9765,4.66521 0.43352,10.79364 0.43352,10.79364l-38.76747,-0.45533" data-paper-data="{&quot;index&quot;:null}" fill="#000000" stroke="#000000" stroke-width="0" stroke-linecap="round"/><path d="M83.8644,213.86882c0,0 20.07682,-5.0376 32.9106,-0.59809c11.86062,4.10289 23.42037,23.19824 23.42037,23.19824c0,0 -9.37065,-1.82945 -14.0789,6.44389c-9.69155,17.02998 -18.23679,21.03413 -18.23679,21.03413z" data-paper-data="{&quot;index&quot;:null}" fill="#000000" stroke="#000000" stroke-width="0" stroke-linecap="round"/><path d="M108.93051,275.28459c0,0 2.72018,9.16656 0.33481,28.61538c-0.55885,4.55647 -5.5587,10.44487 -8.77008,15.2949c-3.44783,5.2071 -3.28511,13.58082 -3.28511,13.58082c0,0 -1.77814,-15.93139 -13.74392,-19.71664c-12.94756,-4.09583 -5.29222,-13.49952 -5.29222,-13.49952z" data-paper-data="{&quot;index&quot;:null}" fill="#000000" stroke="#000000" stroke-width="0" stroke-linecap="round"/><path d="M3.74547,316.21301c0,0 16.55472,-0.94261 5.44921,8.53125c-0.13348,0.11387 -0.26432,0.22882 -0.39255,0.3448c-11.81388,-2.15297 -23.62453,-4.3224 -35.4311,-6.51232c-5.84497,-10.52705 -6.72711,-16.40195 -6.72711,-16.40195z" data-paper-data="{&quot;index&quot;:null}" fill="#000000" stroke="#000000" stroke-width="0" stroke-linecap="butt"/><path d="M75.16191,268.9664c-3.16785,4.48331 -11.73942,9.35122 -16.90693,5.54901c-0.83874,-0.61712 -0.66667,-1.91283 -0.86391,-3.00217l-2.28096,-0.86757c-0.93064,-0.33815 -1.64947,-1.1313 -1.83823,-2.17636c-0.11024,-0.61028 -0.02408,-1.22028 0.21401,-1.76498c-0.46799,-0.74226 -0.89581,-1.51423 -1.27704,-2.30949c-0.26938,0.13171 -0.53932,0.26528 -0.80861,0.40156c-0.2047,-0.76265 -0.40933,-1.52507 -0.61392,-2.2871c-0.456,1.40469 -1.11894,2.71739 -1.94445,3.71502c-0.792,0.49989 -1.54412,1.0468 -2.22339,1.66133c-2.07971,0.77262 -3.76631,0.22013 -5.23257,-0.92997c-0.41599,1.99636 -1.08702,3.93614 -2.0437,5.76175l-0.00001,-0.00005c-3.02287,5.76848 -7.6099,5.46822 -10.85337,1.0007l0.33362,5.94559l-0.07554,0.49661c-4.23763,-1.59564 -9.61697,-1.21487 -14.10163,-1.4042l-3.27936,-12.20366l-0.01717,-0.30607l-0.1136,-0.27819l-0.18509,-1.02787c-0.43531,2.77902 -1.63726,5.03946 -4.22321,6.1452c-0.67861,0.29013 -1.55995,-0.05671 -2.40566,-0.46654l-0.09501,0.04694l-0.32173,0.05596l0.01394,0.11434l0.60958,3.38611l0.05575,0.11469l-0.02004,0.08351l0.03386,0.18793l-0.086,3.10413l-0.98287,1.01935l-0.3387,1.41097l-1.40264,0.39506l-1.07932,1.11941l-1.18364,-0.482l-1.27729,0.35976l-2.22721,-1.69271l-0.1125,-0.13992l-0.07004,-0.02849l-0.04858,-0.11905l-0.06634,-0.08251l-0.05573,-0.01562l-0.07695,-0.14937l-0.09889,-0.12301l-0.58936,-1.21305l-0.61562,-1.19499l-0.04331,-0.16126l-0.07366,-0.15163l0.01554,-0.06474l-0.32578,-1.21221l-0.91197,-2.3998c-0.27779,0.40096 -0.5494,0.80649 -0.81403,1.22084l2.836,10.55386l0.05885,1.04849l0.18206,1.03189l-0.29302,9.39726l-0.18186,0.74128l-0.0319,0.77561l-1.54779,6.03861l-1.34081,2.62786l-1.0243,0.24858l-0.6534,0.95931l-2.34625,0.19012l-0.00314,0.00235l-0.00535,-0.00164l-0.24711,0.02004l-0.11371,-0.02412l0.86301,0.61115l-0.18218,-0.56412c0.7431,1.67896 5.82026,-0.5991 6.21463,1.80316c0.59547,3.62727 0.12421,8.43675 -0.74659,12.85437c-6.2002,-1.13798 -12.39942,-2.28096 -18.59752,-3.42954c-1.25219,-1.5087 -2.30612,-3.09396 -3.02406,-4.82381c-0.5399,-0.42203 -1.15941,1.46847 -1.71597,3.94429c-2.25079,-0.41818 -4.50145,-0.83713 -6.75194,-1.25686c-0.54023,-0.72185 -1.1278,-1.42668 -1.76492,-2.09375c-5.84979,-6.12477 -5.47977,-11.57851 -5.50378,-15.15739c-0.03828,-5.70681 0.10735,-9.42069 -0.2913,-10.62031c-1.04517,-3.14515 -1.4644,2.86761 -2.15672,-0.52753c-1.3144,-6.4459 -1.88653,-17.47101 -0.89381,-27.2897c-2.07487,-0.51808 -10.88822,-2.0234 -10.88822,-2.0234c0,0 3.32053,-3.33273 6.33741,-8.19898c2.03166,-3.27708 3.46869,-7.15765 5.38717,-11.53161c2.02865,-4.62517 3.10652,-13.58613 6.04821,-18.34283c5.34022,-8.6351 13.5061,-12.18448 21.15951,-12.90755c3.27358,-3.32921 5.78659,1.05705 9.64651,0.70573c2.22097,-0.20213 4.42951,-2.52752 6.96639,-2.88384c2.3865,-0.33524 5.6714,-0.70378 8.93696,-0.47542c0.72855,-0.73021 1.46894,-1.44905 2.30651,-2.01399c4.39265,-2.96263 9.61866,-4.84237 14.42662,-6.70257l3.46013,0.1323c0,0 0.05933,0.0064 0.15917,0.02805c0.10056,0.01523 0.1589,0.03049 0.1589,0.03049v0.00005c0.43009,0.14897 0.8276,0.22715 1.20232,0.24843c0.44126,-0.78206 0.82322,-1.64366 1.54633,-1.88679c2.16716,-0.72864 4.0078,-1.06187 5.87475,-1.27641c2.47504,-0.91182 9.3419,-1.22589 10.13933,-1.01678c1.24204,-0.75604 2.06715,-2.10377 3.54766,-2.62688c3.07101,-1.08503 4.62559,-1.03013 7.26394,-0.83874c1.2045,0.85955 12.33522,5.9176 22.80371,6.69863c7.88152,1.0785 13.74983,-1.23071 21.21371,0.35818c9.22639,1.96408 24.11668,9.697 24.11668,9.697c0,0 -18.17925,6.51395 -22.91612,20.75133c-1.98028,5.95206 -6.25667,5.77908 -5.76686,7.48586c3.82506,13.32878 7.2184,27.62553 2.03097,40.78165c-1.99662,5.06358 -3.56866,10.79131 -6.02364,15.66762c-0.45984,0.91336 -2.63947,3.9585 -3.7569,3.64525c-1.59256,-0.4464 -3.17449,-0.95799 -4.74016,-1.533c-0.58175,-0.21362 -1.26696,-1.96905 -1.8305,-3.71673c0.24213,-0.96116 0.00212,-1.90486 0.00212,-1.90486c-1.1971,-4.69807 -2.28091,-9.59007 -3.03823,-14.45248c-0.53947,-2.08012 -0.91433,-4.26156 -1.46493,-6.74008c-0.05806,-0.26152 -0.1399,-0.66101 -0.24944,-1.13215c-0.63299,1.28702 -1.03598,2.6972 -1.86758,3.87407zM-17.07406,304.42241l-0.00737,-0.0087l-0.19316,-0.37491l-0.21272,0.09097z" data-paper-data="{&quot;index&quot;:null}" fill="#000000" stroke="none" stroke-width="0" stroke-linecap="butt"/><path d="M-27.00399,289.44206c0,0 0.18376,3.64953 -7.44361,3.81521c-1.27602,13.30235 -15.5264,15.86186 -15.5264,15.86186c0,0 3.45766,-9.90373 -0.27889,-25.01113c-4.1973,-16.97027 7.21405,-29.42933 7.21405,-29.42933z" data-paper-data="{&quot;index&quot;:null}" fill="#000000" stroke="#000000" stroke-width="0" stroke-linecap="round"/><path d="M-15.09761,234.97824c0,0 -7.25495,-1.16928 -17.74994,-4.91206c-15.23068,-5.43167 -16.41421,-23.49604 -16.41421,-23.49604c0,0 10.79569,5.27238 16.80997,3.5977c6.25466,-3.40637 8.40355,-1.34759 8.40355,-1.34759z" data-paper-data="{&quot;index&quot;:null}" fill="#000000" stroke="#000000" stroke-width="0" stroke-linecap="round"/><g data-paper-data="{&quot;index&quot;:null}" stroke-width="0" stroke-linecap="round"><g><path d="M-37.08407,219.80837l-13.8396,-8.30187l16.30405,0.26565" data-paper-data="{&quot;index&quot;:null}" fill="#000000" stroke="#000000"/><path d="M-35.94987,219.78939l-10.04693,2.31056l7.55992,-9.63287" data-paper-data="{&quot;index&quot;:null}" fill="#000000" stroke="#000000"/><path d="M-46.98356,228.73451l8.11596,-4.05816" data-paper-data="{&quot;index&quot;:null}" fill="none" stroke="#b98f21"/></g><g fill="#0c0c0c" stroke="#000000"><path d="M-36.20831,221.25075c0,0 -8.37828,-7.04843 -4.91312,-16.95972c0.40348,-8.69398 123.25155,-74.36826 120.79058,-45.38058c4.90409,2.82981 1.30157,23.00858 1.30157,23.00858z"/><path d="M-34.85889,217.09082c1.61901,-0.88161 3.68842,-1.84208 6.2903,-2.8878c37.11082,-14.91546 102.65137,-35.9095 114.00861,-35.77771c10.02163,0.11631 1.5152,20.14833 1.5152,20.14833l-115.73135,27.90588c0,0 -20.2225,-1.68869 -6.08271,-9.38871z"/></g></g><path d="M8.0041,317.08565c-0.91478,-1.07912 -3.89976,-3.26511 -3.89976,-3.26511c0,0 16.26015,1.09278 31.78993,5.87933c2.67295,0.00832 5.82693,-0.24111 8.53115,-0.35286c2.65479,-0.1097 4.96519,-0.87349 7.26139,-1.2552c8.39551,-1.39561 13.03032,-0.05652 13.03032,-0.05652l-4.45112,1.54516c0,0 -4.67005,7.07192 -11.09169,12.80594c-11.95666,-2.1452 -23.91097,-4.30255 -35.86209,-6.47622c-2.76238,-3.44765 -4.19246,-6.17322 -4.19246,-6.17322c0,0 -0.41846,-1.82884 -1.11569,-2.6513z" data-paper-data="{&quot;index&quot;:null}" fill="#1a1a1a" stroke="#000000" stroke-width="0" stroke-linecap="round"/><path d="M59.68794,204.23083c0,0 13.8823,-11.65843 20.68284,-13.77435c5.39046,-3.14947 9.1258,-14.5684 9.1258,-14.5684c0,0 12.13863,13.43041 5.42879,28.14282c-4.62354,10.13785 -8.83727,16.15833 -8.83727,16.15833z" data-paper-data="{&quot;index&quot;:null}" fill="#000000" stroke="#000000" stroke-width="0" stroke-linecap="round"/><path d="M31.8295,255.53405c0,0 5.49647,4.87755 12.34757,13.66479c9.94255,12.75235 1.2541,28.63419 1.2541,28.63419c0,0 -6.28463,-10.23955 -12.25906,-12.05132c-7.10596,-0.47907 -23.31586,-8.59552 -23.31586,-8.59552z" data-paper-data="{&quot;index&quot;:null}" fill="#000000" stroke="#000000" stroke-width="0" stroke-linecap="round"/><path d="M27.77998,260.81478c0,0 2.74083,6.24708 5.57575,16.80027c0.90772,7.86086 0.98382,14.25925 0.51234,18.94442c-0.5716,5.68006 -1.82702,8.82779 -1.82702,8.82779c0,0 -1.95075,-10.36142 -9.11869,-13.96453c-7.55221,-3.36521 -14.93573,-13.53596 -14.93573,-13.53596z" data-paper-data="{&quot;index&quot;:null}" fill="#000000" stroke="#000000" stroke-width="0" stroke-linecap="round"/><path d="M49.68816,247.26818c0,0 2.74083,6.24709 5.57575,16.80028c0.90772,7.86086 0.98383,14.25925 0.51234,18.94441c-0.5716,5.68006 -1.82702,8.82781 -1.82702,8.82781c0,0 -1.95075,-10.36142 -9.11869,-13.96453c-7.55221,-3.36521 -14.93573,-13.53596 -14.93573,-13.53596z" data-paper-data="{&quot;index&quot;:null}" fill="#000000" stroke="#000000" stroke-width="0" stroke-linecap="round"/><path d="M35.25338,259.08789c0,0 2.81817,12.2482 0.39433,20.15298c-1.99204,7.77132 4.53872,16.04865 4.53872,16.04865c0,0 -3.198,-1.12123 -7.85609,-4.42154c-3.8422,-2.72223 -8.6164,-6.98275 -13.94697,-12.83101c-6.09452,-9.06992 -9.00418,-15.24018 -9.00418,-15.24018z" data-paper-data="{&quot;index&quot;:null}" fill="#000000" stroke="#000000" stroke-width="0" stroke-linecap="round"/><path d="M2.65334,272.18972c0,0 1.58398,12.46803 -1.61527,20.09201c-2.7563,7.53423 2.91738,16.42096 2.91738,16.42096c0,0 -3.0704,-1.43424 -7.37654,-5.18217c-3.55189,-3.09146 -7.87791,-7.80638 -12.59938,-14.15658c-5.16066,-9.63194 -7.44115,-16.06136 -7.44115,-16.06136z" data-paper-data="{&quot;index&quot;:null}" fill="#000000" stroke="#000000" stroke-width="0" stroke-linecap="round"/><path d="M123.68115,227.46798c0.03768,0.32006 -0.01828,0.58971 -0.12497,0.60227c-0.10668,0.01256 -0.22372,-0.23673 -0.26139,-0.5568c-0.03768,-0.32007 0.01828,-0.58971 0.12496,-0.60227c0.10668,-0.01256 0.22372,0.23672 0.2614,0.5568z" data-paper-data="{&quot;index&quot;:null}" fill="#000000" stroke="#000000" stroke-width="0" stroke-linecap="butt"/><path d="M47.89427,269.93937c2.04391,-0.43778 4.30445,4.89357 5.04903,11.90793c0.74455,7.01434 -0.30874,13.05548 -2.35266,13.49317c-2.0439,0.43772 -4.0667,-4.89702 -4.81129,-11.91138c-0.74461,-7.01432 0.07097,-13.05203 2.11489,-13.48975z" data-paper-data="{&quot;index&quot;:null}" fill="#000000" stroke="#000000" stroke-width="0.5" stroke-linecap="butt"/></g><path d="M36.06064,317.53661l9.54303,-0.32907" fill="none" stroke="#000000" stroke-width="1" stroke-linecap="round"/></g></g></svg>