<svg version="1.1" xmlns="http://www.w3.org/2000/svg" xmlns:xlink="http://www.w3.org/1999/xlink" width="200.43892" height="195.12747" viewBox="0,0,200.43892,195.12747"><defs><linearGradient x1="218.42344" y1="154.60858" x2="409.53993" y2="154.60858" gradientUnits="userSpaceOnUse" id="color-1"><stop offset="0" stop-color="#8e0094"/><stop offset="1" stop-color="#57005a"/></linearGradient></defs><g transform="translate(-213.79395,-47.63905)"><g data-paper-data="{&quot;isPaintingLayer&quot;:true}" fill-rule="nonzero" stroke="#000000" stroke-linejoin="miter" stroke-miterlimit="10" stroke-dasharray="" stroke-dashoffset="0" style="mix-blend-mode: normal"><path d="M228.97208,196.29383l-10.54864,-120.80001l191.11649,-3.72305l-16.13321,165.67566z" fill="url(#color-1)" stroke-width="8.5" stroke-linecap="butt"/><path d="M333.80809,201.75663c3.77877,-1.6118 8.7294,-0.54108 12.96898,1.76744c6.89524,3.75453 13.29244,8.58538 14.55839,15.55423c0.5264,2.89774 -0.89983,5.91532 -3.66517,9.36959c-11.2122,-4.657 -22.48858,-9.21491 -33.81011,-13.63239c4.58121,-7.26423 8.45319,-12.42131 9.9479,-13.05886z" fill="#7a567b" stroke-width="0" stroke-linecap="butt"/><path d="M332.71672,206.92099c16.43077,2.13438 28.84169,13.68359 25.74879,21.45454c-0.05601,0.1407 -0.11307,0.28222 -0.1712,0.4245c-13.01317,-4.21329 -26.09949,-8.29846 -39.22699,-12.19873c3.40405,-5.34149 8.14481,-10.39535 13.6494,-9.6803z" fill="#6b006f" stroke-width="0" stroke-linecap="butt"/><path d="M307.51527,200.51372l4.211,13.32229c-9.005,-1.08028 -18.01114,-2.07323 -27.00655,-2.96406c-0.74532,-4.41986 -1.0373,-7.26271 -1.0373,-7.26271z" fill="#6b006f" stroke-width="0" stroke-linecap="butt"/><path d="M292.69839,209.88276c0,0 -0.03898,0.63832 -0.11023,1.79384c-2.87194,-0.30285 -5.74316,-0.59573 -8.61324,-0.87817c-4.41825,-0.43481 -8.06712,-3.1554 -12.04046,-5.03895c-1.80356,-0.85497 -3.67398,-1.53748 -5.71356,-1.75546c2.72882,-7.8499 3.98361,-11.62154 3.98361,-11.62154z" fill="#3c003e" stroke-width="0" stroke-linecap="butt"/><path d="M289.13768,189.21174c15.83109,0 29.95303,0.77364 29.95303,4.50906c0,3.73542 -6.08298,12.70798 -30.2751,11.91679c-19.69599,-0.64415 -28.98679,-7.8593 -28.98679,-16.10378c0,-3.73542 13.47777,-0.32207 29.30886,-0.32207z" fill="#3c003e" stroke-width="0" stroke-linecap="butt"/><path d="M271.95254,184.92646l33.53308,0.43885l3.32415,28.1239c-8.28148,-0.97597 -16.56284,-2.4527 -24.83485,-3.26675c-5.08695,-0.50061 -9.37361,-4.0216 -14.54123,-4.61351z" data-paper-data="{&quot;index&quot;:null}" fill="#721875" stroke-width="0" stroke-linecap="butt"/><path d="M270.90761,186.86835c0,0 1.78814,7.67835 3.46834,19.942c-1.57618,-0.18462 -3.44344,-0.94674 -5.02449,-1.12902z" data-paper-data="{&quot;index&quot;:null}" fill="#3c003e" stroke-width="0" stroke-linecap="butt"/><path d="M299.67945,212.44419l9.0806,-14.14316" data-paper-data="{&quot;index&quot;:null}" fill="none" stroke-width="0" stroke-linecap="round"/><path d="M275.95162,181.37521l10.25282,7.59204l7.53569,-3.52051l5.51462,5.31272l7.85762,-5.21747l-10.75418,26.53779c-3.49376,-0.37883 -6.98667,-0.74322 -10.47803,-1.09234z" data-paper-data="{&quot;index&quot;:null}" fill="#3c003e" stroke-width="0" stroke-linecap="butt"/><path d="M278.78916,205.01412c-3.00707,-5.22242 -7.87953,-14.94304 -7.87953,-14.94304l11.82857,20.60309c-0.20017,-0.0205 -0.40041,-0.0412 -0.60076,-0.06208c-1.28078,-2.09512 -2.47307,-4.07798 -3.34829,-5.59797z" data-paper-data="{&quot;index&quot;:null}" fill="#721875" stroke-width="0" stroke-linecap="butt"/><path d="M296.3297,194.11002l-3.48628,2.15271l-0.71875,15.36507c-0.61771,-0.06491 -1.23538,-0.12935 -1.85301,-0.19333l-1.31446,-15.03266l-2.29783,-3.0327l4.89307,-7.87462z" data-paper-data="{&quot;index&quot;:null}" fill="#000000" stroke-width="0" stroke-linecap="round"/><path d="M228.59391,127.782c4.91427,-33.20555 39.96594,-55.52606 78.29015,-49.85426c38.32421,5.6718 65.40832,37.18812 60.49406,70.39366c-4.91426,33.20558 -39.96596,55.52607 -78.29016,49.85428c-38.32417,-5.6718 -65.40828,-37.18811 -60.49402,-70.39367z" data-paper-data="{&quot;index&quot;:null}" fill="#7a567b" stroke-width="0" stroke-linecap="butt"/><path d="M260.99738,142.22185c2.51601,-12.18224 6.27013,-15.67626 9.91697,-14.71382c3.64679,0.96246 5.8053,6.01684 3.28932,18.19909c-2.51603,12.1822 -6.35391,16.24235 -10.00075,15.27996c-3.64679,-0.96244 -5.72152,-6.58297 -3.20555,-18.76518z" data-paper-data="{&quot;index&quot;:null}" fill="#000000" stroke-width="0" stroke-linecap="butt"/><path d="M260.63273,127.22901l2.83836,-4.6883l32.20945,13.61579l-0.9037,1.94691z" data-paper-data="{&quot;index&quot;:null}" fill="#000000" stroke-width="0" stroke-linecap="butt"/><path d="M306.76379,140.06679l0.23543,-1.72741l35.40584,1.81124l0.68978,4.27047z" data-paper-data="{&quot;index&quot;:null}" fill="#000000" stroke-width="0" stroke-linecap="butt"/><path d="M318.36215,155.68301c-1.12041,12.38875 -4.73417,17.16742 -8.5034,17.03232c-3.76926,-0.13514 -6.26663,-5.1329 -5.14628,-17.52164c1.12042,-12.38879 4.65036,-16.6013 8.41961,-16.46623c3.76928,0.13512 6.35045,4.56672 5.23007,16.9555z" data-paper-data="{&quot;index&quot;:null}" fill="#000000" stroke-width="0" stroke-linecap="butt"/><g stroke-width="0" stroke-linecap="round"><path d="M272.12811,47.63905c0,0 33.70174,11.11395 55.26,19.57581c16.86584,6.62002 49.24197,20.21876 49.24197,20.21876c0,0 -4.91616,19.34169 -62.90381,1.0615c-61.06325,-25.37738 -41.59817,-40.85606 -41.59817,-40.85606z" data-paper-data="{&quot;index&quot;:null}" fill="#721875"/><path d="M371.46436,142.10508c0,0 -44.39704,-13.6744 -66.60528,-21.42504c-21.96731,-7.66655 -65.92924,-24.82929 -65.92924,-24.82929l4.06947,-22.31095c0,0 46.27661,20.97851 68.92537,30.52231c21.96828,9.25705 64.98805,25.90649 64.98805,25.90649l-5.44837,12.13647z" data-paper-data="{&quot;index&quot;:null}" fill="#3c003e"/><path d="M252.00869,78.12974l19.71702,-29.25087c0,0 12.43317,15.60946 52.00565,27.94904c52.09437,16.2442 53.51495,10.48417 53.51495,10.48417l-7.94784,39.70873z" data-paper-data="{&quot;index&quot;:null}" fill="#721875"/><path d="M251.05413,77.70119c0,0 42.79073,18.30597 91.44457,25.21443c29.91181,4.24724 33.79305,-16.03208 33.79305,-16.03208l-7.94784,39.70872c0,0 -33.82288,-11.65058 -51.72386,-19.11241c-20.7681,-8.65698 -65.56592,-29.77865 -65.56592,-29.77865z" data-paper-data="{&quot;index&quot;:null}" fill="#57005a"/></g><path d="M300.20166,134.65975l-1.09519,2.52448" fill="none" stroke-width="0" stroke-linecap="round"/><path d="M288.95567,193.8289c0,0 -8.41131,0.80002 -14.39241,-2.47639c-7.62895,-4.17909 -6.77637,-8.71217 -6.77637,-8.71217" fill="none" stroke-width="1.5" stroke-linecap="round"/></g></g></svg>