<svg version="1.1" xmlns="http://www.w3.org/2000/svg" xmlns:xlink="http://www.w3.org/1999/xlink" width="200.4287" height="180.84318" viewBox="0,0,200.4287,180.84318"><defs><linearGradient x1="155.87393" y1="201.07403" x2="346.99042" y2="201.07403" gradientUnits="userSpaceOnUse" id="color-1"><stop offset="0" stop-color="#715b9e"/><stop offset="1" stop-color="#8963ba"/></linearGradient></defs><g transform="translate(-151.24921,-109.40432)"><g data-paper-data="{&quot;isPaintingLayer&quot;:true}" fill-rule="nonzero" stroke-linejoin="miter" stroke-miterlimit="10" stroke-dasharray="" stroke-dashoffset="0" style="mix-blend-mode: normal"><path d="M166.42255,243.26248l-10.54864,-122.25828l191.11649,-3.76799l-16.13321,167.67566z" fill="url(#color-1)" stroke="#000000" stroke-width="8.5" stroke-linecap="butt"/><path d="M303.15377,215.09866c0,0 2.66162,6.58262 2.43496,13.27623c-0.13272,3.91983 -4.0946,9.82362 -4.0946,9.82362c0,0 -2.30463,-2.50679 -3.56653,-3.40032c-1.10341,-0.78129 -2.90494,-1.98058 -2.90494,-1.98058c0,0 -2.82235,6.8931 -5.35957,9.75907c-4.874,5.5055 -13.28716,7.94805 -13.28716,7.94805c0,0 -1.29689,-6.89667 -2.99568,-10.06301c-1.62011,-3.01968 -6.97221,-8.51593 -6.97221,-8.51593" data-paper-data="{&quot;index&quot;:null}" fill="#85789f" stroke="#000000" stroke-width="0" stroke-linecap="round"/><path d="M244.64606,239.01545c4.97394,0.01534 12.09825,-2.199 12.09825,-2.199c0,0 5.26453,6.36973 6.81096,8.70794c1.3208,1.99709 2.94602,5.97348 2.94602,5.97348c0,0 -1.64845,4.50521 -3.17544,6.1124c-2.06564,2.17414 -6.90608,5.36437 -6.90608,5.36437l1.33172,5.94202c-1.57057,-0.33958 -3.1379,-0.68173 -4.70187,-0.98509c-5.67717,-1.10121 -11.49141,-1.50995 -17.10492,-2.89967c-3.74752,-0.92776 -7.30924,-3.21898 -10.82279,-5.15932l1.10171,-2.59916c0,0 -0.31585,-6.55191 -0.69765,-9.77149c-0.37083,-3.12699 -1.92383,-12.13534 -1.92383,-12.13534c0,0 15.14605,2.63396 21.22487,2.65271z" data-paper-data="{&quot;index&quot;:null}" fill="#000000" stroke="#000000" stroke-width="0" stroke-linecap="round"/><path d="M260.83975,237.1798c0,0 -2.7873,4.87602 -4.86972,7.22157c-2.56254,2.88635 -9.36622,8.81319 -9.36622,8.81319c0,0 -2.36594,-2.14732 -5.42046,-4.94055c-0.82039,-0.75021 -3.14649,-2.63905 -3.74652,-3.23796c-2.59977,-2.59489 -7.19533,-8.15311 -7.19533,-8.15311z" data-paper-data="{&quot;index&quot;:null}" fill="#6a5f7f" stroke="#000000" stroke-width="0" stroke-linecap="round"/><path d="M250.8287,257.01844c0.00695,0.64294 -0.50866,1.16977 -1.15162,1.1767c-0.64297,0.00693 -1.16979,-0.50865 -1.17672,-1.1516c-0.00693,-0.64294 0.50865,-1.1698 1.15161,-1.17673c0.64296,-0.00693 1.16979,0.50869 1.17673,1.15163z" data-paper-data="{&quot;index&quot;:null}" fill="#000000" stroke="none" stroke-width="0" stroke-linecap="butt"/><path d="M250.66114,263.07459c0.00697,0.64294 -0.50865,1.16979 -1.1516,1.17672c-0.64296,0.00696 -1.16978,-0.50867 -1.17672,-1.15161c-0.00693,-0.64294 0.50867,-1.16978 1.15162,-1.17672c0.64294,-0.00693 1.16978,0.50869 1.17671,1.15163z" data-paper-data="{&quot;index&quot;:null}" fill="#000000" stroke="none" stroke-width="0" stroke-linecap="butt"/><path d="M245.14931,255.91027l0.30374,-9.58972l-3.28191,-0.27215l3.22847,-9.53568l4.597,9.24199l-2.89709,0.8909l0.70687,8.16531z" data-paper-data="{&quot;index&quot;:null}" fill="#000000" stroke="#000000" stroke-width="0" stroke-linecap="round"/><path d="M281.4884,130.33341c0,0 2.85063,-5.14977 9.04393,-7.09902c10.89294,-3.42843 28.28545,-4.68869 34.17614,4.17566c13.16749,19.81462 12.57097,38.52389 6.70764,48.14328c-4.75033,7.79338 -19.23568,9.21142 -19.23568,9.21142z" fill="#6a5f7f" stroke="#000000" stroke-width="0" stroke-linecap="round"/><path d="M285.92313,131.32029l7.65264,-5.79717l0.74878,5.38405c0,0 8.913,-0.64465 13.05127,-0.39077c4.37357,0.26831 13.02835,0.81199 13.02835,0.81199l-5.74343,4.46424c0,0 5.22869,3.61182 7.60852,5.9848c2.97111,2.96256 8.84112,10.41755 8.84112,10.41755l-6.42886,-2.78149c0,0 3.45997,7.34833 3.76594,11.96026c0.42582,6.41852 -2.26219,12.32098 -2.26219,12.32098l-2.85109,-5.22258c0,0 -2.02018,4.02848 -3.02548,5.72467c-0.87007,1.46801 -2.6594,3.86718 -2.6594,3.86718z" fill="#85789f" stroke="#000000" stroke-width="0" stroke-linecap="round"/><path d="M184.63347,187.6105c0,0 -9.08839,-0.58924 -16.28349,-7.6568c-5.92651,-5.82145 -12.07374,-17.3029 -0.34453,-42.38463c8.73447,-18.6777 32.03244,-19.07059 40.96532,-18.60676c14.04518,0.72929 12.98563,12.62322 12.98563,12.62322z" fill="#6a5f7f" stroke="#000000" stroke-width="0" stroke-linecap="round"/><path d="M186.2021,178.7608c0,0 -1.69005,0.54657 -2.55935,1.56208c-1.0344,1.20838 -2.46001,5.82888 -2.46001,5.82888c0,0 -3.8631,-5.60172 -4.71943,-8.52192c-0.87143,-2.97171 -1.243,-9.77478 -1.243,-9.77478c0,0 -1.81709,1.98353 -2.52523,3.18567c-0.75492,1.28161 -1.8735,4.12555 -1.8735,4.12555c0,0 -2.33987,-4.33843 -1.14738,-10.34429c0.97172,-4.89401 5.26794,-10.00547 5.26794,-10.00547l-7.71197,-8.04526l16.73708,-8.05266c0,0 7.73874,-10.39034 15.09288,-12.16058c7.35415,-1.77021 16.31537,4.60025 16.31537,4.60025z" fill="#85789f" stroke="#000000" stroke-width="0" stroke-linecap="round"/><path d="M315.22907,183.54569c0.7274,36.97198 -32.89334,57.7686 -68.4098,57.34138c-48.7687,-2.89291 -62.79583,-30.10988 -61.94734,-60.93014c0.8485,-30.82029 27.86111,-55.08032 66.2789,-54.02268c41.90561,1.15367 63.47175,26.78547 64.07822,57.61144z" fill="#85789f" stroke="#000000" stroke-width="0" stroke-linecap="butt"/><path d="M223.40782,230.24322c0,0 -4.19741,3.44289 -6.19843,6.57895c-2.09819,3.28835 -4.28556,10.81858 -4.28556,10.81858c0,0 -8.0221,-4.02471 -12.13483,-10.9403c-2.14095,-3.6 -4.03814,-11.75662 -4.03814,-11.75662c0,0 -1.94296,1.0683 -3.13908,1.77498c-1.36794,0.80821 -3.98058,3.26472 -3.98058,3.26472c0,0 -3.15633,-7.22231 -2.77554,-11.63535c0.65026,-7.53584 3.27957,-11.22851 3.27957,-11.22851" fill="#85789f" stroke="#000000" stroke-width="0" stroke-linecap="round"/><path d="M258.10893,188.74186c0,0 -2.03387,2.78966 14.68384,1.29988c23.30438,0.10611 25.48814,8.17531 25.48814,8.17531" data-paper-data="{&quot;index&quot;:null}" fill="none" stroke="#000000" stroke-width="1" stroke-linecap="round"/><path d="M295.12045,193.40932c0,0 3.98252,-0.72052 4.99708,-0.97069c1.07833,-0.26589 2.93352,-1.2098 2.93352,-1.2098c0,0 -0.62054,1.57291 -1.01153,2.25991c-0.37505,0.65896 -1.28859,1.7815 -1.28859,1.7815c0,0 1.15471,0.4308 1.71467,0.57572c0.42899,0.11104 1.35807,0.21956 1.35807,0.21956c0,0 -1.15561,1.24275 -1.8874,1.52475c-0.75637,0.29147 -3.46364,0.92612 -3.46364,0.92612" data-paper-data="{&quot;index&quot;:null}" fill="#000000" stroke="#000000" stroke-width="0" stroke-linecap="round"/><g data-paper-data="{&quot;index&quot;:null}" fill="#000000" stroke="#000000" stroke-width="0"><path d="M209.81878,122.68165c0,0 -0.13423,-0.97934 -0.337,-2.66656c14.53576,-1.66297 29.07153,-3.32595 43.60729,-4.98892c15.57418,-1.78177 32.31492,-4.65712 47.97528,-5.51396c1.12477,-0.06154 2.21555,-0.0942 3.28115,-0.10789c-6.50417,12.81803 -17.32482,26.26218 -17.32482,26.26218z" stroke-linecap="butt"/><path d="M297.25251,134.79268c11.45011,5.81053 -4.86025,11.85029 -4.86025,11.85029l-90.98659,-12.06509c0,0 -1.9774,-7.51795 -1.27146,-13.49338c10.8807,-1.24481 21.7614,-2.48963 32.64209,-3.73444c18.49284,3.83958 42.00185,10.09839 59.3853,15.46511c2.10501,0.64987 5.23607,-5.84233 6.54703,-5.17705z" stroke-linecap="round"/></g><path d="M250.09299,155.60559c0,0 -5.46722,1.07007 -9.09834,5.0915c-2.88824,2.11745 -3.97007,10.81035 -3.97007,10.81035c0,0 -4.89591,-3.6775 -5.62831,-4.80379c-1.10406,-1.69784 -3.20441,-6.56137 -3.20441,-6.56137c0,0 -4.94549,4.00709 -6.81314,6.46578c-2.15258,2.83374 -5.36928,9.57179 -5.36928,9.57179c0,0 -3.85049,-9.00111 -3.13073,-14.09955c0.27793,-5.36046 2.52059,-9.34515 2.52059,-9.34515c0,0 -2.50987,-0.94043 -5.77403,-1.45378c-2.88732,-0.20001 -8.83264,1.6908 -8.83264,1.6908c0,0 7.42566,-14.66692 13.32788,-17.30914c7.87589,-4.17159 13.2908,-0.92654 13.2908,-0.92654c0,0 0.21587,-2.23392 0.47069,-5.45507c0.27889,-3.52556 -3.54904,-10.37742 -3.54904,-10.37742c0,0 15.25475,2.54467 20.31664,5.51763c5.66797,3.32887 20.25947,17.81176 20.25947,17.81176" fill="#85789f" stroke="#000000" stroke-width="0" stroke-linecap="round"/><path d="M232.52958,245.66883c0,0 -0.23118,2.7384 0.02431,4.22307c0.25982,1.50991 1.2097,4.20103 1.2097,4.20103c0,0 -2.69416,-0.78594 -3.85663,-1.22263c-1.08097,-0.4061 -2.89147,-1.31245 -2.89147,-1.31245c0,0 -2.5099,0.12062 -4.1104,0.54583c-1.43602,0.38151 -3.82661,1.55323 -3.82661,1.55323c0,0 0.47882,-3.19865 0.88852,-4.72657c0.36869,-1.37514 1.45955,-4.03093 1.45955,-4.03093c0,0 -1.34702,-2.13413 -1.98575,-3.42214c-0.64697,-1.30456 -3.14241,-3.25458 -3.14241,-3.25458c0,0 4.87449,-1.0491 7.01478,-1.05361c2.09224,-0.00439 6.16168,0.75324 6.16168,0.75324" data-paper-data="{&quot;index&quot;:null}" fill="#000000" stroke="#000000" stroke-width="0" stroke-linecap="round"/><path d="M258.5561,237.90027c0,0 4.23135,-1.01991 6.40621,-1.12866c2.2248,-0.11128 7.29024,0.73143 7.29024,0.73143c0,0 -2.59705,2.19265 -3.27158,3.60413c-0.66594,1.39355 -2.06949,3.71819 -2.06949,3.71819c0,0 1.12977,2.74289 1.51094,4.17377c0.42347,1.58982 0.91634,4.93867 0.91634,4.93867c0,0 -2.48323,-1.10666 -3.97539,-1.43135c-1.66306,-0.36188 -4.2719,-0.35312 -4.2719,-0.35312c0,0 -1.88346,1.05441 -3.00776,1.54145c-1.20906,0.52377 -4.01084,1.49898 -4.01084,1.49898c0,0 0.99157,-2.89081 1.26399,-4.49793c0.2679,-1.58027 0.03181,-4.45694 0.03181,-4.45694" data-paper-data="{&quot;index&quot;:null}" fill="#000000" stroke="#000000" stroke-width="0" stroke-linecap="round"/><path d="M200.10907,203.07472c0,0 -2.26357,-1.96796 -2.63499,-2.49827c-0.35933,-0.51307 -0.6267,-2.07266 -0.6267,-2.07266c0,0 0.63182,0.21297 0.94647,0.25405c0.41072,0.05362 1.30734,0.04021 1.30734,0.04021c0,0 -0.15864,-1.36455 -0.14919,-2.11094c0.00985,-0.77815 0.20711,-2.46661 0.20711,-2.46661c0,0 0.82482,1.51591 1.41064,2.13129c0.55121,0.579 4.79134,2.40111 4.79134,2.40111" data-paper-data="{&quot;index&quot;:null}" fill="#000000" stroke="#000000" stroke-width="0" stroke-linecap="round"/><path d="M200.9252,202.42763c0,0 3.69935,-9.18338 26.39227,-9.97951c14.47929,-0.91322 14.72264,-4.28142 14.72264,-4.28142" data-paper-data="{&quot;index&quot;:null}" fill="none" stroke="#000000" stroke-width="1" stroke-linecap="round"/><path d="M264.18563,208.59374l-0.90258,0.90848l-1.76561,0.4033" fill="none" stroke="#000000" stroke-width="0" stroke-linecap="round"/><path d="M231.40171,192.64975c0.11443,3.44657 -0.95437,6.509 -1.77141,6.4498c-1.2006,-0.08699 -1.26346,-3.48127 -1.43998,-6.6216" fill="none" stroke="#000000" stroke-width="1" stroke-linecap="butt"/><path d="M267.32021,190.64504c0,6.87143 -1.69543,10.36572 -3.09507,10.41178c-1.7713,0.05829 -3.21816,-3.31284 -2.97362,-10.67335" fill="#000000" stroke="#000000" stroke-width="1" stroke-linecap="butt"/><path d="M239.62323,238.69637c0,0 0.43394,-2.02657 5.87153,-1.21859c6.04472,-0.18726 6.09954,1.30545 6.09954,1.30545" fill="none" stroke="#000000" stroke-width="1.5" stroke-linecap="round"/><path d="M277.28861,186.69654c0,0 -3.30595,1.6604 -7.09928,0.15906c-5.2105,-2.06224 -5.83634,-4.16781 -5.83634,-4.16781" fill="none" stroke="#000000" stroke-width="1" stroke-linecap="round"/><path d="M297.76454,278.29386c-4.31171,7.42847 -12.86481,8.47515 -27.98809,3.8836c-12.9506,-3.9319 -14.71093,-10.71857 -11.79009,-17.22922c3.18534,-7.10022 10.77181,-10.28335 25.10989,-4.71816c16.24568,6.30561 18.392,11.64834 14.66829,18.06377z" fill="#7c7095" stroke="#000000" stroke-width="0" stroke-linecap="butt"/><path d="M233.65354,191.97837c0,6.87143 -1.69543,10.36571 -3.09507,10.41178c-1.7713,0.05829 -3.21816,-3.31284 -2.97362,-10.67335" fill="#000000" stroke="#000000" stroke-width="1" stroke-linecap="butt"/><path d="M224.76454,259.79386c-4.31171,7.42847 -12.86481,8.47515 -27.98809,3.8836c-12.9506,-3.9319 -14.71093,-10.71857 -11.79009,-17.22922c3.18534,-7.10022 10.77181,-10.28335 25.10989,-4.71816c16.24568,6.30561 18.392,11.64834 14.66829,18.06377z" fill="#7c7095" stroke="#000000" stroke-width="0" stroke-linecap="butt"/></g></g></svg>