<svg version="1.1" xmlns="http://www.w3.org/2000/svg" xmlns:xlink="http://www.w3.org/1999/xlink" width="218.39185" height="218.00537" viewBox="0,0,218.39185,218.00537"><defs><linearGradient x1="112.33037" y1="195.06802" x2="303.44686" y2="195.06802" gradientUnits="userSpaceOnUse" id="color-1"><stop offset="0" stop-color="#15111d"/><stop offset="1" stop-color="#7b6f8b"/></linearGradient></defs><g transform="translate(-89.74253,-66.23612)"><g data-paper-data="{&quot;isPaintingLayer&quot;:true}" fill-rule="nonzero" stroke-linejoin="miter" stroke-miterlimit="10" stroke-dasharray="" stroke-dashoffset="0" style="mix-blend-mode: normal"><path d="M122.87901,237.25647l-10.54864,-122.25828l191.11649,-3.76799l-16.13321,167.67566z" fill="url(#color-1)" stroke="#000000" stroke-width="8.5" stroke-linecap="butt"/><g><path d="M217.67101,234.24148c0,7.09345 -10.83405,12.84383 -24.19852,12.84383c-13.36447,0 -24.19852,-5.75038 -24.19852,-12.84383c0,-7.09345 10.83405,-12.84383 24.19852,-12.84383c13.36447,0 24.19852,5.75038 24.19852,12.84383z" fill="#000000" stroke="none" stroke-width="0" stroke-linecap="butt"/><path d="M222.27784,243.06422c-0.94757,4.55873 -4.83161,8.0637 -10.35986,10.05834c-12.71018,-2.37084 -25.4186,-4.7516 -38.13065,-7.11241c-5.03044,-4.22656 -7.6738,-9.41181 -6.6448,-14.36229c0.37844,-1.82069 2.95481,-6.48259 5.91332,-5.61083c5.16256,1.52119 12.25004,9.99514 16.31517,8.81073c5.38691,-1.56952 4.39803,0.75624 11.35946,2.19769c2.65589,0.54993 2.62206,-15.0529 4.96419,-14.12577c11.08437,4.38769 18.16327,12.54291 16.58321,20.14458z" data-paper-data="{&quot;index&quot;:null}" fill="#000000" stroke="#000000" stroke-width="0" stroke-linecap="butt"/><path d="M211.51694,242.92724l5.21184,19.0049c-0.80357,-0.14978 -2.77174,-8.42933 -2.82018,-8.43836c-0.74905,-0.13965 2.96677,9.79529 2.21293,9.69878c-12.1273,-1.55262 -29.3032,-7.92114 -41.35475,-10.16099l0.23463,-12.92153z" data-paper-data="{&quot;index&quot;:null}" fill="#000000" stroke="#000000" stroke-width="0" stroke-linecap="butt"/><path d="M129.24096,169.74185c0.00201,-33.77842 28.93703,-60.21644 64.62824,-59.05087c35.69121,1.16555 64.62308,29.49323 64.62106,63.27167c-0.00157,26.71341 -18.19538,48.58902 -43.41913,56.09807c-6.67104,1.98595 -13.74401,3.19657 -21.2091,2.95279c-35.69121,-1.16551 -64.62306,-29.49319 -64.62105,-63.27163z" data-paper-data="{&quot;index&quot;:null}" fill="#5d5d5d" stroke="#000000" stroke-width="0" stroke-linecap="butt"/><path d="M254.01095,181.62566c-0.03199,-0.10871 -0.06429,-0.23126 -0.09653,-0.33986c0.00544,-0.30945 0.01909,-0.64111 0.01184,-0.95014c-0.00206,-0.08793 -0.00291,-0.17809 -0.00789,-0.26595c0.66366,0.82831 1.3397,1.79871 1.90178,2.74223c-0.14616,-0.2124 -0.29009,-0.42676 -0.43232,-0.64277c0,0 -0.5723,-0.80259 -1.37687,-0.54351z" data-paper-data="{&quot;noHover&quot;:true,&quot;origItem&quot;:[&quot;Path&quot;,{&quot;applyMatrix&quot;:true,&quot;segments&quot;:[[[173.40998,405.92469],[0,0],[0.08595,-0.292]],[[173.66834,405.04887],[-0.0866,0.2917],[-0.0146,-0.83122]],[[173.67034,402.55674],[-0.01947,0.83008],[0.00554,-0.23621]],[[173.69946,401.84845],[-0.01338,0.236],[-1.78268,2.22495]],[[168.70505,409.05005],[1.5098,-2.5344],[0.3926,-0.57051]],[[169.86731,407.3242],[-0.38205,0.58025],[0,0]],[[173.41,405.92467],[-2.16118,-0.69593],[0,0]]],&quot;closed&quot;:true,&quot;fillColor&quot;:[0,0,0,1]}],&quot;index&quot;:null}" fill="#000000" stroke="none" stroke-width="0" stroke-linecap="butt"/><path d="M163.1763,224.3945c0,0 -0.21884,1.97087 -0.26731,3.33876c-0.10125,2.85718 0.63959,3.61055 0.63959,3.61055c0,0 -2.62913,-0.25045 -4.84644,-2.15402c-1.24345,-0.81369 -1.85469,-2.93387 -1.85469,-2.93387c0,0 -2.13999,0.96868 -4.04973,3.0146c-1.9252,2.15832 -1.65863,7.53348 -1.65863,7.53348c0,0 -9.25456,-4.64563 -13.78424,-17.30175c-3.75595,-10.49429 -0.61078,-14.83885 -0.61078,-14.83885c0,0 -6.1998,-0.39921 -9.19647,-1.43652c-3.40417,-1.17836 -10.16235,-5.26461 -10.16235,-5.26461c0,0 7.49075,-2.59932 6.39586,-17.83517c-0.66795,-9.29485 12.96296,-19.76561 12.96296,-19.76561" data-paper-data="{&quot;index&quot;:null}" fill="#5d5d5d" stroke="#000000" stroke-width="0" stroke-linecap="round"/><path d="M208.38413,112.65236c0,0 12.86572,1.22009 14.62474,0.933c6.74677,-1.10114 30.56891,1.99983 52.79319,14.53188c26.66743,15.03751 30.37769,36.55954 30.37769,36.55954c0,0 -9.70259,-5.01113 -21.91199,3.69319c-12.70265,9.58321 -19.36282,4.57451 -19.36282,4.57451c0,0 6.15727,9.25897 8.01853,21.16732c3.22825,16.85922 -17.10409,38.41363 -17.10409,38.41363c0,0 3.64546,-13.59261 -5.70554,-21.45546c-12.58609,-10.58311 -14.47447,-20.73958 -14.47447,-20.73958" data-paper-data="{&quot;index&quot;:null}" fill="#5d5d5d" stroke="#000000" stroke-width="0" stroke-linecap="round"/><path d="M202.75166,116.40189c0.94802,6.27868 -9.18146,18.93162 -22.81751,29.17578c-27.80134,20.8859 -40.23017,26.4249 -48.24885,25.16703c-6.81812,-1.06954 -41.94277,-30.48401 -41.94277,-30.48401l45.77529,-9.81221l-10.13069,-36.68298l36.52764,12.08968l14.43639,-39.61906c0,0 25.55604,44.5729 26.40051,50.16576z" data-paper-data="{&quot;index&quot;:null}" fill="#000000" stroke="#000000" stroke-width="0" stroke-linecap="round"/><path d="M140.9833,178.98247l60.45897,2.92525" data-paper-data="{&quot;index&quot;:null}" fill="none" stroke="#000000" stroke-width="2" stroke-linecap="round"/><path d="M203.94151,114.07613c0,0 21.91124,-6.09655 30.65958,-10.36703c8.53305,-4.16537 21.60901,-15.32064 21.60901,-15.32064c0,0 6.96104,13.2483 6.74207,21.95904c-0.2318,9.22074 -3.06694,12.29118 -3.06694,12.29118" data-paper-data="{&quot;index&quot;:null}" fill="#5d5d5d" stroke="#000000" stroke-width="0" stroke-linecap="round"/><path d="M209.85602,182.28l46.31215,0.28346" data-paper-data="{&quot;index&quot;:null}" fill="none" stroke="#000000" stroke-width="2" stroke-linecap="round"/><path d="M208.16075,184.26926c0,-1.93485 0.3386,-2.15816 0.3386,-2.15816c0,0 8.44018,0.76776 9.9771,-0.20275c0.61653,2.58201 0.97694,-0.99921 0.97694,2.3609c0,8.89889 -1.78338,20.208 -6.01861,20.208c-4.60752,0 -5.27404,-11.30911 -5.27404,-20.208z" data-paper-data="{&quot;index&quot;:null}" fill="#000000" stroke="#000000" stroke-width="0" stroke-linecap="butt"/><path d="M204.80216,179.62828l0.18614,2.79214" data-paper-data="{&quot;index&quot;:null}" fill="none" stroke="#000000" stroke-width="0" stroke-linecap="round"/><path d="M154.55172,182.03555c0,-1.93485 0.3386,-2.15816 0.3386,-2.15816c0,0 8.44018,0.76776 9.9771,-0.20275c0.61653,2.58201 0.97694,-0.99921 0.97694,2.3609c0,8.89889 -1.78338,20.208 -6.01861,20.208c-4.60752,0 -5.27404,-11.30911 -5.27404,-20.208z" data-paper-data="{&quot;index&quot;:null}" fill="#000000" stroke="#000000" stroke-width="0" stroke-linecap="butt"/><path d="M187.30688,230.10103l9.30712,1.48914" fill="none" stroke="#000000" stroke-width="1" stroke-linecap="round"/></g></g></g></svg>