<svg version="1.1" xmlns="http://www.w3.org/2000/svg" xmlns:xlink="http://www.w3.org/1999/xlink" width="200.43892" height="176.642" viewBox="0,0,200.43892,176.642"><defs><linearGradient x1="144.11549" y1="182.82313" x2="335.23197" y2="182.82313" gradientUnits="userSpaceOnUse" id="color-1"><stop offset="0" stop-color="#000000"/><stop offset="1" stop-color="#5329d3"/></linearGradient></defs><g transform="translate(-139.486,-94.33904)"><g data-paper-data="{&quot;isPaintingLayer&quot;:true}" fill-rule="nonzero" stroke-linejoin="miter" stroke-miterlimit="10" stroke-dasharray="" stroke-dashoffset="0" style="mix-blend-mode: normal"><path d="M154.66413,224.50836l-10.54864,-120.80001l191.11649,-3.72305l-16.13321,165.67566z" fill="url(#color-1)" stroke="#000000" stroke-width="8.5" stroke-linecap="butt"/><path d="M225.60735,236.62794c0,0 -0.11405,2.78017 -1.8776,6.41952c-15.01011,-3.42528 -30.01223,-7.12544 -45.11492,-10.03845c-5.90431,-1.13882 -11.86924,-1.93419 -17.81176,-2.85646c-0.51175,-4.50762 -0.44702,-8.61447 0.99843,-10.46482c3.01222,-5.53348 11.94419,-11.10669 12.24851,-11.29552c-0.24295,0.14945 -5.98991,3.61444 -10.54946,-0.14751c-5.23628,-3.47906 -15.49992,-8.04905 -15.49992,-8.04905c0,0 11.45821,-6.12413 11.2722,-22.4589c-0.12981,-11.39901 7.12948,-17.97017 9.52998,-19.42469c11.827,-7.16634 28.06738,-2.48947 28.06738,-2.48947z" data-paper-data="{&quot;index&quot;:null}" fill="#200081" stroke="#000000" stroke-width="0" stroke-linecap="butt"/><path d="M279.5037,155.48185c0,0 15.06252,-7.66444 28.03157,-2.86465c2.6323,0.9742 11.00352,6.05357 13.03228,17.27135c2.90721,16.07507 15.31698,19.92122 15.31698,19.92122c0,0 -9.21391,6.42894 -13.69756,10.83567c-3.76564,4.55652 -10.06429,2.24116 -10.33111,2.14038c0.33454,0.12784 10.15949,3.91089 14.16403,8.77469c4.93542,4.30546 2.64313,27.88318 2.64313,27.88318c0,0 -7.12173,-9.20643 -13.86559,-6.33116c-5.18727,3.9547 -9.59894,3.09686 -9.59894,3.09686c0,0 3.18827,8.75723 3.59912,14.01976c0.19294,3.26665 -1.28884,7.1137 -3.37422,10.81588c-7.04345,-1.48432 -14.0804,-2.99722 -21.11333,-4.5292c-1.02927,-0.83969 -2.15018,-1.52541 -3.36785,-1.9958c-12.11677,-4.68085 -14.37183,-14.2557 -14.37183,-14.2557z" data-paper-data="{&quot;index&quot;:null}" fill="#200081" stroke="#000000" stroke-width="0" stroke-linecap="butt"/><path d="M273.20937,252.31447c-0.73631,0.43865 -1.53877,0.85138 -2.39966,1.2387c-13.93933,-3.0789 -27.86903,-6.20889 -41.80832,-9.31583c-5.59277,-1.24658 -11.18265,-2.54856 -16.77528,-3.85103c1.186,-1.2791 2.37496,-1.92462 2.37496,-1.92462c0,0 10.27145,5.41537 23.46981,5.74558c14.11213,0.35307 34.40074,-6.7897 34.40074,-6.7897c0,0 12.12659,8.11208 0.73774,14.89688z" data-paper-data="{&quot;index&quot;:null}" fill="#000000" stroke="#000000" stroke-width="0" stroke-linecap="butt"/><path d="M233.63296,128.40339c33.74881,-5.9977 65.61214,14.99201 71.16872,46.88185c5.55658,31.88981 -17.29774,62.60375 -51.04658,68.60145c-33.74881,5.9977 -65.61213,-14.99201 -71.1687,-46.88186c-5.55658,-31.88983 17.29774,-62.60374 51.04658,-68.60144z" data-paper-data="{&quot;index&quot;:null}" fill="#3800e0" stroke="#000000" stroke-width="0" stroke-linecap="butt"/><path d="M234.33525,135.63867c31.15495,-5.53673 60.5693,13.83972 65.69881,43.27858c5.12953,29.43883 -15.96825,57.79214 -47.1232,63.32887c-31.15494,5.53672 -60.5693,-13.83977 -65.69881,-43.27859c-5.12953,-29.43883 15.96824,-57.79213 47.1232,-63.32886z" data-paper-data="{&quot;index&quot;:null}" fill="#3800e0" stroke="#000000" stroke-width="0" stroke-linecap="butt"/><path d="M234.38181,128.25124c18.73771,-3.00064 49.29867,-13.05737 57.08571,-10.80535c7.78705,2.25203 6.39445,29.16393 6.39445,29.16393c0,0 -40.97602,-1.42233 -60.96426,1.54583c-20.17363,2.99572 -57.26042,17.9557 -57.26042,17.9557c0,0 -9.9803,-11.19683 0.05537,-19.62524c17.3244,-14.54981 35.2968,-15.12943 54.68916,-18.23489z" data-paper-data="{&quot;index&quot;:null}" fill="#000000" stroke="#000000" stroke-width="0" stroke-linecap="round"/><path d="M299.02977,202.80309c0,0 -6.75673,29.64769 -38.99529,37.40126c-30.63782,7.00363 -56.23875,-7.27952 -56.23875,-7.27952c0,0 -8.1781,-5.82336 -11.40397,-13.26206c-4.8594,-11.2056 -13.91479,-48.28734 -13.91479,-48.28734l118.31215,-9.99214z" data-paper-data="{&quot;index&quot;:null}" fill="#3800e0" stroke="#000000" stroke-width="0" stroke-linecap="round"/><path d="M178.4116,150.19645c0,0 -13.07508,-43.40096 36.95852,-52.26706c61.6094,-16.12128 71.86137,27.27369 71.86137,27.27369z" data-paper-data="{&quot;index&quot;:null}" fill="#000000" stroke="#000000" stroke-width="0" stroke-linecap="round"/><path d="M309.27378,214.89907l-14.67231,-4.43394l4.21895,-21.37109l-13.51076,-0.61668l2.26495,-15.49127l1.89696,-11.90519l19.48741,3.57819" data-paper-data="{&quot;index&quot;:null}" fill="#3400ca" stroke="#000000" stroke-width="0" stroke-linecap="round"/><path d="M247.62948,196.67156c0,0 13.51928,-3.56467 20.64582,-4.99352c11.15554,-2.23664 30.79704,-2.59507 30.79704,-2.59507" fill="none" stroke="#000000" stroke-width="4.5" stroke-linecap="round"/><path d="M299.61205,223.13993l-13.84103,-0.45792l9.67244,-23.02699l-8.17934,-10.91883c0,0 4.84254,-10.73059 8.14102,-13.30216c4.30142,-3.3535 15.46684,-5.1032 15.46684,-5.1032" data-paper-data="{&quot;index&quot;:null}" fill="#200081" stroke="#000000" stroke-width="0" stroke-linecap="round"/><path d="M182.82405,186.62655c0,0 11.29157,0.45794 15.94677,3.29625c3.56977,2.17652 9.60283,12.28152 9.60283,12.28152l-6.88208,11.78518l12.23188,21.76703l-13.0829,1.95028c-0.23322,-0.05319 -0.46645,-0.10632 -0.6997,-0.15937z" data-paper-data="{&quot;index&quot;:null}" fill="#200081" stroke="#000000" stroke-width="0" stroke-linecap="round"/><path d="M292.72752,139.881c0,0 9.75757,7.27938 12.99455,11.2722c3.29599,4.0656 11.4774,17.93321 9.70568,34.48654c-0.47451,4.43338 -4.02226,12.24499 -5.75514,17.68615c-5.91749,18.58061 -5.26598,29.33836 -5.26598,29.33836c0,0 -8.77437,-6.75963 -12.74156,-12.22145c-4.07586,-5.61141 -11.39641,-21.01036 -11.39641,-21.01036c0,0 -11.29754,-5.608 -16.77886,-7.33142c-6.82593,-2.14621 -22.33853,-14.88839 -22.33853,-14.88839c0,0 -6.82498,16.27911 -13.46271,19.85775c-5.59301,3.01536 -15.80211,30.12012 -20.13487,42.229c-2.35583,-0.54678 -4.71241,-1.09095 -7.07019,-1.62838c-4.78435,-6.6634 -12.26287,-16.09069 -19.24466,-20.76363c-10.34753,-6.92567 -8.0368,-25.10427 -8.0368,-25.10427c0,0 -2.02744,-14.4603 -0.39067,-19.49377c1.46969,-4.5196 7.44106,-16.96631 7.44106,-16.96631z" data-paper-data="{&quot;index&quot;:null}" fill="#3400ca" stroke="#000000" stroke-width="0" stroke-linecap="round"/><path d="M290.2256,140.47806c0,0 9.30215,6.86088 12.38463,10.6288c3.13869,3.83659 10.92153,16.92989 9.194,32.58426c-0.73645,6.67366 -5.34064,16.06658 -6.99855,24.48636c-2.23106,11.33045 0.41588,20.82519 -1.74323,20.52147c-3.68877,-0.51888 -24.86246,-31.89007 -24.86246,-31.89007c0,0 -10.77631,-5.27728 -16.0069,-6.89466c-6.51367,-2.01413 -21.29973,-14.02723 -21.29973,-14.02723c0,0 -6.55246,15.40625 -12.89874,18.80429c-6.08173,3.25639 -18.73629,36.41162 -21.68496,44.31964c-0.72417,-0.16774 -1.44842,-0.33516 -2.17275,-0.50214c-3.89433,-5.34423 -14.68139,-19.19839 -27.20282,-27.11695c-7.06381,-4.46715 -0.95905,-21.56072 -0.95905,-21.56072c0,0 -1.90493,-13.66716 -0.33107,-18.42969c1.41318,-4.27635 7.14224,-16.05733 7.14224,-16.05733z" data-paper-data="{&quot;index&quot;:null}" fill="#27009a" stroke="#000000" stroke-width="0" stroke-linecap="round"/><path d="M223.93166,194.26976c0,0 -21.30063,0.42165 -30.30512,1.45277c-7.28368,0.83407 -19.66249,4.26921 -19.66249,4.26921c0,0 -1.05179,-1.29934 -2.95067,-10.11295c-2.15147,-9.98614 0.75993,-11.79073 0.75993,-11.79073c0,0 23.45168,3.20375 33.38249,5.46946c7.79608,1.77867 21.3633,7.02077 21.3633,7.02077z" data-paper-data="{&quot;index&quot;:null}" fill="#000000" stroke="#000000" stroke-width="0" stroke-linecap="round"/><path d="M222.88748,232.76706c-16.92846,-1.51418 -26.29437,-42.86646 -26.29437,-42.86646c0,0 8.46873,-2.52242 22.50669,-1.00028c8.77385,0.95135 21.70961,6.43825 21.70961,6.43825c0,0 -0.99348,38.94269 -17.92192,37.42849z" data-paper-data="{&quot;index&quot;:null}" fill="#000000" stroke="#000000" stroke-width="0" stroke-linecap="round"/><path d="M251.60922,199.66307c-0.10628,-4.02144 0.43975,-3.10691 0.43975,-3.10691c0,0 9.79526,-4.01597 13.61591,-4.73743c2.86158,-0.54035 7.44063,-0.78606 7.44063,-0.78606c0,0 0.90588,1.28944 1.05356,6.87717c0.3955,14.964 -4.33186,27.48717 -10.55885,27.9713c-6.22696,0.48415 -11.59554,-11.25411 -11.99102,-26.21808z" data-paper-data="{&quot;index&quot;:null}" fill="#000000" stroke="#000000" stroke-width="0" stroke-linecap="butt"/><path d="M299.81774,202.13164c0,0 -4.86707,9.4146 -5.70829,14.34369c-0.61159,3.58367 -5.34064,14.186 -5.34064,14.186c0,0 -2.20823,-12.76476 -7.84088,-16.93774c-15.20006,-9.59621 -12.31859,-22.99653 -12.31859,-22.99653c0,0 -1.75545,5.93233 -1.93197,8.49135c-0.14881,2.15707 0.94168,5.86402 0.94168,5.86402c0,0 -8.2345,-9.71874 -9.37523,-12.32681c-1.12063,-2.56211 -2.56312,-7.83187 -2.56312,-7.83187c0,0 -2.10288,2.63276 -2.97573,3.80674c-0.93312,1.25503 -0.48952,4.60845 -0.48952,4.60845c0,0 -1.95584,-5.60529 -6.62012,-9.79186c-2.49153,-2.23633 -3.24191,-7.49431 -3.24191,-7.49431" data-paper-data="{&quot;index&quot;:null}" fill="#27009a" stroke="#000000" stroke-width="0" stroke-linecap="round"/><path d="M251.33162,181.90891c0,0 -5.93452,3.96716 -8.72767,6.68097c-2.27237,2.20783 -2.62102,6.15898 -3.81134,8.4224c-2.05201,3.90195 -4.02059,5.67563 -4.02059,5.67563c0,0 3.27588,-1.78647 0.59093,-15.37093c-0.91476,-4.62817 3.89101,-14.55604 3.89101,-14.55604" fill="#27009a" stroke="#000000" stroke-width="0" stroke-linecap="round"/><path d="M292.77585,207.9697c0.56304,-0.20335 0.76639,0.35969 0.76639,0.35969l0.24507,0.67855c0.18153,0.50264 0.48207,1.16306 0.81688,1.90018c0.27338,-2.73227 1.64452,-5.12948 2.85442,-7.86919l0.2535,-0.63999c0.08827,-0.23906 0.32395,-0.40383 0.59189,-0.39029c0.10547,0.00533 0.20319,0.03766 0.28679,0.08994l0.03634,-0.04144c0.1138,-0.13211 0.28388,-0.21338 0.47073,-0.20803c0.20547,-0.5243 0.40849,-1.04641 0.60051,-1.56682l0.00231,-0.0028l-0.0011,-0.00042l0.36346,-0.95125c0.08628,-0.24269 0.32389,-0.41072 0.59433,-0.39704c0.3302,0.0167 0.58435,0.29789 0.56766,0.62809c-0.00195,0.0386 -0.00751,0.07614 -0.01634,0.11236l-0.26021,1.15689l-0.13456,-0.03026c-0.01488,0.22604 -0.03579,0.44935 -0.06238,0.67014c0.14513,-0.1121 0.40191,-0.22654 0.70938,0.00168c0.48069,0.35679 0.12392,0.83748 0.12392,0.83748c-0.39648,0.53415 -0.74434,1.06839 -1.06048,1.6093l-0.27322,0.89759l-0.14458,-0.044c-0.06913,0.13635 -0.14146,0.28397 -0.21689,0.43901c-0.31538,1.03355 -0.82183,1.96558 -1.37655,2.98803l-0.14649,0.48127c-0.55389,2.45302 -1.47911,4.88641 -1.95649,7.349c0.0009,0.00817 0.00177,0.01632 0.00264,0.02446c0.09506,0.20194 0.19226,0.40225 0.2922,0.60047l0.00016,0.04376l0.01464,-0.00502l0.34381,1.00376c0.02712,0.07359 0.04015,0.15376 0.03594,0.23705c-0.0167,0.3302 -0.29789,0.58435 -0.62809,0.56766c-0.21178,-0.0107 -0.3923,-0.13024 -0.49011,-0.30172c-0.1159,0.14901 -0.30026,0.24097 -0.5031,0.23072c-0.24205,-0.01223 -0.44322,-0.16661 -0.52683,-0.37821l-0.45864,-1.09159l0.09797,-0.04116c-1.02418,-1.78975 -1.55279,-3.64049 -1.77086,-5.82541l-0.10721,-1.07415c-0.00382,-0.03274 -0.00497,-0.06626 -0.00325,-0.10028c0.00394,-0.07804 0.02267,-0.15185 0.05333,-0.21881c-0.03356,-0.09502 -0.06738,-0.18977 -0.10149,-0.28425l-0.24507,-0.67855c0,0 -0.20334,-0.56304 0.35969,-0.76639zM295.7469,213.57994c0.11758,-0.45065 0.24091,-0.90026 0.36589,-1.34985c-0.07614,0.16797 -0.15155,0.3366 -0.22596,0.50599l-0.24766,0.56382c0.03664,0.09345 0.07262,0.18685 0.10776,0.28003z" fill="#27009a" stroke="none" stroke-width="0" stroke-linecap="butt"/><path d="M156.56214,178.34803c0,0 58.83124,7.90031 71.25563,3.43517c20.69067,-7.43588 -21.83082,3.82561 4.23584,-0.40264c10.43039,-1.6919 12.44778,18.30982 8.3011,19.66115c-7.86477,2.56301 -9.99118,4.84882 -9.99118,4.84882c0,0 -74.49031,-11.70053 -76.59619,-12.19441c-7.94048,-1.86221 2.28017,-13.28943 2.28017,-13.28943z" fill="#000000" stroke="#000000" stroke-width="0" stroke-linecap="round"/><path d="M236.14499,131.91098l-3.27638,-3.71538l-0.68313,5.60411l-2.96523,1.34072l-20.98838,-19.07842l6.19906,-3.22049l13.10766,10.80782l0.22273,-9.57647l6.74335,7.15881l6.40291,-17.81667l6.58275,2.17999l-6.52926,25.2303l-3.00658,0.52893z" data-paper-data="{&quot;index&quot;:null}" fill="#000000" stroke="#301c6d" stroke-width="0" stroke-linecap="round"/><path d="M218.12666,206.27002l2.68324,-8.28032l3.7692,7.30798l7.86708,-0.27846l-6.19977,5.4318l4.68834,8.70242l-9.01003,-4.54277l-8.3127,6.19037l3.54124,-9.44104l-6.9253,-2.61011z" fill="#000000" stroke="#200081" stroke-width="2" stroke-linecap="round"/><path d="M251.13399,242.06458l-9.93033,-0.66202" fill="none" stroke="#000000" stroke-width="1.5" stroke-linecap="round"/><path d="M217.97237,157.74149c0,0 -6.01965,0.1701 -10.95598,0.10545c-4.85336,-0.06358 -13.40937,-2.66534 -13.40937,-2.66534c0,0 2.85116,-1.80744 7.49714,-7.46687c2.33393,-2.84305 10.84725,-5.48815 10.84725,-5.48815c0,0 -4.02432,-3.3535 -6.30015,-5.00741c-2.47538,-1.79892 -8.00384,-5.38767 -8.00384,-5.38767c0,0 8.02216,-3.96135 15.4732,-2.5359c5.13477,0.98233 15.88489,3.44461 15.88489,3.44461c0,0 -1.345,-5.14104 -1.01115,-8.47639c0.28722,-2.86958 1.48507,-8.69621 1.48507,-8.69621c0,0 4.65386,9.51531 17.73303,16.1274c8.73214,4.41448 17.18397,17.19377 17.18397,17.19377" data-paper-data="{&quot;index&quot;:null}" fill="#27009a" stroke="#000000" stroke-width="0" stroke-linecap="round"/></g></g></svg>